<svg width="10" height="18" viewBox="0 0 10 18" fill="none" xmlns="http://www.w3.org/2000/svg">
<path d="M2 4C3.10457 4 4 3.10457 4 2C4 0.895431 3.10457 0 2 0C0.895431 0 0 0.895431 0 2C0 3.10457 0.895431 4 2 4Z" fill="#908CA0"/>
<path d="M8 4C9.10457 4 10 3.10457 10 2C10 0.895431 9.10457 0 8 0C6.89543 0 6 0.895431 6 2C6 3.10457 6.89543 4 8 4Z" fill="#908CA0"/>
<path d="M4 9C4 10.1046 3.10457 11 2 11C0.895431 11 0 10.1046 0 9C0 7.89543 0.895431 7 2 7C3.10457 7 4 7.89543 4 9Z" fill="#908CA0"/>
<path d="M8 11C9.10457 11 10 10.1046 10 9C10 7.89543 9.10457 7 8 7C6.89543 7 6 7.89543 6 9C6 10.1046 6.89543 11 8 11Z" fill="#908CA0"/>
<path d="M4 16C4 17.1046 3.10457 18 2 18C0.895431 18 0 17.1046 0 16C0 14.8954 0.895431 14 2 14C3.10457 14 4 14.8954 4 16Z" fill="#908CA0"/>
<path d="M8 18C9.10457 18 10 17.1046 10 16C10 14.8954 9.10457 14 8 14C6.89543 14 6 14.8954 6 16C6 17.1046 6.89543 18 8 18Z" fill="#908CA0"/>
</svg>
