<svg width="108" height="50" viewBox="0 0 108 50" fill="none" xmlns="http://www.w3.org/2000/svg">
<rect width="108" height="50" rx="2" fill="#3C3A42"/>
<path d="M50.377 31.0664C50.6641 31.0664 50.917 30.9639 51.2314 30.7793L59.3047 26.1104C59.8926 25.7686 60.1387 25.502 60.1387 25.0713C60.1387 24.6406 59.8926 24.3809 59.3047 24.0322L51.2314 19.3633C50.917 19.1787 50.6641 19.0762 50.377 19.0762C49.8164 19.0762 49.4199 19.5068 49.4199 20.1836V29.959C49.4199 30.6426 49.8164 31.0664 50.377 31.0664Z" fill="#121114"/>
<rect x="89" y="41" width="15" height="5" rx="2" fill="#4F4C57"/>
<rect x="94" y="34" width="10" height="5" rx="2" fill="#4F4C57"/>
<rect x="94" y="6" width="10" height="5" rx="2" fill="#4F4C57"/>
<rect x="91" y="27" width="13" height="5" rx="2" fill="#4F4C57"/>
<rect x="87" y="20" width="17" height="5" rx="2" fill="#4F4C57"/>
<rect x="92" y="13" width="12" height="5" rx="2" fill="#4F4C57"/>
</svg>
