<svg width="108" height="50" viewBox="0 0 108 50" fill="none" xmlns="http://www.w3.org/2000/svg">
<rect width="80" height="50" rx="2" fill="#3C3A42"/>
<rect x="82" width="26" height="50" rx="2" fill="#3C3A42"/>
<path d="M36.377 31.0664C36.6641 31.0664 36.917 30.9639 37.2314 30.7793L45.3047 26.1104C45.8926 25.7686 46.1387 25.502 46.1387 25.0713C46.1387 24.6406 45.8926 24.3809 45.3047 24.0322L37.2314 19.3633C36.917 19.1787 36.6641 19.0762 36.377 19.0762C35.8164 19.0762 35.4199 19.5068 35.4199 20.1836V29.959C35.4199 30.6426 35.8164 31.0664 36.377 31.0664Z" fill="#121114"/>
<rect x="89" y="41" width="15" height="5" rx="2" fill="#4F4C57"/>
<rect x="94" y="34" width="10" height="5" rx="2" fill="#4F4C57"/>
<rect x="94" y="6" width="10" height="5" rx="2" fill="#4F4C57"/>
<rect x="91" y="27" width="13" height="5" rx="2" fill="#4F4C57"/>
<rect x="87" y="20" width="17" height="5" rx="2" fill="#4F4C57"/>
<rect x="92" y="13" width="12" height="5" rx="2" fill="#4F4C57"/>
</svg>
