<svg width="108" height="50" viewBox="0 0 108 50" fill="none" xmlns="http://www.w3.org/2000/svg">
<path fill-rule="evenodd" clip-rule="evenodd" d="M2 0C0.895431 0 0 0.89543 0 2V12C0 13.1046 0.89543 14 2 14H67C68.1046 14 69 13.1046 69 12V2C69 0.895431 68.1046 0 67 0H2ZM2 18C0.895431 18 0 18.8954 0 20V26C0 27.1046 0.895431 28 2 28H30C31.1046 28 32 27.1046 32 26V20C32 18.8954 31.1046 18 30 18H2ZM37 20C37 18.8954 37.8954 18 39 18H67C68.1046 18 69 18.8954 69 20V26C69 27.1046 68.1046 28 67 28H39C37.8954 28 37 27.1046 37 26V20ZM2 32C0.895431 32 0 32.8954 0 34V48C0 49.1046 0.89543 50 2 50H67C68.1046 50 69 49.1046 69 48V34C69 32.8954 68.1046 32 67 32H2ZM73 2C73 0.89543 73.8954 0 75 0H106C107.105 0 108 0.895431 108 2V16C108 17.1046 107.105 18 106 18H75C73.8954 18 73 17.1046 73 16V2ZM75 22C73.8954 22 73 22.8954 73 24V32C73 33.1046 73.8954 34 75 34H106C107.105 34 108 33.1046 108 32V24C108 22.8954 107.105 22 106 22H75Z" fill="#3C3A42"/>
</svg>
