<svg width="108" height="50" viewBox="0 0 108 50" fill="none" xmlns="http://www.w3.org/2000/svg">
<path fill-rule="evenodd" clip-rule="evenodd" d="M2 0C0.895431 0 0 0.89543 0 2V3C0 4.10457 0.89543 5 2 5H19C20.1046 5 21 4.10457 21 3V2C21 0.895431 20.1046 0 19 0H2ZM2 9C0.895431 9 0 9.89543 0 11V12C0 13.1046 0.89543 14 2 14H19C20.1046 14 21 13.1046 21 12V11C21 9.89543 20.1046 9 19 9H2ZM0 20C0 18.8954 0.895431 18 2 18H19C20.1046 18 21 18.8954 21 20V21C21 22.1046 20.1046 23 19 23H2C0.89543 23 0 22.1046 0 21V20ZM2 27C0.895431 27 0 27.8954 0 29V30C0 31.1046 0.89543 32 2 32H19C20.1046 32 21 31.1046 21 30V29C21 27.8954 20.1046 27 19 27H2ZM26 2C26 0.89543 26.8954 0 28 0H106C107.105 0 108 0.895431 108 2V12C108 13.1046 107.105 14 106 14H28C26.8954 14 26 13.1046 26 12V2ZM28 18C26.8954 18 26 18.8954 26 20V26C26 27.1046 26.8954 28 28 28H63C64.1046 28 65 27.1046 65 26V20C65 18.8954 64.1046 18 63 18H28ZM26 34C26 32.8954 26.8954 32 28 32H106C107.105 32 108 32.8954 108 34V48C108 49.1046 107.105 50 106 50H28C26.8954 50 26 49.1046 26 48V34ZM71 18C69.8954 18 69 18.8954 69 20V26C69 27.1046 69.8954 28 71 28H106C107.105 28 108 27.1046 108 26V20C108 18.8954 107.105 18 106 18H71Z" fill="#3C3A42"/>
</svg>
