<svg width="205" height="361" viewBox="0 0 205 361" fill="none" xmlns="http://www.w3.org/2000/svg">
<g opacity="0.1">
<mask id="mask0" mask-type="alpha" maskUnits="userSpaceOnUse" x="-156" y="0" width="361" height="361">
<circle cx="24.5" cy="180.5" r="180.5" fill="#5AE4FF"/>
</mask>
<g mask="url(#mask0)">
<path d="M272.336 30.7185C271.377 32.2226 270.237 33.6458 269.5 35.2508C264.574 45.9909 259.567 56.7007 254.904 67.5519C249.736 79.5941 245.698 92.1209 238.995 103.487C237.481 106.061 236.29 108.877 234.534 111.269C230.819 116.327 228.76 122.262 225.54 127.571C223.915 130.256 222.28 132.952 220.856 135.738C218.727 139.896 216.889 144.196 214.729 148.345C212.993 151.676 210.944 154.846 209.077 158.106C206.129 163.254 203.353 168.513 200.234 173.56C197.953 177.255 195.238 180.697 192.714 184.24C190.736 187.005 188.384 189.579 186.819 192.567C182.357 201.056 178.168 209.677 173.969 218.297C171.759 222.829 169.992 227.594 167.6 232.015C164.965 236.89 161.917 241.544 158.909 246.197C153.509 254.535 147.866 262.711 142.556 271.109C135.713 281.951 128.97 292.872 122.429 303.905C117.563 312.112 113.162 320.601 108.408 328.888C104.159 336.287 100.293 343.878 93.6708 349.753C90.5921 352.488 88.7247 356.627 86.4737 360.23C82.2947 366.943 78.5801 373.978 74.0479 380.439C70.2929 385.799 65.5385 390.452 61.4201 395.58C59.7849 397.609 58.5938 400.031 57.3825 402.363C54.435 408.086 52.0528 413.941 46.7231 418.332C43.1801 421.249 40.2831 421.481 36.4069 420.29C35.0947 419.886 33.51 420.361 31.7637 420.452C33.944 417.777 33.3787 414.668 33.7421 411.639C34.1156 408.621 35.7508 405.684 37.1943 402.888C40.4749 396.529 43.2003 389.685 47.5306 384.113C56.9283 372 64.2263 358.615 72.5034 345.826C75.4711 341.243 79.0848 337.044 82.5975 332.835C88.5833 325.668 92.3686 317.209 96.7999 309.124C99.6666 303.905 102.877 298.858 105.935 293.751C108.176 290.006 110.427 286.271 112.708 282.556C115.343 278.276 118.109 274.067 120.662 269.737C124.347 263.498 127.809 257.139 131.514 250.911C133.744 247.146 136.096 243.442 138.66 239.888C143.374 233.337 146.291 225.938 149.562 218.65C152.6 211.908 156.86 205.71 159.918 198.977C161.836 194.758 164.451 190.912 166.187 186.743C168.256 181.757 171.264 177.537 174.191 173.146C178.38 166.868 182.236 160.377 186.274 154.008C189.07 149.587 191.957 145.226 194.733 140.795C195.268 139.947 195.389 138.846 195.863 137.948C198.972 132.023 202.182 126.158 205.241 120.203C206.937 116.902 208.229 113.399 209.995 110.139C211.59 107.181 213.639 104.466 215.365 101.569C216.011 100.479 216.193 99.106 216.799 97.9856C219.302 93.3019 222.007 88.7091 224.399 83.9649C225.56 81.6735 226.085 79.0794 227.084 76.6971C228.8 72.6292 230.728 68.642 232.434 64.5741C234.14 60.4961 235.594 56.3071 237.35 52.2593C238.37 49.8973 240.237 47.8179 240.913 45.3953C242.892 38.2285 246.596 31.9298 250.432 25.732C252.39 22.5625 255.237 19.9077 257.902 17.2429C258.447 16.6978 260.001 17.1622 261.162 17.6971C262.252 17.1723 263.332 16.6574 264.897 15.9004C267.33 18.1716 269.833 20.5134 272.336 22.8653C272.336 25.4898 272.336 28.1042 272.336 30.7185Z" fill="#5AE4FF"/>
<path d="M272.338 132.741C270.219 135.658 268.311 138.767 265.929 141.462C260.821 147.226 257.773 154.049 254.674 160.974C252.332 166.213 249.082 171.038 246.245 176.065C242.591 182.525 238.977 188.995 235.313 195.445C230.074 204.661 224.926 213.928 219.496 223.022C216.508 228.019 212.864 232.612 209.795 237.558C204.849 245.532 199.903 253.527 195.401 261.753C190.152 271.353 185.428 281.245 180.361 290.956C177.716 296.023 174.779 300.939 172.104 305.996C169.994 309.993 168.42 314.313 166.017 318.129C162.454 323.782 158.305 329.061 154.55 334.592C151.603 338.943 148.211 342.9 145.607 347.584C139.5 358.586 132.404 369.034 125.873 379.804C122.259 385.759 118.827 391.836 115.597 398.004C112.63 403.666 108.622 408.471 104.231 413.003C103.262 414.003 101.688 414.406 100.204 415.194C100.315 414.558 100.396 414.063 100.486 413.538C98.8815 413.286 97.1957 412.59 95.7523 412.913C94.3391 413.225 93.1581 414.588 92.3506 415.164C92.3506 414.033 91.8257 412.307 92.4515 411.267C93.9656 408.744 93.1278 405.847 94.0665 403.454C96.6102 396.994 99.6587 390.726 102.535 384.397C107.623 373.182 114.669 363.108 120.957 352.6C125.812 344.485 130.486 336.258 135.594 328.304C140.469 320.703 146.223 313.627 150.826 305.875C155.711 297.638 159.769 288.917 164.059 280.337C169.833 268.789 174.809 256.848 181.956 245.986C184.812 241.646 186.791 236.75 189.436 232.258C193.15 225.96 197.218 219.863 200.933 213.554C204.223 207.972 207.1 202.138 210.431 196.586C217.043 185.563 223.917 174.702 230.529 163.689C233.163 159.308 235.626 154.806 237.766 150.173C241.915 141.159 246.033 132.246 252.938 124.797C256.561 120.89 259.277 116.096 262.113 111.533C265.666 105.81 268.927 99.8946 272.318 94.0703C272.338 106.95 272.338 119.851 272.338 132.741Z" fill="#5AE4FF"/>
<path d="M112.794 -29.2398C113.259 -27.4531 113.703 -25.7069 114.208 -23.7284C114.944 -24.2937 115.893 -25.0205 116.812 -25.7271C120.405 -22.2446 120.567 -22.1638 118.528 -18.1363C114.541 -10.2528 110.301 -2.51064 106.264 5.34256C103.326 11.0457 100.47 16.7994 97.734 22.6035C96.3915 25.4399 95.6345 28.559 94.181 31.3349C93.01 33.5859 91.0417 35.4028 89.6992 37.573C85.3486 44.5884 81.0687 51.6442 76.8898 58.7605C75.4463 61.2336 73.7505 63.8278 73.3366 66.5431C72.9732 68.895 72.3878 70.9138 71.126 72.8317C70.4194 73.9017 69.5715 74.8909 68.9659 76.0113C68.118 77.5759 67.6536 79.3828 66.6442 80.8161C64.6456 83.6526 62.2331 86.1963 60.2647 89.0529C58.7506 91.2433 57.6706 93.7265 56.3785 96.0582C54.6222 99.2379 52.8355 102.397 51.0892 105.587C47.415 112.279 43.1957 118.76 40.3592 125.795C39.0672 128.985 38.0376 132.266 36.2005 135.223C32.2537 141.583 28.216 147.881 24.3499 154.291C21.5337 158.965 19.0102 163.82 16.2343 168.524C11.379 176.761 6.42285 184.927 1.53731 193.143C-0.461334 196.505 -2.24796 199.987 -4.35762 203.278C-6.91142 207.255 -9.63686 211.121 -12.3925 214.957C-16.8541 221.154 -21.5277 227.201 -25.8782 233.479C-30.6225 240.333 -34.9528 247.46 -39.6971 254.303C-43.8457 260.289 -48.5395 265.901 -52.5771 271.948C-56.3725 277.631 -59.5623 283.707 -63.1457 289.532C-65.4269 293.236 -67.7586 296.931 -70.3629 300.413C-74.6529 306.147 -79.0237 311.83 -83.6468 317.291C-92.9434 328.303 -102.684 338.942 -111.749 350.137C-117.997 357.859 -123.377 366.287 -129.222 374.342C-134.188 381.196 -139.336 387.909 -144.252 394.803C-146.018 397.276 -147.159 400.193 -148.875 402.717C-150.934 405.745 -153.155 408.693 -155.597 411.418C-157.101 413.094 -159.151 414.275 -161.381 416.011C-160.786 414.87 -160.392 414.133 -160.15 413.669C-162.472 413.669 -164.823 413.76 -167.175 413.639C-169.366 413.528 -171.334 408.339 -170.264 406.361C-167.852 401.909 -165.692 397.327 -163.34 392.845C-161.099 388.565 -159.019 384.164 -156.395 380.126C-149.995 370.285 -143.616 360.412 -136.671 350.954C-130.473 342.516 -123.549 334.602 -116.907 326.476C-111.597 319.986 -106.167 313.606 -100.918 307.065C-94.8108 299.454 -88.7241 291.823 -82.8998 283.99C-80.7094 281.053 -79.5082 277.409 -77.4591 274.34C-71.5238 265.427 -65.2856 256.726 -59.3805 247.793C-53.4755 238.849 -47.9743 229.643 -42.0086 220.73C-38.082 214.856 -33.5498 209.395 -29.502 203.601C-25.5149 197.898 -21.6589 192.093 -17.9948 186.178C-14.1893 180.031 -10.616 173.732 -7.04268 167.444C-4.11539 162.296 -1.46062 156.986 1.55751 151.889C4.4747 146.953 7.8764 142.299 10.7532 137.353C13.7814 132.135 16.4362 126.694 19.2726 121.364C21.5135 117.145 23.8453 112.986 26.0256 108.736C27.1965 106.445 27.9738 103.952 29.2052 101.691C33.2025 94.3321 37.3713 87.0745 41.3989 79.726C46.1835 70.9845 50.857 62.1824 55.6517 53.4409C56.5703 51.7653 58.0137 50.3723 58.9222 48.6967C61.8697 43.2964 64.5346 37.7446 67.5931 32.4149C71.3884 25.8033 76.2639 19.6863 79.1609 12.7214C81.6239 6.80621 85.3587 1.77935 88.0639 -3.88344C89.467 -6.83091 90.5571 -9.96008 92.2429 -12.7259C94.615 -16.6323 97.4312 -20.2561 100.005 -24.0313C103.033 -28.4727 107.566 -29.2802 112.794 -29.2398Z" fill="#5AE4FF"/>
<path d="M-46.0585 414.214C-46.856 411.811 -47.6332 409.601 -48.3095 407.36C-48.5215 406.673 -48.6729 405.866 -48.4912 405.2C-47.3405 400.889 -46.0989 396.61 -44.8876 392.32C-44.4031 390.614 -43.7268 388.948 -43.4744 387.212C-42.2631 378.814 -38.286 371.526 -34.3897 364.197C-32.1286 359.928 -30.0796 355.547 -27.7276 351.327C-22.2566 341.526 -16.6039 331.816 -11.1329 322.004C-9.10402 318.37 -7.15586 314.656 -5.51052 310.83C-1.72523 301.998 3.41267 294.094 9.82242 286.947C11.3567 285.231 12.6891 283.253 13.7389 281.204C18.6548 271.655 23.4393 262.045 28.2643 252.446C33.1296 242.776 37.672 232.914 42.9513 223.476C47.4835 215.38 52.9848 207.83 57.8299 199.896C61.0096 194.697 63.7249 189.216 66.7632 183.937C70.4374 177.558 74.2833 171.269 77.9576 164.889C81.7731 158.278 85.4776 151.596 89.2225 144.933C91.6249 140.664 94.2696 136.495 96.349 132.074C100.306 123.635 107.574 117.568 111.965 109.422C115.831 102.225 120.454 95.4421 124.633 88.4065C126.793 84.7827 128.67 80.9873 130.78 77.3333C131.88 75.4255 133.425 73.7498 134.373 71.7815C136.584 67.2089 138.34 62.4041 140.692 57.9021C142.227 54.9647 144.669 52.5119 146.345 49.6451C150.04 43.3262 153.522 36.8761 157.075 30.4664C162.899 19.9483 168.623 9.3596 174.578 -1.08779C177.283 -5.84211 180.14 -10.5662 183.481 -14.8864C186.762 -19.1159 190.789 -22.7396 196.846 -22.1643C197.562 -22.0936 198.501 -21.7605 198.865 -21.2154C200.51 -18.7928 202.801 -17.6724 205.618 -17.3393C206.203 -17.2686 206.97 -17.0163 207.263 -16.5822C208.626 -14.5735 207.132 -8.50695 205.274 -6.96256C203.387 -5.38788 201.459 -3.70216 200.086 -1.70353C196.694 3.28295 193.596 8.46122 190.416 13.589C190.032 14.2149 189.679 14.9517 189.608 15.6684C189.013 22.0782 184.067 26.5801 182.219 32.465C181.836 33.6965 179.857 34.3324 179.151 35.5639C177.677 38.1177 176.648 40.9037 175.295 43.5281C174.568 44.9312 173.559 46.193 172.67 47.5153C171.207 49.6956 169.642 51.8154 168.31 54.0765C164.202 61.0212 159.821 67.8448 156.217 75.0419C150.857 85.7517 145.386 96.3203 138.239 106.011C135.908 109.17 134.717 113.157 132.748 116.619C131.113 119.496 129.125 122.161 127.267 124.907C123.421 130.6 119.374 136.172 115.78 142.016C113.812 145.216 112.752 148.961 110.965 152.302C109.956 154.2 108.159 155.653 107.018 157.501C105.262 160.327 103.859 163.365 102.133 166.212C98.6101 171.986 94.9156 177.658 91.3928 183.432C90.7064 184.553 90.767 186.138 90.0604 187.248C87.6782 190.983 84.9931 194.536 82.6412 198.291C81.3895 200.3 80.794 202.722 79.512 204.711C76.0498 210.091 72.2645 215.269 68.8325 220.669C64.6636 227.241 60.3534 233.761 56.7801 240.656C52.904 248.146 49.8859 256.08 46.3429 263.751C44.9499 266.759 43.0219 269.525 41.4977 272.482C38.9944 277.368 36.6727 282.334 34.1996 287.23C31.1613 293.266 26.4575 298.071 22.3996 303.37C19.4521 307.216 17.3223 311.708 14.9603 315.988C13.0121 319.511 11.387 323.205 9.39842 326.698C6.7033 331.442 3.8366 336.095 0.969875 340.739C-0.584618 343.252 -2.54289 345.523 -3.90559 348.128C-8.34699 356.607 -12.7076 365.116 -16.8765 373.736C-19.2082 378.561 -21.0352 383.618 -23.1651 388.544C-25.5574 394.066 -28.3635 399.446 -30.3521 405.109C-31.846 409.358 -35.7322 411.024 -38.3062 414.052C-38.6091 414.405 -39.8708 414.547 -39.9819 414.355C-41.9502 411.074 -43.9589 413.255 -45.9677 414.224C-46.109 414.274 -46.321 414.193 -46.0585 414.214Z" fill="#5AE4FF"/>
<path d="M-86.2353 400.395C-88.0724 398.305 -88.0723 398.305 -94.1389 401.223C-94.9969 398.477 -95.9761 395.792 -96.6322 393.026C-96.8845 391.946 -96.6725 390.573 -96.2284 389.524C-92.9377 381.721 -89.6975 373.898 -86.1444 366.206C-80.6633 354.346 -72.9615 343.807 -65.8452 332.916C-59.8997 323.821 -54.5196 314.353 -48.8568 305.066C-41.1045 292.338 -33.5138 279.518 -25.5192 266.951C-21.0173 259.885 -15.4958 253.475 -11.0746 246.359C-6.41112 238.859 -2.66619 230.804 1.74493 223.132C5.54031 216.541 9.8 210.222 13.6459 203.661C16.1795 199.341 18.2992 194.778 20.6915 190.367C22.0138 187.924 23.5582 185.592 24.931 183.17C26.6168 180.212 28.3025 177.265 29.8469 174.237C31.6133 170.784 33.0871 167.171 34.9343 163.769C36.7513 160.418 38.9417 157.268 40.8596 153.978C43.373 149.647 45.7552 145.246 48.2585 140.906C53.1743 132.346 58.0599 123.756 63.0968 115.267C66.1957 110.048 69.6479 105.052 72.7367 99.8331C73.8369 97.9859 74.0691 95.6238 75.1492 93.7564C79.4796 86.2464 83.9815 78.8373 88.4128 71.3879C90.5528 67.8045 92.5514 64.1201 94.8731 60.6579C97.5783 56.6303 100.647 52.8551 103.403 48.868C104.765 46.8895 105.755 44.6587 106.905 42.539C110.135 36.6036 113.204 30.5876 116.626 24.7734C119.432 19.9989 122.733 15.5272 125.66 10.8233C127.709 7.53265 129.667 4.17131 131.373 0.698944C134.987 -6.66975 138.298 -14.1798 141.952 -21.5283C143.234 -24.1224 145.051 -26.3936 148.271 -27.1305C150.562 -27.6554 152.732 -28.6749 155.125 -29.543C156.023 -26.7166 158.749 -24.7786 154.721 -21.9522C156.296 -22.0834 156.982 -22.0027 157.053 -22.1743C158.234 -25.0006 160.707 -24.2032 162.827 -24.2335C164.946 -24.2638 165.047 -22.9616 164.411 -21.3869C161.797 -14.8561 159.263 -8.2848 156.487 -1.82458C155.246 1.06233 153.469 3.70699 151.965 6.47277C149.795 10.4902 147.685 14.5379 145.475 18.5352C144.445 20.4026 143.244 22.1792 142.103 23.986C139.095 28.7605 135.956 33.4543 133.13 38.3297C131.676 40.8331 130.929 43.7402 129.607 46.3344C127.568 50.3619 125.478 54.3894 123.106 58.2353C121.077 61.5159 118.544 64.4835 116.353 67.6632C110.297 76.4652 104.17 85.2168 98.3555 94.1703C96.1146 97.6225 94.9134 101.741 92.7735 105.284C86.9391 114.974 80.8019 124.473 74.9372 134.143C73.4332 136.636 72.6761 139.574 71.3033 142.158C68.2751 147.831 65.1358 153.453 61.8956 158.995C59.3721 163.305 55.7282 167.171 54.1838 171.764C51.9328 178.466 46.2296 182.907 44.0392 189.489C42.6462 193.678 41.0816 197.847 39.1132 201.794C37.0439 205.942 34.5003 209.869 32.007 213.795C29.0797 218.398 25.9506 222.88 22.993 227.463C22.3571 228.452 22.1451 229.704 21.6202 230.784C20.8732 232.348 20.0455 233.883 19.1976 235.397C17.1182 239.111 15.1196 242.877 12.8888 246.5C9.4467 252.092 6.02482 257.715 2.23953 263.065C-2.10093 269.212 -7.07731 274.925 -11.3067 281.143C-14.7084 286.14 -17.2925 291.681 -20.452 296.86C-24.6511 303.744 -29.0926 310.487 -33.3725 317.331C-37.1679 323.397 -40.8017 329.565 -44.6476 335.591C-50.0075 343.999 -55.64 352.236 -60.899 360.705C-66.1379 369.144 -71.1647 377.734 -76.0503 386.384C-77.4029 388.787 -77.8571 391.684 -78.8968 394.278C-79.2198 395.085 -80.0375 396.216 -80.6936 396.256C-83.0859 396.408 -84.0852 397.952 -85.0744 399.719C-85.2359 400.082 -85.8416 400.183 -86.2353 400.395Z" fill="#5AE4FF"/>
<path d="M-223.905 378.995C-224.319 379.792 -224.642 380.428 -225.107 381.347C-225.359 380.832 -225.621 380.559 -225.621 380.277C-225.581 377.945 -225.208 375.573 -227.913 374.19C-228.357 373.968 -228.559 372.605 -228.367 371.919C-226.55 365.489 -225.187 358.847 -222.553 352.76C-220.332 347.643 -216.678 343.12 -213.519 338.427C-209.36 332.239 -205.151 326.082 -200.82 320.015C-197.469 315.321 -193.775 310.87 -190.464 306.146C-185.558 299.151 -180.894 291.984 -176.07 284.938C-173.697 281.476 -171.083 278.185 -168.741 274.703C-165.602 270.019 -162.604 265.234 -159.576 260.48C-157.506 257.23 -155.407 254 -153.449 250.679C-151.47 247.317 -149.643 243.875 -147.776 240.453C-145.101 235.548 -142.406 230.662 -139.822 225.706C-138.54 223.253 -137.53 220.659 -136.329 218.155C-135.945 217.358 -135.36 216.662 -134.845 215.925C-134.482 215.41 -133.856 214.956 -133.755 214.4C-131.989 205.174 -125.165 198.674 -121.026 190.74C-113.749 176.81 -103.13 165.242 -94.0852 152.554C-90.6835 147.79 -87.8269 142.621 -84.94 137.524C-80.4077 129.529 -76.0976 121.424 -71.5956 113.409C-70.3238 111.148 -68.7591 109.038 -67.2652 106.898C-63.0459 100.882 -58.8266 94.8662 -54.5265 88.9107C-51.3165 84.4592 -47.8846 80.1591 -44.7554 75.647C-42.3833 72.2352 -40.1929 68.672 -38.1236 65.0684C-33.7932 57.5382 -30.5227 49.1399 -25.0316 42.5888C-20.5296 37.2188 -17.8748 30.7384 -12.8883 25.6812C-9.39577 22.1483 -7.62933 16.9397 -4.97459 12.5589C0.375275 3.72657 5.8463 -5.0351 11.1962 -13.8573C13.1948 -17.1581 14.8603 -20.6608 16.9195 -23.9111C19.6752 -28.2515 24.9039 -31.9661 30.7484 -30.3208C31.3036 -30.1593 32.0001 -29.7959 32.2423 -29.3215C33.0599 -27.7468 33.706 -26.0813 34.4025 -24.5066C34.9173 -24.5066 35.1898 -24.5167 35.4522 -24.5066C37.148 -24.3956 38.8338 -24.2845 40.5296 -24.1634C40.1258 -22.8108 39.9744 -21.3068 39.288 -20.1157C35.8661 -14.1703 32.2727 -8.33587 28.8205 -2.42073C25.2573 3.66601 21.9969 9.94453 18.2217 15.9001C13.3563 23.5716 8.42027 31.233 2.96945 38.4906C-4.71214 48.7462 -10.9805 59.7589 -16.9159 71.0845C-20.358 77.6557 -25.2637 83.4598 -29.5032 89.6172C-32.3901 93.8063 -35.2771 98.0054 -38.164 102.194C-45.4014 112.692 -53.184 122.817 -58.2108 134.728C-60.0177 139.008 -63.2377 142.682 -65.7713 146.659C-67.3056 149.061 -68.6784 151.575 -70.2733 153.947C-73.6346 158.933 -77.006 163.91 -80.5289 168.785C-86.444 176.992 -93.0657 184.754 -98.3046 193.364C-105.249 204.781 -111.185 216.813 -117.473 228.623C-121.652 236.476 -125.68 244.41 -129.798 252.294C-130.404 253.444 -131.1 254.555 -131.807 255.645C-135.875 261.984 -139.842 268.394 -144.061 274.642C-148.331 280.951 -152.873 287.078 -157.264 293.296C-161.605 299.463 -165.774 305.752 -170.265 311.798C-174.475 317.461 -179.067 322.831 -183.368 328.423C-184.872 330.382 -185.911 332.683 -187.365 334.682C-191.453 340.294 -195.793 345.725 -199.74 351.438C-201.87 354.527 -203.546 357.959 -205.151 361.371C-207.301 365.963 -209.067 370.738 -211.227 375.321C-213.054 379.207 -218.626 380.771 -223.905 378.995Z" fill="#5AE4FF"/>
<path d="M-169.363 358.062C-168.384 356.326 -167.688 355.236 -167.132 354.085C-166.073 351.895 -165.184 349.614 -164.054 347.454C-162.671 344.829 -161.005 342.346 -159.643 339.711C-155.221 331.152 -148.741 323.854 -144.915 314.87C-143.27 311.004 -139.777 307.915 -137.133 304.463C-135.891 302.848 -134.67 301.223 -133.206 299.305C-132.54 297.912 -131.692 296.095 -130.814 294.288C-130.451 293.551 -130.117 292.774 -129.633 292.118C-128.512 290.604 -127.543 288.857 -126.1 287.737C-123.062 285.365 -121.608 281.993 -119.751 278.854C-118.822 277.289 -117.631 275.876 -116.773 274.271C-116.178 273.141 -115.925 271.819 -115.582 270.567C-114.139 265.338 -110.373 261.462 -107.779 256.92C-103.267 249.036 -99.4213 240.789 -95.0708 232.805C-89.6401 222.842 -84.149 212.899 -78.3651 203.138C-74.5697 196.739 -70.1686 190.702 -66.131 184.444C-62.4567 178.771 -58.9238 173.007 -55.2899 167.314C-52.2314 162.52 -48.9306 157.876 -46.0942 152.971C-43.5 148.489 -41.4308 143.704 -38.9981 139.122C-38.6044 138.385 -37.6253 137.708 -36.7875 137.496C-34.3043 136.871 -33.3656 134.478 -35.2531 132.126C-33.6482 130.632 -32.023 129.108 -30.2464 127.453C-30.9631 125.091 -29.8023 122.698 -26.976 121.396C-24.5736 120.296 -23.1705 116.915 -23.7762 114.098C-23.9175 113.452 -23.5238 112.655 -23.2513 111.979C-21.6867 108.092 -20.1422 104.206 -18.4969 100.36C-13.7022 89.1457 -9.32141 77.7292 -3.89078 66.8377C0.651566 57.7227 6.40521 49.2033 11.7147 40.482C16.5902 32.4673 21.4858 24.4526 26.5631 16.559C30.419 10.553 34.6485 4.77919 38.5448 -1.20661C40.0589 -3.52825 41.0381 -6.19309 42.3806 -8.63586C45.0353 -13.4407 47.7304 -18.2253 50.5063 -22.9594C51.0817 -23.9385 52.0709 -24.6653 52.939 -25.5738C55.0385 -22.3235 56.1893 -22.3941 58.8137 -25.2306C60.3783 -26.9163 62.0135 -28.6827 63.9718 -29.8032C65.1225 -30.4593 66.9597 -29.9243 68.8574 -29.9243C67.1111 -26.4015 70.644 -26.3308 71.9764 -25.0085C73.8236 -23.1714 74.9037 -19.81 73.4704 -17.5994C71.0478 -13.8646 68.4839 -10.2206 66.2733 -6.36469C63.8305 -2.12517 61.8419 2.3768 59.4194 6.63651C57.3198 10.3209 54.978 13.874 52.6058 17.3968C49.5271 21.9694 46.2466 26.4209 43.178 31.0037C38.999 37.2418 34.7797 43.4598 30.8632 49.8695C27.845 54.8055 25.3215 60.0444 22.4952 65.1015C21.2334 67.3727 19.8001 69.5429 18.3869 71.7232C16.7516 74.2367 15.0457 76.6996 13.3903 79.203C13.138 79.5765 12.7645 80.0206 12.7948 80.4143C13.0169 84.2702 9.89778 87.0461 9.38298 90.4882C8.44423 96.7566 3.6091 101.127 2.0748 107.012C-0.155991 115.602 -4.65793 123.092 -9.19019 130.602C-13.359 137.527 -17.1443 144.683 -21.1214 151.719C-25.3105 159.128 -29.4894 166.547 -33.7491 173.916C-34.5768 175.349 -35.9395 176.47 -36.7673 177.903C-38.5236 180.901 -39.9267 184.101 -41.784 187.028C-43.712 190.046 -46.1043 192.772 -48.1231 195.739C-52.2415 201.806 -56.3801 207.862 -60.2461 214.08C-63.3551 219.087 -66.2117 224.265 -68.9371 229.484C-74.2769 239.679 -79.122 250.136 -84.805 260.13C-88.3783 266.408 -93.1226 272 -97.2915 277.946C-101.874 284.487 -106.598 290.957 -110.868 297.7C-113.896 302.484 -116.046 307.824 -119.054 312.619C-121.396 316.354 -124 319.897 -127.755 322.662C-130.753 324.863 -132.873 328.275 -135.346 331.192C-138.798 335.27 -142.271 339.328 -145.602 343.507C-147.56 345.97 -149.034 348.836 -151.123 351.178C-153.051 353.338 -155.464 355.085 -157.755 356.892C-158.341 357.346 -159.289 357.376 -160.087 357.517C-161.742 357.81 -163.398 358.143 -165.073 358.274C-166.274 358.365 -167.476 358.163 -169.363 358.062Z" fill="#5AE4FF"/>
<path d="M-17.5869 411.257C-17.5869 406.714 -17.6576 402.364 -17.5365 398.013C-17.5062 396.964 -17.0014 395.823 -16.416 394.904C-11.6617 387.324 -6.83669 379.793 -2.042 372.233C1.70291 366.338 5.25604 360.312 9.19274 354.548C14.3306 347.028 19.7713 339.72 25.0606 332.301C28.8459 327.001 32.6918 321.732 36.3559 316.352C41.2516 309.145 45.7031 301.625 50.8712 294.619C57.1195 286.161 61.5911 276.773 66.4363 267.557C69.6866 261.37 73.1489 255.293 76.5405 249.176C83.2632 237.033 89.7537 224.768 96.8095 212.827C100.817 206.054 105.965 199.967 110.204 193.315C112.536 189.651 114.01 185.442 115.958 181.525C121.934 169.523 127.819 157.481 134.016 145.6C136.146 141.522 139.164 137.919 141.577 133.972C144.191 129.722 146.735 125.402 149.026 120.971C152.862 113.541 156.405 105.971 160.19 98.5215C163.753 91.5061 167.387 84.5311 171.152 77.6267C173.555 73.2055 176.321 68.9861 178.774 64.5952C182.529 57.8524 186.183 51.0388 189.827 44.2354C191.401 41.298 192.744 38.2294 194.419 35.3526C195.994 32.6474 197.67 29.9422 199.699 27.5802C200.627 26.5102 202.575 25.6623 203.968 25.7935C206.34 26.0156 208.773 25.0465 211.145 26.3588C212.387 27.0452 214.002 27.3177 215.455 27.3177C218.363 27.3076 218.978 28.0849 218.009 30.78C217.747 31.5169 218.04 32.4455 218.09 33.2934C218.423 33.3641 218.756 33.4246 219.089 33.4953C215.869 39.7335 212.649 45.9817 209.409 52.2199C208.723 53.5422 208.016 54.8443 207.269 56.1263C205.038 59.9418 202.828 63.7776 200.526 67.5528C197.135 73.0843 193.561 78.5049 190.281 84.097C188.252 87.5492 186.637 91.2436 184.759 94.7967C182.579 98.9252 180.247 102.973 178.117 107.122C175.877 111.472 173.858 115.944 171.637 120.305C167.821 127.815 163.965 135.304 160.049 142.764C159.413 143.985 158.262 144.934 157.596 146.145C154.134 152.444 150.692 158.743 147.361 165.112C142.839 173.763 138.407 182.454 133.966 191.145C131.917 195.152 129.989 199.23 127.869 203.197C127.243 204.378 126.133 205.297 125.265 206.347C124.689 207.053 124.104 207.76 123.589 208.507C121.429 211.575 119.491 214.836 117.088 217.692C115.13 220.024 113.445 222.265 112.153 225.172C110.305 229.341 107.095 232.884 104.592 236.78C102.957 239.324 101.473 241.979 100.08 244.664C98.9797 246.773 98.1318 249.004 97.1627 251.185C94.0336 258.25 90.0262 264.791 85.8372 271.292C82.0418 277.187 79.6293 283.96 76.0056 289.986C72.4221 295.942 68.0413 301.403 64.1046 307.156C61.4801 310.982 58.9566 314.878 56.5239 318.825C49.9728 329.454 42.372 339.276 34.5087 348.966C29.391 355.275 25.4038 362.492 20.9221 369.316C16.8239 375.544 13.0386 382.014 8.53659 387.939C5.22573 392.29 2.24796 396.772 0.0676346 401.718C-1.80987 405.988 -5.79701 408.087 -8.99684 410.782C-10.7431 412.246 -14.4982 411.327 -17.3548 411.459C-17.5163 411.428 -17.6576 411.186 -17.5869 411.257Z" fill="#5AE4FF"/>
</g>
</g>
</svg>
