<svg width="98" height="195" viewBox="0 0 98 195" fill="none" xmlns="http://www.w3.org/2000/svg">
<mask id="mask0" mask-type="alpha" maskUnits="userSpaceOnUse" x="0" y="0" width="195" height="195">
<circle cx="97.5" cy="97.5" r="97.5" fill="#C4C4C4"/>
</mask>
<g mask="url(#mask0)">
<path d="M145.194 -15.7942C145.445 -14.8291 145.684 -13.8858 145.957 -12.8171C146.355 -13.1224 146.868 -13.515 147.364 -13.8967C149.305 -12.0156 149.392 -11.972 148.291 -9.79642C146.137 -5.53803 143.847 -1.35597 141.666 2.88606C140.079 5.96672 138.536 9.07464 137.059 12.2098C136.333 13.742 135.925 15.4268 135.139 16.9262C134.507 18.1421 133.444 19.1236 132.718 20.2959C130.368 24.0853 128.057 27.8966 125.799 31.7406C125.02 33.0765 124.103 34.4778 123.88 35.9445C123.684 37.2149 123.367 38.3054 122.686 39.3414C122.304 39.9194 121.846 40.4537 121.519 41.0589C121.061 41.9041 120.81 42.8801 120.265 43.6543C119.185 45.1865 117.882 46.5605 116.819 48.1036C116.001 49.2868 115.418 50.6281 114.72 51.8876C113.771 53.6051 112.806 55.3118 111.863 57.0347C109.878 60.6497 107.599 64.1502 106.067 67.9506C105.369 69.6736 104.813 71.4457 103.82 73.0433C101.688 76.4783 99.5073 79.8807 97.419 83.343C95.8977 85.8675 94.5346 88.4902 93.0352 91.031C90.4126 95.4803 87.7354 99.8913 85.0964 104.33C84.0168 106.145 83.0517 108.026 81.9121 109.804C80.5327 111.952 79.0605 114.041 77.5719 116.112C75.1619 119.46 72.6375 122.726 70.2874 126.118C67.7248 129.82 65.3856 133.669 62.823 137.366C60.582 140.6 58.0466 143.631 55.8656 146.897C53.8154 149.967 52.0924 153.249 50.1568 156.395C48.9245 158.397 47.665 160.392 46.2583 162.273C43.941 165.37 41.58 168.44 39.0828 171.39C34.0611 177.338 28.7994 183.085 23.9031 189.132C20.528 193.303 17.6218 197.856 14.4648 202.207C11.7822 205.91 9.00143 209.535 6.34607 213.259C5.39188 214.595 4.77574 216.171 3.84882 217.534C2.73651 219.17 1.53698 220.762 0.217475 222.234C-0.594945 223.139 -1.70182 223.777 -2.90682 224.715C-2.58513 224.099 -2.37246 223.701 -2.2416 223.45C-3.49568 223.45 -4.76612 223.499 -6.03655 223.434C-7.21974 223.374 -8.28297 220.571 -7.70501 219.503C-6.40186 217.098 -5.23501 214.623 -3.96458 212.202C-2.75412 209.89 -1.63094 207.513 -0.213293 205.332C3.24359 200.015 6.68958 194.683 10.4409 189.574C13.7887 185.016 17.5291 180.741 21.1169 176.352C23.9849 172.846 26.9183 169.4 29.7536 165.866C33.0524 161.755 36.3402 157.633 39.4863 153.402C40.6695 151.815 41.3183 149.847 42.4252 148.189C45.6312 143.375 49.0009 138.675 52.1906 133.849C55.3803 129.019 58.3519 124.046 61.5743 119.231C63.6953 116.058 66.1435 113.108 68.33 109.978C70.4837 106.898 72.5666 103.763 74.5458 100.567C76.6014 97.2469 78.5316 93.8445 80.4618 90.4476C82.043 87.6668 83.477 84.7988 85.1073 82.0453C86.6831 79.379 88.5205 76.8655 90.0745 74.1937C91.7103 71.3748 93.1443 68.4359 94.6764 65.557C95.8869 63.2778 97.1464 61.0314 98.3241 58.7359C98.9566 57.4982 99.3765 56.1514 100.042 54.9301C102.201 50.9552 104.453 47.0349 106.628 43.0655C109.213 38.3436 111.737 33.589 114.327 28.8672C114.823 27.9621 115.603 27.2096 116.094 26.3045C117.686 23.3874 119.125 20.3886 120.777 17.5096C122.828 13.9383 125.461 10.6341 127.026 6.87184C128.356 3.67668 130.374 0.961336 131.835 -2.09751C132.593 -3.68964 133.182 -5.37991 134.092 -6.87389C135.374 -8.984 136.895 -10.9414 138.285 -12.9807C139.921 -15.3798 142.369 -15.816 145.194 -15.7942Z" fill="#5AE4FF"/>
<path d="M-132.039 211.318C-131.842 210.877 -131.722 210.599 -131.542 210.201C-132.802 210.119 -134.023 210.222 -135.125 209.895C-135.741 209.715 -136.33 208.903 -136.597 208.238C-136.853 207.589 -136.957 206.635 -136.657 206.057C-135.31 203.456 -133.827 200.926 -132.338 198.401C-131.243 196.537 -130.179 194.634 -128.898 192.9C-124.978 187.6 -121.112 182.251 -116.924 177.164C-113.266 172.72 -109.209 168.598 -105.316 164.345C-102.459 161.226 -99.5472 158.162 -96.7228 155.021C-92.9933 150.877 -89.2529 146.734 -85.6543 142.47C-84.4166 141.003 -83.735 139.073 -82.5682 137.53C-78.5006 132.148 -74.2967 126.876 -70.2183 121.499C-67.9064 118.452 -65.829 115.218 -63.5008 112.187C-60.3493 108.086 -57.0178 104.117 -53.8281 100.044C-51.9143 97.5957 -50.055 95.093 -48.2884 92.5358C-45.922 89.1117 -43.6538 85.6221 -41.3801 82.1325C-39.1718 78.7356 -37.0562 75.2787 -34.8098 71.9091C-33.1522 69.4173 -31.2166 67.1 -29.6354 64.5646C-27.7052 61.473 -26.0258 58.2288 -24.2102 55.0718C-23.6867 54.1612 -23.0052 53.3379 -22.4926 52.4219C-21.4512 50.5626 -20.5897 48.6051 -19.4556 46.8058C-17.2037 43.2235 -14.7665 39.7503 -12.5037 36.1734C-9.64657 31.6588 -6.90396 27.0678 -4.07411 22.5368C-3.52341 21.6589 -2.70009 20.9555 -2.16574 20.0722C-0.69902 17.6568 0.631378 15.1596 2.1199 12.7605C2.71423 11.8008 3.6575 11.0593 4.29544 10.116C5.29326 8.63292 6.06204 6.99172 7.11983 5.55771C8.72832 3.37127 10.1296 1.1412 11.1656 -1.42147C11.9889 -3.4607 13.7228 -5.11826 14.8842 -7.04844C16.0019 -8.90229 16.7326 -11.0015 17.9539 -12.7681C19.2734 -14.6765 20.9964 -16.3068 22.4795 -18.1115C23.4991 -19.3547 24.7478 -20.1562 26.3235 -20.3471C27.2832 -20.4616 28.2646 -20.3689 29.2951 -20.3689C29.4805 -19.3929 29.6659 -18.4441 29.8785 -17.3318C30.2493 -17.5772 30.7455 -17.8989 31.2471 -18.2206C33.3518 -16.6121 33.4172 -16.4812 32.1904 -14.4093C29.6823 -10.1727 27.0978 -5.98521 24.606 -1.74317C22.3923 2.02995 19.9659 5.72129 18.183 9.69616C16.4218 13.611 13.243 16.3864 11.0184 19.8814C9.69887 21.9534 8.41751 24.0526 7.14709 26.1572C6.50369 27.2259 5.57678 28.2782 5.38049 29.4396C4.91702 32.1222 2.79056 33.8016 1.80365 36.0317C0.620468 38.7089 -1.80045 40.0665 -3.27261 42.302C-4.49397 44.1559 -5.48631 46.157 -6.64224 48.0544C-9.23218 52.3074 -11.9911 56.4676 -14.4011 60.8187C-15.3117 62.4654 -15.7424 64.3628 -16.9311 65.9495C-19.3902 69.2264 -21.7238 72.6015 -24.0302 75.9875C-25.6933 78.4248 -27.1927 80.9766 -28.8393 83.4302C-31.7128 87.7213 -34.6462 91.9688 -37.536 96.2544C-38.7465 98.0483 -39.8316 99.9294 -41.0965 101.685C-42.5305 103.681 -44.0627 105.605 -45.6112 107.508C-48.152 110.633 -50.8074 113.664 -53.2828 116.843C-56.1127 120.469 -58.7353 124.258 -61.5652 127.89C-63.9806 130.987 -66.6796 133.877 -69.046 137.012C-71.2706 139.956 -73.2008 143.129 -75.3163 146.161C-76.6904 148.135 -78.0753 150.109 -79.6184 151.952C-82.0393 154.836 -84.5256 157.677 -87.1155 160.414C-92.5353 166.144 -98.1732 171.673 -103.468 177.513C-107.039 181.455 -110.158 185.801 -113.522 189.934C-116.346 193.401 -119.28 196.787 -122.066 200.282C-123.211 201.722 -124.013 203.429 -125.136 204.89C-126.313 206.411 -127.622 207.845 -129.002 209.192C-129.836 209.972 -130.91 210.528 -132.039 211.318Z" fill="#5AE4FF"/>
<path d="M-69.9082 213.941C-70.2735 212.638 -70.6171 211.482 -70.917 210.315C-71.0151 209.939 -71.1459 209.491 -71.0369 209.153C-70.2681 206.82 -69.4339 204.508 -68.6214 202.185C-68.387 201.52 -68.0871 200.871 -67.9399 200.19C-66.893 195.266 -64.3794 191.04 -61.7786 186.82C-59.7775 183.581 -58.1745 180.092 -56.1461 176.869C-53.7089 173.003 -50.9609 169.328 -48.4363 165.517C-47.1659 163.598 -45.9664 161.613 -44.9522 159.552C-42.6785 154.939 -39.7069 150.866 -36.0974 147.219C-35.0832 146.194 -34.2162 144.989 -33.4638 143.751C-30.8957 139.514 -28.3712 135.25 -25.9012 130.959C-23.7311 127.186 -21.8118 123.271 -19.5109 119.585C-15.9449 113.882 -12.1555 108.321 -8.45323 102.704C-5.78696 98.6642 -3.12068 94.6184 -0.43261 90.5945C1.19224 88.1681 2.89887 85.7908 4.51281 83.3536C6.65018 80.1257 8.73302 76.8597 10.8377 73.6045C12.4898 71.0473 14.3709 68.5991 15.7286 65.8892C17.1898 62.9722 19.6653 60.9875 21.5791 58.5066C23.3566 56.2002 25.3086 53.9647 26.6881 51.4347C28.5692 47.9887 30.8483 44.9081 33.4437 42.0128C33.8908 41.5166 34.0217 40.7478 34.387 40.159C35.5156 38.3433 36.7697 36.5985 37.8275 34.7392C39.2124 32.3128 40.3575 29.7447 41.7915 27.3511C42.6857 25.8571 44.027 24.6412 45.0084 23.1908C47.0204 20.2028 48.9724 17.1713 50.8699 14.107C53.2853 10.1975 55.5699 6.21175 58.0072 2.31322C59.921 -0.745625 61.8294 -3.82628 64.0049 -6.69974C65.717 -8.96253 67.6472 -11.1435 69.8336 -12.9265C71.1204 -13.9788 73.0615 -14.4477 74.9154 -13.9297C75.1553 -13.8643 75.3843 -13.5644 75.5206 -13.3191C76.2621 -11.9614 77.4998 -11.3998 78.9175 -11.0617C79.2392 -10.9854 79.6535 -10.8764 79.8117 -10.6364C80.5805 -9.46416 79.5118 -6.19266 78.3013 -5.3966C77.4017 -4.80773 76.5129 -4.09346 75.875 -3.24287C73.8249 -0.516622 71.8838 2.29141 69.9154 5.07763C69.6864 5.40478 69.452 5.781 69.392 6.16268C68.874 9.54322 66.0496 11.7678 65.0245 14.8976C64.9264 15.2029 64.621 15.5137 64.332 15.6773C62.2165 16.8714 61.7585 19.1396 60.7334 21.0534C60.379 21.7186 59.7738 22.253 59.2994 22.8582C58.3071 24.1341 57.2493 25.3718 56.3496 26.7186C54.0051 30.2136 51.5405 33.6541 49.4686 37.3073C46.2952 42.9016 43.0183 48.3868 38.9017 53.3649C37.5494 55.0006 36.7861 57.1107 35.6193 58.921C34.6814 60.3822 33.5473 61.7181 32.495 63.1085C30.2213 66.1074 27.8549 69.0408 25.7066 72.1324C24.5452 73.8008 23.8637 75.7964 22.7677 77.5194C22.0098 78.719 20.8157 79.635 20.0033 80.8018C18.5148 82.9337 17.1953 85.1802 15.7395 87.3339C14.2782 89.4876 12.6752 91.5432 11.2466 93.7188C10.5214 94.8202 10.1289 96.1342 9.42551 97.252C8.71123 98.3806 7.74612 99.3457 6.98823 100.458C5.99042 101.925 5.17255 103.517 4.12566 104.945C2.44085 107.252 0.559761 109.416 -1.10325 111.739C-3.43692 115 -5.80332 118.255 -7.87527 121.679C-10.3889 125.834 -12.5644 130.196 -14.9853 134.416C-16.8391 137.649 -18.8566 140.785 -20.7758 143.98C-22.3189 146.542 -23.6875 149.22 -25.3941 151.662C-26.561 153.331 -28.0876 154.787 -29.6089 156.166C-31.7244 158.085 -32.6841 160.686 -34.0308 163.069C-34.936 164.672 -35.7375 166.346 -36.7843 167.851C-39.8159 172.207 -43.0493 176.428 -46.01 180.828C-47.6294 183.232 -48.8289 185.92 -50.2847 188.445C-51.4897 190.533 -52.7983 192.556 -54.036 194.623C-54.3632 195.168 -54.6304 195.757 -54.8975 196.34C-56.4515 199.748 -57.9618 203.177 -59.5594 206.569C-60.3282 208.205 -61.0534 209.928 -62.1766 211.307C-63.1526 212.507 -64.6411 213.292 -65.9334 214.224C-66.086 214.333 -66.555 214.311 -66.6204 214.208C-67.6727 212.376 -68.8941 213.619 -69.9082 213.941Z" fill="#5AE4FF"/>
<path d="M59.3871 223.744C58.9564 222.447 58.5365 221.253 58.1712 220.042C58.0567 219.671 57.9749 219.235 58.0731 218.875C58.6947 216.547 59.3653 214.235 60.0196 211.918C60.2813 210.996 60.6467 210.097 60.783 209.159C61.4373 204.622 63.5856 200.686 65.6902 196.727C66.9116 194.421 68.0184 192.054 69.2889 189.775C72.2441 184.481 75.2975 179.236 78.2528 173.936C79.3487 171.973 80.401 169.966 81.2898 167.9C83.3345 163.129 86.1098 158.86 89.5721 154.999C90.4009 154.072 91.1206 153.004 91.6877 151.897C94.3431 146.739 96.9275 141.548 99.5338 136.363C102.162 131.139 104.616 125.812 107.467 120.714C109.915 116.341 112.887 112.263 115.504 107.977C117.222 105.169 118.688 102.208 120.33 99.3567C122.314 95.9107 124.392 92.5138 126.376 89.0678C128.437 85.4964 130.439 81.8869 132.461 78.2882C133.759 75.9818 135.188 73.7299 136.311 71.3418C138.448 66.7835 142.374 63.5065 144.746 59.1064C146.834 55.2188 149.331 51.5547 151.589 47.7543C152.756 45.7968 153.77 43.7467 154.909 41.7729C155.504 40.7424 156.338 39.8373 156.85 38.774C158.044 36.3041 158.993 33.7087 160.264 31.2769C161.092 29.6902 162.412 28.3652 163.317 26.8167C165.313 23.4035 167.194 19.9193 169.113 16.457C172.259 10.7755 175.351 5.05584 178.568 -0.587488C180.029 -3.15561 181.572 -5.70738 183.377 -8.04105C185.149 -10.3256 187.324 -12.2831 190.596 -11.9723C190.983 -11.9341 191.49 -11.7542 191.686 -11.4598C192.575 -10.1512 193.813 -9.54593 195.334 -9.366C195.65 -9.32783 196.065 -9.19152 196.223 -8.95706C196.959 -7.87201 196.152 -4.59507 195.149 -3.76084C194.129 -2.91025 193.088 -1.99968 192.346 -0.920091C190.514 1.77344 188.84 4.57057 187.123 7.34043C186.915 7.67849 186.725 8.07652 186.686 8.46364C186.365 11.926 183.693 14.3578 182.695 17.5366C182.488 18.2018 181.419 18.5453 181.038 19.2105C180.242 20.59 179.685 22.0949 178.955 23.5125C178.562 24.2704 178.017 24.952 177.537 25.6663C176.747 26.844 175.901 27.989 175.182 29.2104C172.963 32.9617 170.596 36.6476 168.65 40.5352C165.754 46.3203 162.799 52.029 158.939 57.2634C157.679 58.9701 157.036 61.1238 155.973 62.994C155.089 64.548 154.015 65.9874 153.012 67.4705C150.934 70.5457 148.748 73.5555 146.807 76.7125C145.744 78.4409 145.171 80.4638 144.206 82.2686C143.661 83.2936 142.69 84.0788 142.074 85.0766C141.125 86.6033 140.368 88.2445 139.435 89.7821C137.532 92.9009 135.537 95.9652 133.634 99.084C133.263 99.6893 133.296 100.545 132.914 101.145C131.627 103.162 130.177 105.082 128.906 107.11C128.23 108.195 127.909 109.504 127.216 110.578C125.346 113.484 123.301 116.281 121.447 119.198C119.195 122.748 116.867 126.27 114.937 129.994C112.843 134.04 111.213 138.326 109.299 142.47C108.547 144.094 107.505 145.588 106.682 147.186C105.33 149.825 104.076 152.508 102.74 155.152C101.099 158.413 98.5578 161.008 96.3659 163.871C94.7738 165.948 93.6233 168.374 92.3474 170.686C91.2951 172.589 90.4172 174.585 89.3431 176.471C87.8873 179.034 86.3388 181.548 84.7903 184.056C83.9506 185.413 82.8928 186.64 82.1567 188.047C79.7576 192.627 77.4022 197.223 75.1503 201.88C73.8908 204.486 72.9039 207.218 71.7534 209.879C70.4612 212.861 68.9454 215.767 67.8712 218.826C67.0643 221.122 64.965 222.021 63.5747 223.657C63.4111 223.848 62.7295 223.924 62.6695 223.821C61.6063 222.049 60.5213 223.226 59.4362 223.75C59.3599 223.777 59.2454 223.733 59.3871 223.744Z" fill="#5AE4FF"/>
<path d="M37.6862 216.28C36.6938 215.151 36.6938 215.151 33.4169 216.727C32.9534 215.244 32.4245 213.794 32.0701 212.3C31.9338 211.716 32.0483 210.975 32.2882 210.408C34.0657 206.193 35.816 201.967 37.7352 197.812C40.6959 191.406 44.8562 185.713 48.7002 179.83C51.9117 174.917 54.8179 169.803 57.8767 164.787C62.0643 157.911 66.1645 150.986 70.4829 144.198C72.9147 140.381 75.8972 136.919 78.2854 133.075C80.8045 129.024 82.8273 124.673 85.2101 120.529C87.2602 116.968 89.5611 113.555 91.6385 110.011C93.0071 107.677 94.1521 105.213 95.4444 102.83C96.1587 101.51 96.9929 100.251 97.7344 98.9423C98.645 97.3447 99.5556 95.7526 100.39 94.1169C101.344 92.2521 102.14 90.3001 103.138 88.4626C104.119 86.6524 105.303 84.9512 106.338 83.1737C107.696 80.8346 108.983 78.4573 110.335 76.1127C112.99 71.489 115.63 66.849 118.35 62.2634C120.024 59.4445 121.889 56.7455 123.557 53.9266C124.152 52.9288 124.277 51.6529 124.861 50.6442C127.2 46.5875 129.632 42.5854 132.025 38.5614C133.181 36.6258 134.261 34.6356 135.515 32.7654C136.976 30.5899 138.634 28.5507 140.122 26.3969C140.858 25.3282 141.393 24.1232 142.014 22.9782C143.759 19.7722 145.416 16.5225 147.265 13.3818C148.781 10.8028 150.564 8.38736 152.145 5.8465C153.252 4.06899 154.309 2.25331 155.231 0.377651C157.183 -3.60267 158.971 -7.65932 160.945 -11.6287C161.638 -13.03 162.619 -14.2568 164.358 -14.6549C165.596 -14.9384 166.768 -15.4891 168.061 -15.958C168.546 -14.4313 170.018 -13.3844 167.843 -11.8577C168.693 -11.9286 169.064 -11.885 169.102 -11.9777C169.74 -13.5044 171.076 -13.0736 172.221 -13.09C173.366 -13.1064 173.42 -12.403 173.077 -11.5524C171.665 -8.02463 170.296 -4.47506 168.797 -0.985471C168.126 0.57394 167.166 2.00249 166.354 3.49648C165.182 5.66657 164.042 7.85301 162.848 10.0122C162.292 11.0209 161.643 11.9806 161.027 12.9565C159.402 15.5356 157.706 18.071 156.18 20.7045C155.395 22.0568 154.991 23.6271 154.277 25.0284C153.175 27.2039 152.047 29.3794 150.765 31.4568C149.669 33.2289 148.301 34.8319 147.118 36.5495C143.846 41.304 140.536 46.0314 137.396 50.8677C136.185 52.7325 135.537 54.9571 134.381 56.8709C131.229 62.1053 127.914 67.2361 124.746 72.4596C123.934 73.8063 123.525 75.393 122.783 76.7888C121.147 79.8531 119.452 82.8902 117.701 85.8836C116.338 88.2118 114.37 90.3001 113.536 92.781C112.32 96.4014 109.239 98.8005 108.056 102.356C107.304 104.618 106.458 106.87 105.395 109.002C104.277 111.243 102.903 113.364 101.557 115.485C99.9754 117.972 98.2851 120.392 96.6876 122.868C96.3441 123.402 96.2296 124.078 95.946 124.662C95.5425 125.507 95.0954 126.336 94.6374 127.153C93.5142 129.16 92.4346 131.194 91.2296 133.151C89.3703 136.172 87.5219 139.209 85.4772 142.099C83.1327 145.419 80.4446 148.505 78.16 151.864C76.3225 154.563 74.9267 157.557 73.2201 160.354C70.9518 164.072 68.5527 167.715 66.2408 171.411C64.1907 174.688 62.2278 178.02 60.1504 181.275C57.2551 185.817 54.2127 190.266 51.3719 194.841C48.5421 199.399 45.8267 204.039 43.1877 208.712C42.4571 210.01 42.2117 211.574 41.6501 212.976C41.4756 213.412 41.034 214.023 40.6796 214.044C39.3873 214.126 38.8475 214.96 38.3132 215.915C38.226 216.111 37.8988 216.165 37.6862 216.28Z" fill="#5AE4FF"/>
<path d="M52.225 -19.2236C52.4976 -17.6151 53.8553 -16.4701 51.8869 -15.1779C52.0668 -15.1452 52.2413 -15.107 52.4213 -15.0743C52.623 -15.1343 52.9284 -15.1343 53.0047 -15.2706C53.8498 -16.7537 55.2293 -16.1757 56.3852 -16.0503C57.3667 -15.9467 57.2249 -15.1942 56.8596 -14.4527C55.2729 -11.2194 53.7735 -7.93698 52.1377 -4.73091C51.2817 -3.04609 50.2076 -1.47033 49.2261 0.154516C47.9775 2.23191 46.7507 4.31476 45.4694 6.37035C44.8587 7.34635 44.1499 8.26782 43.4846 9.20565C41.8053 11.5666 40.055 13.8784 38.4738 16.2993C37.5087 17.7879 36.8708 19.4836 35.982 21.0212C34.7825 23.0931 33.5448 25.1433 32.198 27.1171C31.331 28.3875 30.2187 29.4835 29.2591 30.6994C28.6757 31.4409 28.234 32.3024 27.6233 33.0276C27.1435 33.6001 26.4783 34.009 25.9549 34.5543C25.4042 35.1268 24.8862 35.7429 24.4282 36.3918C22.2745 39.4124 20.1425 42.444 18.0215 45.492C17.6562 46.0154 17.4163 46.6206 17.0837 47.1713C15.5516 49.6849 14.1012 52.264 12.4327 54.6903C9.67921 58.6924 6.72942 62.5637 3.96501 66.5604C3.01083 67.9399 2.46012 69.5865 1.54411 70.9987C-0.805916 74.6246 -3.24864 78.1905 -5.65865 81.7837C-6.68916 83.3159 -8.23766 84.7172 -8.6466 86.3966C-9.30635 89.1119 -11.5419 90.4696 -12.8505 92.5688C-13.5648 93.7083 -14.3336 94.8915 -14.688 96.1674C-15.7512 99.9896 -17.9867 103.119 -20.2713 106.238C-22.545 109.346 -24.8405 112.443 -27.1196 115.54C-27.1469 115.578 -27.1742 115.627 -27.196 115.671C-29.2025 119.101 -31.0781 122.612 -33.2482 125.933C-35.0803 128.735 -37.1849 131.369 -39.2896 133.975C-41.8196 137.099 -44.6003 140.022 -47.043 143.211C-49.0277 145.801 -50.6253 148.686 -52.4792 151.385C-54.7747 154.733 -57.1465 158.026 -59.4911 161.341C-62.0428 164.951 -64.5673 168.576 -67.1518 172.159C-70.2161 176.401 -73.4004 180.561 -76.4101 184.841C-78.8583 188.325 -81.1974 191.886 -83.4384 195.506C-84.7906 197.687 -85.8484 200.043 -87.0643 202.306C-87.2224 202.6 -87.5169 202.856 -87.8059 203.036C-88.9018 203.734 -90.025 204.388 -91.1864 205.097C-92.1515 204.148 -92.8767 204.187 -95.4012 205.561C-96.0173 203.151 -97.1514 201.03 -95.99 198.336C-93.3292 192.164 -90.085 186.324 -86.3773 180.757C-83.7983 176.886 -80.794 173.304 -78.0732 169.52C-76.143 166.832 -74.4036 164.013 -72.5225 161.286C-69.9217 157.513 -67.2391 153.8 -64.6601 150.016C-62.539 146.903 -60.6579 143.615 -58.4278 140.583C-55.6798 136.859 -52.6482 133.348 -49.7856 129.706C-45.9198 124.793 -42.4957 119.597 -39.3877 114.15C-37.1359 110.202 -34.2788 106.603 -31.7706 102.792C-30.1185 100.284 -28.6409 97.6614 -27.0379 95.1151C-26.2636 93.8828 -25.3694 92.7323 -24.5624 91.5219C-23.6791 90.2024 -22.8231 88.8611 -21.9834 87.5143C-18.2103 81.4838 -14.4371 75.448 -10.6858 69.4066C-9.08824 66.8385 -7.63243 64.1777 -5.95306 61.664C-3.93565 58.6325 -1.75467 55.7099 0.366348 52.7492C1.55499 51.0862 2.8309 49.4886 3.93776 47.7711C4.48301 46.9205 4.58658 45.7864 5.14274 44.9413C7.76538 40.9446 10.4753 37.0024 13.1524 33.0385C14.4174 31.1737 15.6061 29.249 16.9637 27.4551C18.5177 25.405 20.268 23.5075 21.8492 21.4792C22.6452 20.4541 23.2559 19.2873 23.9429 18.1804C25.7477 15.2416 27.4652 12.2427 29.3791 9.37468C31.1184 6.77384 33.1195 4.35293 34.9242 1.79026C36.1565 0.0400143 37.3397 -1.75386 38.3866 -3.61861C40.5567 -7.47897 42.5741 -11.4266 44.766 -15.276C45.5293 -16.6173 46.538 -17.8114 48.3156 -18.0841C49.5969 -18.2749 50.8401 -18.8038 52.225 -19.2236Z" fill="#5AE4FF"/>
<path d="M-36.6798 204.721C-36.9033 205.151 -37.0778 205.495 -37.3286 205.991C-37.4649 205.713 -37.6067 205.566 -37.6067 205.413C-37.5849 204.154 -37.3831 202.872 -38.8444 202.125C-39.0843 202.005 -39.1934 201.269 -39.0898 200.898C-38.1083 197.425 -37.3722 193.837 -35.9491 190.55C-34.7496 187.785 -32.7758 185.342 -31.0692 182.807C-28.8227 179.465 -26.549 176.139 -24.2099 172.862C-22.3997 170.326 -20.4041 167.922 -18.6157 165.37C-15.9658 161.591 -13.4467 157.72 -10.8404 153.914C-9.5591 152.044 -8.1469 150.267 -6.88192 148.386C-5.1862 145.856 -3.5668 143.271 -1.93105 140.703C-0.813293 138.947 0.320827 137.202 1.37861 135.409C2.4473 133.593 3.4342 131.734 4.44291 129.885C5.88782 127.235 7.34363 124.596 8.73947 121.919C9.43194 120.594 9.97717 119.193 10.626 117.841C10.8332 117.41 11.1495 117.034 11.4275 116.636C11.6238 116.358 11.9619 116.112 12.0164 115.812C12.9706 110.829 16.6565 107.317 18.892 103.032C22.8232 95.5073 28.5593 89.2587 33.4447 82.4049C35.2822 79.8314 36.8252 77.0397 38.3847 74.2862C40.8328 69.9678 43.161 65.5895 45.5928 61.2602C46.2798 60.0388 47.125 58.8993 47.932 57.7433C50.2111 54.4936 52.4902 51.244 54.813 48.027C56.5469 45.6224 58.4007 43.2997 60.091 40.8624C61.3724 39.0195 62.5555 37.0947 63.6733 35.1482C66.0124 31.0807 67.779 26.5442 70.7452 23.0055C73.177 20.1048 74.611 16.6043 77.3045 13.8726C79.1911 11.9642 80.1453 9.15074 81.5793 6.78436C84.4691 2.01343 87.4243 -2.71934 90.3142 -7.48481C91.3938 -9.26778 92.2934 -11.1598 93.4057 -12.9155C94.8942 -15.2601 97.7186 -17.2666 100.876 -16.3778C101.176 -16.2906 101.552 -16.0943 101.683 -15.838C102.124 -14.9874 102.473 -14.0878 102.849 -13.2372C103.128 -13.2372 103.275 -13.2426 103.416 -13.2372C104.332 -13.1772 105.243 -13.1172 106.159 -13.0518C105.941 -12.3212 105.859 -11.5087 105.488 -10.8654C103.64 -7.65384 101.699 -4.5023 99.8342 -1.30714C97.9095 1.98071 96.1483 5.37216 94.1091 8.58913C91.481 12.733 88.8147 16.8715 85.8704 20.7918C81.721 26.3315 78.3351 32.2802 75.129 38.3979C73.2697 41.9475 70.6198 45.0826 68.3297 48.4087C66.7703 50.6714 65.2109 52.9397 63.6515 55.2025C59.742 60.8731 55.5382 66.3419 52.8228 72.7758C51.8468 75.0877 50.1075 77.0724 48.7389 79.2207C47.9101 80.5184 47.1686 81.876 46.3071 83.1574C44.4914 85.8509 42.6703 88.539 40.7674 91.1725C37.5722 95.6054 33.9954 99.7984 31.1656 104.449C27.4143 110.616 24.2082 117.115 20.8113 123.495C18.5539 127.737 16.3784 132.023 14.1538 136.281C13.8266 136.903 13.4504 137.502 13.0687 138.091C10.8714 141.515 8.72856 144.978 6.44942 148.353C4.14302 151.761 1.68938 155.07 -0.682446 158.429C-3.02702 161.76 -5.2789 165.157 -7.70525 168.423C-9.97894 171.482 -12.4598 174.383 -14.7826 177.404C-15.595 178.461 -16.1566 179.705 -16.9418 180.784C-19.15 183.816 -21.4946 186.749 -23.6265 189.835C-24.777 191.504 -25.6821 193.358 -26.5491 195.201C-27.7104 197.681 -28.6646 200.261 -29.8314 202.736C-30.8183 204.835 -33.8281 205.68 -36.6798 204.721Z" fill="#5AE4FF"/>
<path d="M-153.492 205.255C-153.492 204.53 -153.492 204.246 -153.492 203.963C-154.795 203.892 -156.038 203.827 -157.45 203.756C-157.848 201.995 -157.908 200.146 -157.123 198.063C-154.926 192.24 -151.273 187.425 -147.282 182.796C-143.345 178.233 -139.239 173.811 -135.482 169.111C-132.511 165.397 -129.866 161.406 -127.255 157.426C-125.968 155.468 -125.346 153.053 -123.956 151.199C-120.951 147.181 -117.642 143.386 -114.458 139.498C-112.958 137.666 -111.339 135.921 -109.981 133.991C-106.96 129.705 -104.141 125.278 -101.099 121.014C-100.014 119.493 -98.3455 118.391 -97.2495 116.876C-96.0554 115.229 -95.243 113.315 -94.2125 111.549C-92.5986 108.779 -91.0828 105.933 -89.2616 103.304C-87.3587 100.562 -85.0141 98.1191 -83.0785 95.3983C-80.385 91.6034 -77.6533 87.803 -75.3741 83.7573C-72.1408 78.0049 -67.5989 73.2885 -63.6404 68.1141C-60.3089 63.7684 -56.6721 59.6627 -53.237 55.3989C-51.9939 53.8558 -50.9851 52.1274 -49.7747 50.5625C-48.1607 48.4797 -46.4269 46.4895 -44.802 44.4176C-43.9078 43.278 -43.1227 42.0566 -42.3048 40.8625C-40.0257 37.5256 -37.8337 34.1287 -35.4564 30.8627C-33.101 27.6348 -30.462 24.6141 -28.1392 21.3699C-26.6507 19.2925 -25.5166 16.9643 -24.2025 14.7615C-23.6627 13.8564 -22.9648 13.033 -22.5014 12.0952C-21.5308 10.1214 -20.8056 8.01674 -19.7206 6.10837C-18.1284 3.30034 -16.3727 0.584995 -14.5679 -2.09763C-13.1558 -4.20229 -11.7381 -6.35057 -9.99333 -8.16625C-8.8047 -9.39851 -7.72508 -11.0997 -5.47321 -10.9634C-4.30637 -10.8925 -3.10139 -11.3451 -2.15265 -11.5195C-0.996735 -9.42578 1.17337 -9.79109 2.61827 -8.70604C2.61827 -8.44432 2.73279 -8.04629 2.59648 -7.77367C1.98579 -6.55776 1.32602 -5.35822 0.63356 -4.18593C0.0610504 -3.21539 -0.538712 -2.2612 -1.19847 -1.35064C-2.8942 0.999386 -4.64989 3.30034 -6.34016 5.65581C-8.18311 8.22393 -9.77524 10.9066 -10.953 13.8891C-11.9726 16.479 -13.2539 19.0362 -14.8188 21.3317C-18.2593 26.3698 -21.9943 31.2062 -25.522 36.1843C-27.4795 38.9433 -29.1916 41.8712 -31.1544 44.6248C-32.8992 47.0729 -34.8403 49.3848 -36.6996 51.7566C-37.3757 52.6181 -38.0737 53.4632 -38.7225 54.3465C-41.187 57.6998 -43.597 61.0967 -46.1106 64.4173C-47.3211 66.0149 -48.7387 67.4598 -50.0091 69.0137C-54.1748 74.0955 -58.4114 79.1281 -62.4299 84.3243C-64.2947 86.7398 -65.6687 89.5315 -67.3753 92.0778C-68.5749 93.8662 -70.0089 95.5019 -71.2738 97.2467C-74.4745 101.658 -77.7351 106.031 -80.783 110.545C-82.7132 113.402 -84.278 116.499 -86.0556 119.46C-86.699 120.534 -87.4514 121.548 -88.2311 122.53C-90.0413 124.809 -91.977 126.996 -93.7109 129.335C-95.0685 131.167 -96.2517 133.14 -97.424 135.103C-99.5287 138.626 -101.971 141.864 -104.779 144.869C-107.893 148.2 -110.848 151.69 -113.738 155.223C-114.736 156.439 -115.352 157.977 -116.104 159.389C-117.042 161.15 -117.778 163.053 -118.901 164.683C-120.428 166.891 -122.266 168.882 -123.918 171.008C-124.861 172.224 -125.712 173.516 -126.589 174.781C-129.539 179.05 -133.116 182.764 -136.758 186.433C-138.563 188.249 -140.133 190.288 -141.824 192.218C-142.582 193.085 -143.443 193.876 -144.13 194.792C-145.259 196.313 -146.197 197.987 -147.385 199.454C-148.465 200.79 -149.779 201.94 -150.978 203.183C-151.251 203.467 -151.442 203.848 -151.742 204.088C-152.205 204.465 -152.75 204.77 -153.492 205.255Z" fill="#5AE4FF"/>
<path d="M-7.2168 193.412C-6.68791 192.474 -6.31167 191.885 -6.01178 191.264C-5.43927 190.081 -4.95946 188.848 -4.34878 187.681C-3.60179 186.264 -2.70213 184.923 -1.96605 183.499C0.422143 178.876 3.92262 174.934 5.98912 170.081C6.87787 167.993 8.76445 166.324 10.193 164.459C10.8637 163.587 11.5234 162.709 12.314 161.673C12.6739 160.921 13.1319 159.939 13.6063 158.963C13.8026 158.565 13.9825 158.145 14.2442 157.791C14.8494 156.973 15.3729 156.03 16.1526 155.425C17.7938 154.143 18.5789 152.322 19.5822 150.626C20.0838 149.781 20.7272 149.018 21.1907 148.151C21.5124 147.54 21.6487 146.826 21.834 146.15C22.6138 143.325 24.6476 141.232 26.0488 138.778C28.4861 134.52 30.5635 130.065 32.9135 125.752C35.847 120.37 38.8131 115 41.9374 109.727C43.9875 106.27 46.3648 103.01 48.5458 99.6292C50.5305 96.5649 52.4389 93.4515 54.4018 90.3763C56.0539 87.7864 57.8369 85.2783 59.369 82.6283C60.7703 80.2074 61.888 77.623 63.2021 75.1475C63.4147 74.7495 63.9436 74.3842 64.3962 74.2697C65.7375 73.9316 66.2446 72.6394 65.225 71.3689C66.0919 70.562 66.9698 69.7387 67.9294 68.8445C67.5423 67.5686 68.1693 66.2763 69.696 65.573C70.9937 64.9786 71.7516 63.152 71.4244 61.6308C71.3481 61.2818 71.5608 60.8511 71.708 60.4858C72.5531 58.3866 73.3874 56.2874 74.2761 54.21C76.8661 48.1522 79.2324 41.9855 82.1659 36.1022C84.6195 31.1786 87.7274 26.5767 90.5954 21.8658C93.229 17.5365 95.8734 13.2072 98.616 8.94339C100.699 5.69916 102.983 2.58034 105.088 -0.65299C105.906 -1.90706 106.435 -3.34652 107.16 -4.66602C108.594 -7.26141 110.05 -9.84589 111.549 -12.4031C111.86 -12.932 112.394 -13.3246 112.863 -13.8153C113.997 -12.0596 114.619 -12.0978 116.037 -13.6299C116.882 -14.5405 117.765 -15.4947 118.823 -16.0999C119.445 -16.4543 120.437 -16.1653 121.462 -16.1653C120.519 -14.2624 122.427 -14.2242 123.147 -13.51C124.145 -12.5176 124.728 -10.7019 123.954 -9.50783C122.645 -7.49041 121.26 -5.52206 120.066 -3.43921C118.747 -1.14917 117.672 1.28265 116.364 3.5836C115.23 5.57376 113.965 7.49303 112.683 9.39595C111.02 11.8659 109.248 14.2705 107.591 16.7459C105.333 20.1155 103.054 23.4743 100.939 26.9366C99.3085 29.6029 97.9454 32.4327 96.4187 35.1644C95.7371 36.3912 94.9629 37.5635 94.1995 38.7412C93.3162 40.0989 92.3947 41.4293 91.5005 42.7815C91.3642 42.9833 91.1625 43.2232 91.1788 43.4358C91.2988 45.5187 89.614 47.0181 89.3359 48.8774C88.8288 52.2634 86.217 54.6244 85.3883 57.8032C84.1833 62.4432 81.7515 66.489 79.3033 70.5456C77.0514 74.286 75.0067 78.1519 72.8585 81.9522C70.5957 85.9544 68.3383 89.9619 66.0374 93.9423C65.5903 94.7165 64.8542 95.3217 64.4071 96.096C63.4584 97.7154 62.7005 99.4438 61.6972 101.025C60.6558 102.655 59.3635 104.128 58.273 105.731C56.0484 109.007 53.8129 112.279 51.7246 115.638C50.0452 118.342 48.5022 121.139 47.03 123.958C44.1456 129.465 41.5285 135.114 38.4587 140.512C36.5285 143.903 33.9658 146.924 31.714 150.136C29.2385 153.669 26.6868 157.164 24.3804 160.806C22.7446 163.391 21.5832 166.275 19.9584 168.865C18.6934 170.882 17.2867 172.796 15.2583 174.29C13.639 175.479 12.494 177.322 11.1581 178.897C9.29335 181.1 7.41767 183.292 5.61835 185.55C4.56057 186.88 3.76452 188.428 2.63586 189.693C1.59443 190.86 0.291281 191.804 -0.946434 192.78C-1.26268 193.025 -1.77521 193.041 -2.20596 193.118C-3.10017 193.276 -3.99438 193.456 -4.89949 193.527C-5.54834 193.576 -6.19718 193.467 -7.2168 193.412Z" fill="#5AE4FF"/>
<path d="M74.7669 222.147C74.7669 219.694 74.7288 217.344 74.7942 214.994C74.8105 214.427 75.0832 213.81 75.3994 213.314C77.9676 209.219 80.5738 205.152 83.1638 201.068C85.1866 197.884 87.1059 194.629 89.2324 191.515C92.0077 187.453 94.9466 183.506 97.8037 179.498C99.8484 176.635 101.926 173.789 103.905 170.883C106.549 166.99 108.954 162.928 111.746 159.144C115.121 154.575 117.536 149.504 120.153 144.526C121.909 141.183 123.779 137.901 125.611 134.597C129.243 128.037 132.749 121.413 136.56 114.962C138.725 111.304 141.505 108.016 143.795 104.423C145.055 102.443 145.851 100.17 146.903 98.0541C150.131 91.5711 153.31 85.0662 156.658 78.6487C157.808 76.4459 159.439 74.4993 160.742 72.3674C162.154 70.0719 163.528 67.7382 164.766 65.3446C166.838 61.3316 168.751 57.2422 170.796 53.2183C172.721 49.4288 174.684 45.6611 176.718 41.9316C178.015 39.5434 179.509 37.2643 180.834 34.8924C182.863 31.2502 184.836 27.5697 186.805 23.8948C187.655 22.3081 188.38 20.6505 189.286 19.0966C190.136 17.6353 191.041 16.174 192.137 14.8982C192.639 14.3202 193.691 13.8622 194.444 13.9331C195.725 14.053 197.039 13.5296 198.32 14.2384C198.991 14.6092 199.863 14.7564 200.649 14.7564C202.219 14.7509 202.551 15.1708 202.028 16.6266C201.886 17.0246 202.044 17.5263 202.072 17.9843C202.252 18.0224 202.432 18.0551 202.611 18.0933C200.872 21.463 199.133 24.838 197.383 28.2077C197.012 28.922 196.63 29.6253 196.227 30.3178C195.022 32.3788 193.827 34.4508 192.584 36.49C190.752 39.478 188.822 42.406 187.05 45.4266C185.954 47.2914 185.082 49.287 184.068 51.2063C182.89 53.4364 181.63 55.6228 180.48 57.8638C179.269 60.2138 178.179 62.6293 176.979 64.9847C174.918 69.0414 172.835 73.0871 170.72 77.1165C170.376 77.7763 169.755 78.2888 169.395 78.9431C167.525 82.3455 165.665 85.7478 163.866 89.1883C161.423 93.8611 159.03 98.5557 156.631 103.25C155.524 105.415 154.482 107.618 153.337 109.761C152.999 110.399 152.399 110.895 151.931 111.462C151.62 111.843 151.304 112.225 151.025 112.629C149.859 114.286 148.812 116.047 147.514 117.59C146.456 118.85 145.546 120.06 144.848 121.631C143.85 123.883 142.116 125.796 140.764 127.901C139.881 129.275 139.079 130.709 138.327 132.159C137.732 133.299 137.274 134.504 136.751 135.682C135.061 139.498 132.896 143.032 130.633 146.543C128.583 149.727 127.28 153.386 125.322 156.641C123.387 159.858 121.02 162.808 118.894 165.916C117.476 167.982 116.113 170.087 114.799 172.219C111.26 177.96 107.155 183.266 102.907 188.5C100.143 191.908 97.9891 195.806 95.5682 199.492C93.3545 202.856 91.3098 206.351 88.878 209.552C87.0896 211.902 85.4811 214.323 84.3033 216.995C83.2892 219.301 81.1354 220.435 79.407 221.891C78.4637 222.682 76.4354 222.185 74.8923 222.256C74.8051 222.24 74.7288 222.109 74.7669 222.147Z" fill="#5AE4FF"/>
</g>
</svg>
