<svg width="71" height="24" viewBox="0 0 71 24" fill="none" xmlns="http://www.w3.org/2000/svg">
<path d="M34.0582 23.8132H31.4864C31.4492 23.6958 31.399 23.5702 31.3701 23.4398C31.1604 22.4953 30.9489 21.5508 30.7499 20.6038C30.5223 19.5214 30.309 18.4358 30.0858 17.3524C30.002 16.9457 29.9078 16.5412 29.8184 16.136C29.5801 15.0547 29.3429 13.9733 29.1022 12.8928C29.0841 12.8115 29.1026 12.6992 28.9432 12.6729C28.9327 12.8047 28.9183 12.9346 28.9127 13.0648C28.8582 14.3253 28.8039 15.5856 28.7518 16.8461C28.7372 17.1995 28.7362 17.5537 28.7182 17.907C28.6646 18.9664 28.6055 20.0256 28.549 21.0851C28.5147 21.7298 28.4837 22.3748 28.4458 23.0194C28.4304 23.2773 28.4448 23.5434 28.3009 23.7735C27.8597 23.8729 26.0388 23.9346 25.5008 23.8644C25.4901 23.7708 25.4645 23.6687 25.4694 23.5681C25.5112 22.677 25.5453 21.785 25.6079 20.8949C25.689 19.745 25.7657 18.595 25.7752 17.4415C25.7861 16.0573 25.8828 14.678 25.9921 13.2987C26.0941 12.0116 26.1623 10.7221 26.2543 9.43402C26.3113 8.6366 26.3936 7.8411 26.4491 7.04367C26.5058 6.22955 26.6312 5.42535 26.7468 4.61872C26.8384 3.97977 26.8883 3.33524 26.9574 2.69314C26.9657 2.61838 26.9798 2.5441 26.9937 2.45362C27.385 2.29563 27.7928 2.36507 28.187 2.33894C28.5709 2.31402 28.958 2.33362 29.36 2.33362C29.406 2.45144 29.4576 2.54555 29.479 2.64596C29.5923 3.17242 29.6979 3.69984 29.8055 4.22751C29.9716 5.04042 30.1308 5.85503 30.3034 6.66673C30.6686 8.38159 31.0363 10.0957 31.4115 11.8082C31.6186 12.7544 31.8434 13.697 32.0613 14.6413C32.0778 14.7131 32.1029 14.783 32.1299 14.8743C32.2395 14.6974 32.2378 14.6974 32.2694 14.3081C32.2855 14.1088 32.3113 13.9101 32.3284 13.711C32.3452 13.5117 32.3527 13.3118 32.3714 13.1125C32.39 12.9136 32.4184 12.7154 32.4401 12.5168C32.4615 12.3179 32.481 12.1191 32.4993 11.9199C32.5185 11.7053 32.5329 11.4903 32.5536 11.2761C32.5728 11.0768 32.5996 10.8786 32.6191 10.6798C32.6385 10.4807 32.6522 10.2808 32.6702 10.0817C32.6884 9.88282 32.7082 9.68371 32.7286 9.48483C32.7491 9.28596 32.7734 9.08733 32.7917 8.88845C32.8102 8.6891 32.8209 8.48925 32.8394 8.29014C32.8579 8.09102 32.8832 7.89239 32.9034 7.69352C32.9236 7.49465 32.9414 7.29553 32.9594 7.09617C32.9774 6.89706 32.9928 6.6977 33.0125 6.49883C33.0325 6.29971 33.059 6.10132 33.078 5.90245C33.0984 5.68785 33.1116 5.47277 33.1311 5.25841C33.1491 5.05905 33.1703 4.86042 33.191 4.66155C33.2121 4.46267 33.237 4.26404 33.2557 4.06517C33.2742 3.86605 33.2837 3.66621 33.3037 3.4671C33.3239 3.26822 33.3534 3.07032 33.3765 2.87144C33.3989 2.67596 33.3573 2.46813 33.4997 2.27337C33.7709 2.19184 34.0655 2.24337 34.3552 2.23442C34.6647 2.22498 34.9744 2.22813 35.2841 2.22716C35.5755 2.2262 35.8669 2.22692 36.191 2.22692C36.1941 2.34329 36.201 2.42991 36.1985 2.51652C36.162 3.79323 36.0417 5.06316 35.9005 6.33237C35.8289 6.97303 35.8151 7.61973 35.7746 8.26377C35.77 8.34071 35.7666 8.4174 35.7576 8.49385C35.6826 9.13499 35.6018 9.77564 35.5326 10.4175C35.4866 10.8448 35.4581 11.2745 35.4192 11.7027C35.3941 11.9782 35.371 12.2543 35.3359 12.5284C35.2288 13.3675 35.1127 14.2053 35.0077 15.0448C34.9466 15.5328 34.9006 16.023 34.848 16.5119C34.8268 16.7108 34.8059 16.9094 34.7852 17.1083C34.7136 17.7964 34.6442 18.4847 34.5702 19.1725C34.5028 19.7994 34.4278 20.4253 34.3608 21.0524C34.3314 21.3275 34.3085 21.6033 34.291 21.8793C34.26 22.3702 34.235 22.8614 34.2084 23.3527C34.2001 23.5088 34.1573 23.6525 34.0582 23.8132Z" fill="white"/>
<path d="M3.46235 9.52971C3.82219 9.4564 4.15088 9.42737 4.45107 9.31995C4.95481 9.13898 5.39792 8.83535 5.63969 8.34808C5.9131 7.79767 6.08669 7.20129 6.20843 6.60129C6.33722 5.96716 6.3343 5.31756 6.2357 4.67594C6.17653 4.2915 6.0307 3.93391 5.73342 3.66343C5.3373 3.30269 4.86448 3.08253 4.34249 2.97051C4.18204 2.93616 4.01186 2.91172 3.83047 2.99229C3.82365 3.091 3.81635 3.18052 3.81148 3.26979C3.79322 3.59133 3.78251 3.91335 3.7567 4.23392C3.72091 4.67642 3.66516 5.11723 3.63326 5.55974C3.58846 6.18709 3.55657 6.81492 3.52102 7.44275C3.50106 7.79501 3.48231 8.14727 3.46697 8.49978C3.45285 8.81962 3.41682 9.14043 3.46235 9.52971ZM2.83006 20.7169C2.92818 20.7394 2.97638 20.7658 3.01631 20.7569C3.39247 20.6724 3.78178 20.6192 4.13846 20.4827C4.54627 20.3272 4.89613 20.0535 5.10965 19.6606C5.59489 18.7679 5.90507 17.8304 5.77773 16.7934C5.76483 16.6872 5.76239 16.5783 5.76799 16.4712C5.78552 16.1395 5.69374 15.8286 5.56738 15.5317C5.24989 14.7868 4.70038 14.3065 3.88452 14.1706C3.69023 14.1382 3.48499 14.1565 3.28583 14.1679C3.18674 14.1732 3.12198 14.248 3.10396 14.3498C3.09325 14.4103 3.084 14.4713 3.08059 14.5325C3.04577 15.1301 3.00584 15.7277 2.97955 16.326C2.92039 17.6613 2.86731 18.997 2.81423 20.3325C2.80961 20.4523 2.82373 20.5723 2.83006 20.7169ZM6.19455 11.7059C6.29048 11.7868 6.33235 11.831 6.38227 11.8632C7.11997 12.3374 7.60058 13.0218 8.00255 13.7798C8.24602 14.2386 8.33707 14.7372 8.4498 15.23C8.59491 15.8629 8.60635 16.5084 8.57762 17.1566C8.54865 17.8038 8.48583 18.4461 8.34073 19.0776C8.27182 19.3756 8.16713 19.666 8.07291 19.9582C8.02592 20.1044 7.96603 20.2461 7.91149 20.3898C7.84137 20.5754 7.7956 20.7755 7.69578 20.9439C7.4842 21.3007 7.25534 21.6494 7.01261 21.9859C6.77547 22.3147 6.4183 22.5201 6.11469 22.78C5.58028 23.2365 4.94799 23.5159 4.29111 23.7596C3.88988 23.9084 3.47306 23.9108 3.06549 23.9896C2.97638 24.0068 2.87851 24.0008 2.78818 23.985C2.43467 23.9226 2.0792 23.9555 1.72422 23.9451C1.26188 23.9316 0.798314 23.895 0.339376 23.8363C0.0406399 23.7983 -0.0036715 23.7329 0.000223997 23.4441C0.00752805 22.8903 0.0311446 22.337 0.0498917 21.7834C0.0589 21.5221 0.0737515 21.2611 0.0834902 20.9998C0.107594 20.3545 0.132184 19.7093 0.153122 19.0638C0.177713 18.3109 0.193295 17.5577 0.222998 16.805C0.244423 16.2677 0.258788 15.7279 0.318681 15.194C0.414851 14.337 0.501039 13.4774 0.499578 12.6176C0.498361 11.9714 0.554115 11.3297 0.571401 10.6859C0.581627 10.3025 0.637625 9.9202 0.658076 9.53672C0.695083 8.84551 0.712613 8.15332 0.753029 7.4621C0.795149 6.74137 0.855286 6.0216 0.906901 5.30135C0.916883 5.1632 0.928083 5.02505 0.933196 4.88691C0.966794 3.93319 0.997228 2.97971 1.03277 2.02623C1.05006 1.56533 1.0766 1.10468 1.09875 0.643793C1.10703 0.471289 1.15353 0.312095 1.28306 0.153383C1.61612 0.114432 1.96745 0.0604771 2.32097 0.0341074C3.21937 -0.033395 4.11752 0.000962734 5.00886 0.122415C5.64212 0.208787 6.23107 0.452178 6.8098 0.714921C6.95003 0.778795 7.08832 0.847505 7.22613 0.916699C7.70673 1.15791 8.09726 1.49856 8.3809 1.95582C8.70106 2.47212 8.92067 3.02181 9.00442 3.62835C9.076 4.14585 9.19847 4.65779 9.17607 5.18353C9.16121 5.53651 9.10522 5.88757 9.09231 6.24055C9.06529 6.98282 8.89121 7.69944 8.70179 8.40905C8.55133 8.97349 8.29666 9.50213 7.94436 9.97754C7.8068 10.1629 7.66047 10.3438 7.54458 10.5422C7.27823 10.9973 6.8843 11.307 6.43218 11.5574C6.36571 11.5939 6.30314 11.6377 6.19455 11.7059Z" fill="white"/>
<path d="M12.5794 11.5603C12.9363 11.3644 13.2246 11.1885 13.4167 10.903C13.7351 10.4295 14.001 9.92893 14.1405 9.37005C14.3311 8.60674 14.4361 7.83423 14.4095 7.04623C14.4044 6.8926 14.3884 6.73704 14.4061 6.58583C14.4548 6.17429 14.2958 5.8259 14.0628 5.515C13.8664 5.2525 13.5944 5.08194 13.2195 5.08702C13.153 5.4417 13.0707 5.78331 13.0283 6.13001C12.965 6.64703 12.9295 7.16769 12.8835 7.68689C12.7764 8.8944 12.6697 10.1022 12.5648 11.3097C12.5594 11.3697 12.5714 11.4309 12.5794 11.5603ZM12.0097 16.2401C11.9383 16.4816 11.8974 16.6897 11.887 16.9045C11.8607 17.4421 11.8344 17.9797 11.8044 18.517C11.7662 19.2082 11.7231 19.8995 11.6846 20.5907C11.6306 21.5579 11.5795 22.5252 11.5252 23.4925C11.5108 23.7514 11.4456 23.823 11.1865 23.8302C10.4751 23.8498 9.76343 23.8614 9.05177 23.874C9.02401 23.8743 8.99626 23.8518 8.93661 23.8261C8.9259 23.7414 8.89863 23.6389 8.90277 23.5375C8.93344 22.7996 8.93564 22.0588 9.01355 21.3254C9.12457 20.2851 9.14185 19.2392 9.23778 18.1984C9.2631 17.9231 9.30206 17.6487 9.32665 17.3729C9.36049 16.9901 9.40796 16.6069 9.41283 16.2234C9.43182 14.7602 9.55137 13.3049 9.74444 11.855C9.75856 11.7485 9.75905 11.6402 9.76319 11.5327C9.77974 11.1173 9.83209 10.7072 9.9005 10.2962C9.97573 9.84256 10.0088 9.38167 10.0546 8.92319C10.1111 8.35802 10.1639 7.79237 10.2146 7.22648C10.2925 6.35405 10.3643 5.48113 10.4444 4.60919C10.4977 4.02708 10.5591 3.4457 10.6214 2.86481C10.6346 2.74287 10.6677 2.62312 10.6927 2.50239C10.7283 2.33206 10.8357 2.23263 11.0058 2.20529C11.1432 2.18303 11.2817 2.15884 11.4202 2.15545C11.9461 2.1419 12.4727 2.14093 12.9986 2.12714C13.4342 2.11553 13.8671 2.15666 14.2912 2.23553C14.7499 2.32118 15.1811 2.50336 15.5585 2.78352C16.527 3.50208 17.0132 4.49427 17.0904 5.66694C17.1559 6.66349 17.1449 7.66995 16.9621 8.65537C16.7432 9.83458 16.4812 11.0075 15.9113 12.0836C15.6018 12.6679 15.1913 13.1559 14.5892 13.4632C14.4663 13.5261 14.3431 13.5907 14.2895 13.7583C14.335 13.8062 14.3786 13.8725 14.4395 13.9127C14.7504 14.1181 14.9384 14.4133 15.0647 14.7512C15.3778 15.5903 15.6003 16.4446 15.6464 17.3489C15.686 18.1304 15.7871 18.9107 15.8983 19.6863C15.9955 20.3652 16.5165 20.8413 17.2043 20.9313C17.4334 20.9613 17.6671 20.9674 17.8989 20.9679C20.0519 20.971 22.2049 20.9708 24.3579 20.9725C24.5096 20.9725 24.6613 20.9833 24.8336 20.9904C24.9201 21.315 24.8249 21.6179 24.8249 21.9184C24.8249 22.2107 24.8037 22.503 24.7857 22.795C24.7667 23.1005 24.7401 23.4061 24.7151 23.7395C24.5817 23.7593 24.4643 23.7906 24.3465 23.7922C23.6806 23.8017 23.0147 23.8092 22.3488 23.8075C21.4823 23.8053 20.6158 23.7935 19.7493 23.7867C18.5419 23.7775 17.3341 23.7893 16.1275 23.755C15.0104 23.7233 14.1566 23.1787 13.5372 22.2765C13.3098 21.9453 13.1988 21.5529 13.144 21.1515C13.031 20.326 12.9833 19.4966 13.012 18.6648C13.0318 18.1014 12.909 17.5652 12.7578 17.031C12.649 16.6454 12.3498 16.4451 12.0097 16.2401Z" fill="white"/>
<path d="M53.7281 2.19585C54.5264 2.12859 55.2687 2.14843 56.0086 2.12303C56.2217 2.11577 56.4403 2.10706 56.6718 2.18448C56.6908 2.27376 56.7281 2.3611 56.7247 2.44626C56.7025 3.0003 56.7183 3.55216 56.7738 4.10402C56.7921 4.28693 56.7768 4.47249 56.7833 4.65685C56.805 5.27113 56.7853 5.88662 56.8751 6.49873C56.9104 6.73994 56.89 6.98938 56.8946 7.23543C56.8966 7.34285 56.8922 7.451 56.8997 7.55818C56.9616 8.43182 57.0334 9.30521 57.0865 10.1796C57.1283 10.8703 57.1468 11.562 57.179 12.2532C57.1868 12.4221 57.2087 12.59 57.2209 12.7586C57.2664 13.3872 57.3195 14.0153 57.3531 14.6443C57.393 15.3965 57.3986 16.1501 57.5067 16.8977C57.533 17.0799 57.5252 17.2664 57.5427 17.4501C57.5646 17.6777 57.5963 17.9044 57.6842 18.1384C57.7049 18.0489 57.727 17.9598 57.7463 17.8701C57.8419 17.4186 57.9432 16.9684 58.0299 16.5155C58.1051 16.1228 58.1833 15.7294 58.2247 15.3329C58.305 14.5662 58.4594 13.8145 58.6356 13.0657C58.8256 12.2576 59.0055 11.4469 59.191 10.6378C59.3833 9.79949 59.5513 8.95586 59.7894 8.12843C59.9297 7.64116 60.0697 7.15293 60.1844 6.65937C60.3652 5.88033 60.5272 5.09718 60.6922 4.31499C60.8291 3.66805 60.9586 3.01965 61.0954 2.35214C61.1641 2.33545 61.2356 2.30376 61.3075 2.30327C61.911 2.29964 62.5146 2.30133 63.1181 2.30158C63.2265 2.30158 63.3348 2.30037 63.4432 2.30303C63.8617 2.31319 63.9187 2.39013 63.8347 2.80989C63.6423 3.77353 63.4583 4.73887 63.2584 5.70081C63.1491 6.22727 63.0164 6.74889 62.8905 7.27196C62.7286 7.94431 62.5531 8.61303 62.4019 9.28755C62.2507 9.96232 62.1224 10.6417 61.9841 11.3191C61.9502 11.4848 61.9198 11.6511 61.8835 11.8163C61.7413 12.4613 61.5996 13.1063 61.4531 13.7503C61.2344 14.7094 61.0056 15.666 60.7935 16.6263C60.7042 17.031 60.6606 17.446 60.5715 17.851C60.4164 18.5557 60.2367 19.2554 60.0775 19.9592C59.8837 20.814 59.7028 21.6714 59.5114 22.5264C59.4376 22.8564 59.3531 23.1835 59.2689 23.5111C59.2463 23.5992 59.2076 23.6831 59.1676 23.793C59.0016 23.8128 58.835 23.8438 58.6675 23.8501C58.3739 23.861 58.0796 23.8602 57.7855 23.8581C57.2593 23.8539 56.7332 23.8462 56.207 23.8372C56.0215 23.8343 55.8345 23.8351 55.6507 23.8135C55.341 23.777 55.2556 23.6897 55.2032 23.3875C55.1139 22.8722 55.0192 22.3578 54.943 21.8403C54.8982 21.5369 54.8811 21.2292 54.858 20.9229C54.7915 20.0495 54.7321 19.1756 54.662 18.3022C54.6411 18.0423 54.589 17.7849 54.5605 17.5251C54.4772 16.761 54.3932 15.997 54.3207 15.232C54.2931 14.9414 54.2975 14.6479 54.2841 14.3559C54.2586 13.8038 54.2535 13.2493 54.1992 12.6996C54.0782 11.4747 54.0801 10.2427 53.9666 9.01731C53.9326 8.65029 53.9279 8.28012 53.916 7.91141C53.8858 6.98962 53.8627 6.06759 53.8303 5.14557C53.8004 4.28547 53.7621 3.42538 53.7285 2.56481C53.7244 2.45932 53.7281 2.35311 53.7281 2.19585Z" fill="white"/>
<path d="M39.6903 4.72543C39.6569 4.85729 39.6226 4.94366 39.6143 5.03245C39.5128 6.13497 39.4161 7.23821 39.3158 8.34096C39.235 9.22936 39.1547 10.1178 39.0682 11.0054C38.9772 11.9391 38.8722 12.8715 38.7858 13.8054C38.6977 14.7548 38.6319 15.7063 38.5433 16.6557C38.4116 18.0642 38.268 19.4718 38.1301 20.8799C38.1241 20.9409 38.1199 21.0033 38.126 21.064C38.134 21.1494 38.1908 21.2181 38.2723 21.2152C38.7425 21.1993 39.1544 21.0754 39.3867 20.6131C39.5876 20.2129 39.7667 19.8086 39.8395 19.3617C39.9384 18.7557 40.0497 18.1518 40.1599 17.5477C40.2181 17.2303 40.3038 16.9167 40.3462 16.5971C40.5295 15.2106 40.6815 13.8211 40.7396 12.422C40.7613 11.9006 40.8307 11.3814 40.8745 10.8605C40.913 10.4013 40.9527 9.94187 40.9802 9.4817C41.015 8.89863 41.0445 8.31532 41.0649 7.73176C41.0873 7.10224 41.0968 6.47247 41.1104 5.84271C41.1119 5.7815 41.1061 5.71956 41.0992 5.65859C41.0501 5.21923 40.623 4.70729 40.0553 4.72495C39.9484 4.72858 39.8415 4.72543 39.6903 4.72543ZM35.3714 23.907C35.2606 23.7411 35.2894 23.586 35.302 23.4353C35.3317 23.083 35.3695 22.7312 35.3979 22.379C35.4325 21.95 35.4824 21.521 35.4875 21.0916C35.5002 20.0293 35.6341 18.9756 35.7103 17.9181C35.7612 17.2133 35.8605 16.512 35.935 15.8089C35.982 15.3656 36.0241 14.9219 36.0675 14.4785C36.1303 13.8361 36.1899 13.194 36.2552 12.5524C36.3129 11.9865 36.3837 11.4223 36.4354 10.8559C36.5011 10.1369 36.5422 9.41565 36.6141 8.6971C36.6813 8.02451 36.7755 7.35458 36.8563 6.6832C36.9391 5.99706 37.0231 5.31093 37.1003 4.6243C37.1758 3.95172 37.2381 3.27792 37.3172 2.60557C37.3562 2.2746 37.4623 2.18169 37.7988 2.16766C38.4963 2.13814 39.1905 2.19694 39.8841 2.26057C40.0689 2.2775 40.2534 2.30654 40.4385 2.30895C41.1893 2.31815 41.8555 2.57291 42.4724 2.97985C42.7346 3.15308 42.9489 3.36961 43.1091 3.6401C43.5125 4.32164 43.8266 5.04165 43.9374 5.82722C44.0036 6.29707 44.0145 6.77683 44.0187 7.25248C44.0231 7.74434 44.005 8.23741 43.969 8.72758C43.9116 9.50856 43.8809 10.292 43.7448 11.0662C43.6997 11.3224 43.6849 11.5858 43.6822 11.8467C43.6749 12.572 43.568 13.2859 43.4641 14.0014C43.4025 14.4264 43.3747 14.8561 43.317 15.2819C43.27 15.6313 43.1958 15.9768 43.1434 16.3254C43.0638 16.857 42.9946 17.3897 42.9172 17.921C42.7867 18.8171 42.674 19.7174 42.3972 20.5847C42.1386 21.3943 41.7797 22.1578 41.295 22.8611C41.1696 23.0431 41.0109 23.1778 40.8285 23.3003C40.2213 23.7091 39.5664 23.9424 38.8235 23.9063C38.6232 23.8966 38.4216 23.9199 38.2202 23.922C37.3851 23.9303 36.55 23.9378 35.7149 23.9414C35.5954 23.9419 35.4756 23.9179 35.3714 23.907Z" fill="white"/>
<path d="M21.3416 8.8298C21.0767 9.82683 20.8576 10.7522 20.7483 11.7268C21.0701 11.7384 21.3552 11.7836 21.6642 11.6789C21.5858 10.7847 21.5091 9.90304 21.4292 9.02166C21.4256 8.98077 21.3944 8.94279 21.3416 8.8298ZM21.9033 14.4171C21.3248 14.4796 20.7867 14.3869 20.2457 14.4556C20.1391 14.6332 20.1123 14.8144 20.0775 14.9934C19.8781 16.0185 19.677 17.0436 19.4791 18.069C19.4294 18.3256 19.3938 18.5848 19.3442 18.8415C19.3099 19.0195 19.2621 19.1954 19.2244 19.3551C19.1652 19.3759 19.1365 19.3945 19.108 19.3945C18.3956 19.3933 17.6832 19.3892 16.9709 19.3885C16.8257 19.3882 16.6923 19.3711 16.582 19.1906C16.6724 18.6702 16.7573 18.1096 16.8681 17.5543C17.178 16.0028 17.4965 14.4529 17.8162 12.9036C18.0117 11.9554 18.2023 11.0058 18.4209 10.063C18.5702 9.41917 18.7696 8.78674 18.9361 8.14681C19.091 7.55189 19.2519 6.95744 19.3732 6.35526C19.4701 5.87404 19.5889 5.39767 19.6612 4.90968C19.7693 4.18047 19.9497 3.46216 20.0919 2.73804C20.133 2.52852 20.2321 2.36787 20.4488 2.23214C21.2756 2.21884 22.1394 2.2048 23.0227 2.19077C23.0598 2.3144 23.1026 2.4119 23.1172 2.51327C23.2519 3.44183 23.3814 4.37136 23.5126 5.30041C23.5406 5.49831 23.5766 5.69525 23.5971 5.89388C23.6993 6.88776 23.7916 7.88286 23.9002 8.87602C23.9638 9.45643 24.0526 10.0339 24.1276 10.6129C24.1454 10.7501 24.1517 10.8885 24.1656 11.0259C24.2196 11.561 24.2725 12.0965 24.3294 12.6314C24.3998 13.288 24.4707 13.9449 24.5473 14.6008C24.6189 15.2117 24.7005 15.8213 24.7747 16.4322C24.888 17.3625 24.9987 18.293 25.1088 19.2092C24.9907 19.3442 24.8393 19.3561 24.7097 19.3582C24.0295 19.3694 23.3488 19.3626 22.668 19.3604C22.6386 19.3602 22.6093 19.3447 22.5421 19.3258C22.399 19.0563 22.3785 18.7316 22.3396 18.4173C22.2473 17.6702 22.173 16.9207 22.0949 16.1719C22.0438 15.6822 21.9997 15.1921 21.9508 14.7021C21.9435 14.6279 21.9264 14.5541 21.9033 14.4171Z" fill="white"/>
<path d="M45.3796 0.110002C45.568 0.0928257 45.7046 0.0683888 45.8412 0.0698409C46.5531 0.0780679 47.265 0.0920984 47.9769 0.106859C48.0197 0.107825 48.0619 0.134197 48.1339 0.158876C48.1692 0.426701 48.1527 0.702753 48.14 0.973482C48.1098 1.61873 48.0531 2.26277 48.01 2.90754C47.9905 3.19907 47.9698 3.49109 47.964 3.78311C47.9501 4.4753 47.8965 5.16361 47.7926 5.84903C47.758 6.07572 47.7629 6.30871 47.7478 6.53855C47.6913 7.39792 47.6329 8.25704 47.5774 9.11616C47.5537 9.48439 47.5416 9.85359 47.5136 10.2216C47.4537 11.0033 47.3867 11.7847 47.3229 12.566C47.2694 13.2255 47.2024 13.8843 47.1657 14.5445C47.1041 15.6502 47.0692 16.7575 47.0089 17.8632C46.9582 18.7843 46.8862 19.7036 46.8258 20.6242C46.819 20.729 46.8248 20.8342 46.8248 20.9196C46.9969 21.0665 47.1754 21.0389 47.3397 21.0442C47.8194 21.0604 48.2995 21.0657 48.7794 21.0696C49.5378 21.0759 50.2964 21.0713 51.0546 21.0837C51.3932 21.0895 51.7312 21.1257 52.0703 21.1482C52.202 21.4804 52.0574 21.7807 52.0613 22.0819C52.065 22.3739 52.0384 22.6662 52.0321 22.9584C52.0253 23.2657 52.0343 23.5734 51.9437 23.895C51.8247 23.9066 51.7039 23.9279 51.5829 23.9296C50.2202 23.9465 48.858 23.9581 47.4963 23.8701C46.9412 23.8342 46.3822 23.8609 45.8251 23.8495C45.1748 23.8362 44.5248 23.8142 43.8745 23.7922C43.7997 23.7897 43.7254 23.7641 43.6453 23.7479C43.5711 23.5594 43.6027 23.375 43.6144 23.1948C43.6721 22.3042 43.7135 21.412 43.8014 20.5243C43.8832 19.6983 43.9139 18.8687 44.0159 18.0437C44.0967 17.3888 44.0962 16.7239 44.142 16.0642C44.2131 15.0364 44.2888 14.0089 44.3704 12.9819C44.4094 12.4917 44.4751 12.0032 44.5116 11.5126C44.5391 11.1448 44.5243 10.7737 44.5552 10.4064C44.6134 9.7169 44.6908 9.02907 44.7607 8.34099C44.7685 8.2643 44.7802 8.18809 44.7855 8.11139C44.8437 7.28299 44.9019 6.45484 44.9584 5.62644C45.0338 4.52175 45.1023 3.41682 45.1846 2.31261C45.2381 1.59333 45.3112 0.875012 45.3796 0.110002Z" fill="white"/>
<path d="M66.2386 14.12C66.0747 16.4784 65.7402 18.7908 65.605 21.1086C65.7716 21.2168 65.923 21.2063 66.0786 21.2044C66.6354 21.1984 67.1925 21.2013 67.7495 21.202C67.8245 21.2022 67.8997 21.2119 67.9983 21.2192C68.0149 21.3176 68.0492 21.4057 68.0407 21.4897C67.9596 22.2839 67.919 23.0838 67.7381 23.8841C67.6891 23.8972 67.6307 23.9291 67.5745 23.9255C66.987 23.8897 66.3997 23.9216 65.8125 23.9236C65.0699 23.926 64.3271 23.9023 63.5845 23.8933C63.3834 23.8909 63.1821 23.8986 62.9809 23.9066C62.8395 23.9124 62.7031 23.9076 62.5907 23.8048C62.5809 23.7779 62.5593 23.7484 62.5629 23.722C62.718 22.6258 62.7599 21.5204 62.8441 20.4179C62.9004 19.6829 62.9865 18.95 63.0598 18.2162C63.1424 17.3907 63.2137 16.5636 63.3113 15.7395C63.4467 14.5947 63.6079 13.4527 63.7474 12.3083C63.8345 11.5912 63.9047 10.8717 63.9772 10.1529C64.0853 9.08185 64.1888 8.01054 64.2942 6.93924C64.3047 6.8323 64.3237 6.72512 64.3244 6.6177C64.3273 6.01624 64.4167 5.42277 64.4963 4.82881C64.5925 4.11194 64.7018 3.39677 64.7098 2.67168C64.7103 2.62547 64.7149 2.57926 64.7222 2.53378C64.7444 2.39975 64.8152 2.30055 64.9557 2.28289C65.1856 2.25386 65.4171 2.21708 65.6477 2.21902C66.6846 2.22749 67.7213 2.24829 68.758 2.26474C69.1324 2.37579 69.5239 2.30079 69.8855 2.35039C70.0128 2.48055 70.0038 2.62717 69.9992 2.76048C69.9729 3.51 69.9994 4.2634 69.8723 5.02042C68.9376 5.05163 68.0317 5.08188 67.1184 5.11236C67.0861 5.19849 67.0437 5.2672 67.0354 5.33978C66.8183 7.24698 66.6006 9.15418 66.4781 11.0694C66.6425 11.1896 66.817 11.1732 66.9824 11.177C67.5392 11.1896 68.0962 11.1942 68.653 11.2015C68.7923 11.2034 68.9342 11.1937 69.074 11.3355C69.0837 11.4536 69.1183 11.6065 69.1049 11.7553C69.0399 12.4741 68.9625 13.1924 68.8872 13.9105C68.8812 13.9692 68.8583 14.0263 68.8381 14.1033C68.5581 14.1548 68.2837 14.1226 68.011 14.096C67.4401 14.0411 66.8708 14.0442 66.2386 14.12Z" fill="white"/>
<path d="M48.5226 19.5019C48.4162 19.3352 48.4624 19.1782 48.4673 19.0289C48.4868 18.4451 48.5109 17.8613 48.5411 17.278C48.5705 16.7102 48.6083 16.1426 48.6453 15.5755C48.6935 14.8395 48.7392 14.1033 48.7955 13.3678C48.8549 12.5871 48.9189 11.8066 48.9927 11.0271C49.0893 10.0012 49.148 8.97374 49.2038 7.94526C49.2559 6.97871 49.3292 6.01193 49.437 5.05022C49.5174 4.33263 49.6033 3.61577 49.6659 2.89624C49.719 2.28873 49.7903 2.22801 50.4033 2.20841C50.9755 2.18978 51.5476 2.16438 52.1198 2.1472C52.2708 2.1426 52.4222 2.15785 52.5943 2.1651C52.607 2.28196 52.6299 2.37003 52.624 2.45615C52.5695 3.25358 52.5098 4.05053 52.4519 4.84772C52.4429 4.97038 52.4285 5.0928 52.4254 5.21571C52.3937 6.39975 52.2708 7.57606 52.1303 8.75115C52.0755 9.20842 52.0584 9.66979 52.0207 10.1292C52.0005 10.3738 51.9786 10.6187 51.9472 10.8621C51.833 11.7471 51.815 12.6381 51.7709 13.5277C51.7264 14.4331 51.6604 15.3374 51.6102 16.2423C51.5805 16.7796 51.5747 17.3182 51.5374 17.8546C51.5053 18.314 51.4481 18.7715 51.393 19.229C51.3714 19.4085 51.2694 19.5022 51.0941 19.5305C51.0181 19.5426 50.94 19.5418 50.8625 19.5421C50.1815 19.5428 49.5003 19.5443 48.8193 19.5404C48.7151 19.5397 48.6112 19.514 48.5226 19.5019Z" fill="white"/>
</svg>
