<svg width="71" height="24" viewBox="0 0 71 24" fill="none" xmlns="http://www.w3.org/2000/svg">
<path d="M34.0572 23.8132H31.4855C31.4482 23.6958 31.3981 23.5702 31.3691 23.4398C31.1595 22.4953 30.9479 21.5508 30.749 20.6038C30.5213 19.5214 30.308 18.4358 30.0848 17.3524C30.001 16.9457 29.9068 16.5412 29.8175 16.136C29.5791 15.0547 29.342 13.9733 29.1012 12.8928C29.0832 12.8115 29.1017 12.6992 28.9422 12.6729C28.9317 12.8047 28.9174 12.9346 28.9118 13.0648C28.8572 14.3253 28.8029 15.5856 28.7508 16.8461C28.7362 17.1995 28.7352 17.5537 28.7172 17.907C28.6637 18.9664 28.6045 20.0256 28.548 21.0851C28.5137 21.7298 28.4828 22.3748 28.4448 23.0194C28.4294 23.2773 28.4438 23.5434 28.2999 23.7735C27.8588 23.8729 26.0379 23.9346 25.4998 23.8644C25.4891 23.7708 25.4635 23.6687 25.4684 23.5681C25.5103 22.677 25.5443 21.785 25.6069 20.8949C25.688 19.745 25.7647 18.595 25.7742 17.4415C25.7851 16.0573 25.8818 14.678 25.9911 13.2987C26.0931 12.0116 26.1613 10.7221 26.2533 9.43402C26.3103 8.6366 26.3926 7.8411 26.4481 7.04367C26.5048 6.22955 26.6302 5.42535 26.7459 4.61872C26.8374 3.97977 26.8873 3.33524 26.9565 2.69314C26.9647 2.61838 26.9789 2.5441 26.9927 2.45362C27.384 2.29563 27.7918 2.36507 28.186 2.33894C28.5699 2.31402 28.957 2.33362 29.359 2.33362C29.405 2.45144 29.4566 2.54555 29.4781 2.64596C29.5913 3.17242 29.6969 3.69984 29.8046 4.22751C29.9706 5.04042 30.1298 5.85503 30.3024 6.66673C30.6677 8.38159 31.0353 10.0957 31.4105 11.8082C31.6177 12.7544 31.8424 13.697 32.0603 14.6413C32.0768 14.7131 32.1019 14.783 32.1289 14.8743C32.2385 14.6974 32.2368 14.6974 32.2685 14.3081C32.2845 14.1088 32.3103 13.9101 32.3274 13.711C32.3442 13.5117 32.3517 13.3118 32.3705 13.1125C32.389 12.9136 32.4175 12.7154 32.4391 12.5168C32.4606 12.3179 32.48 12.1191 32.4983 11.9199C32.5175 11.7053 32.5319 11.4903 32.5526 11.2761C32.5718 11.0768 32.5986 10.8786 32.6181 10.6798C32.6376 10.4807 32.6512 10.2808 32.6692 10.0817C32.6875 9.88282 32.7072 9.68371 32.7276 9.48483C32.7481 9.28596 32.7724 9.08733 32.7907 8.88845C32.8092 8.6891 32.8199 8.48925 32.8384 8.29014C32.8569 8.09102 32.8822 7.89239 32.9024 7.69352C32.9227 7.49465 32.9404 7.29553 32.9584 7.09617C32.9765 6.89706 32.9918 6.6977 33.0115 6.49883C33.0315 6.29971 33.058 6.10132 33.077 5.90245C33.0975 5.68785 33.1106 5.47277 33.1301 5.25841C33.1481 5.05905 33.1693 4.86042 33.19 4.66155C33.2112 4.46267 33.236 4.26404 33.2547 4.06517C33.2733 3.86605 33.2827 3.66621 33.3027 3.4671C33.3229 3.26822 33.3524 3.07032 33.3755 2.87144C33.3979 2.67596 33.3563 2.46813 33.4987 2.27337C33.7699 2.19184 34.0645 2.24337 34.3543 2.23442C34.6637 2.22498 34.9734 2.22813 35.2831 2.22716C35.5745 2.2262 35.8659 2.22692 36.19 2.22692C36.1932 2.34329 36.2 2.42991 36.1976 2.51652C36.161 3.79323 36.0408 5.06316 35.8995 6.33237C35.828 6.97303 35.8141 7.61973 35.7737 8.26377C35.769 8.34071 35.7656 8.4174 35.7566 8.49385C35.6816 9.13499 35.6008 9.77564 35.5317 10.4175C35.4856 10.8448 35.4572 11.2745 35.4182 11.7027C35.3931 11.9782 35.37 12.2543 35.3349 12.5284C35.2278 13.3675 35.1117 14.2053 35.0067 15.0448C34.9456 15.5328 34.8996 16.023 34.847 16.5119C34.8259 16.7108 34.8049 16.9094 34.7842 17.1083C34.7126 17.7964 34.6432 18.4847 34.5692 19.1725C34.5018 19.7994 34.4268 20.4253 34.3599 21.0524C34.3304 21.3275 34.3075 21.6033 34.29 21.8793C34.2591 22.3702 34.234 22.8614 34.2074 23.3527C34.1992 23.5088 34.1563 23.6525 34.0572 23.8132Z" fill="#081543"/>
<path d="M3.46235 9.52971C3.82219 9.4564 4.15088 9.42737 4.45107 9.31995C4.95481 9.13898 5.39792 8.83535 5.63969 8.34808C5.9131 7.79767 6.08669 7.20129 6.20843 6.60129C6.33722 5.96716 6.3343 5.31756 6.2357 4.67594C6.17653 4.2915 6.0307 3.93391 5.73342 3.66343C5.3373 3.30269 4.86448 3.08253 4.34249 2.97051C4.18204 2.93616 4.01186 2.91172 3.83047 2.99229C3.82365 3.091 3.81635 3.18052 3.81148 3.26979C3.79322 3.59133 3.78251 3.91335 3.7567 4.23392C3.72091 4.67642 3.66516 5.11723 3.63326 5.55974C3.58846 6.18709 3.55657 6.81492 3.52102 7.44275C3.50106 7.79501 3.48231 8.14727 3.46697 8.49978C3.45285 8.81962 3.41682 9.14043 3.46235 9.52971ZM2.83006 20.7169C2.92818 20.7394 2.97638 20.7658 3.01631 20.7569C3.39247 20.6724 3.78178 20.6192 4.13846 20.4827C4.54627 20.3272 4.89613 20.0535 5.10965 19.6606C5.59489 18.7679 5.90507 17.8304 5.77773 16.7934C5.76483 16.6872 5.76239 16.5783 5.76799 16.4712C5.78552 16.1395 5.69374 15.8286 5.56738 15.5317C5.24989 14.7868 4.70038 14.3065 3.88452 14.1706C3.69023 14.1382 3.48499 14.1565 3.28583 14.1679C3.18674 14.1732 3.12198 14.248 3.10396 14.3498C3.09325 14.4103 3.084 14.4713 3.08059 14.5325C3.04577 15.1301 3.00584 15.7277 2.97955 16.326C2.92039 17.6613 2.86731 18.997 2.81423 20.3325C2.80961 20.4523 2.82373 20.5723 2.83006 20.7169ZM6.19455 11.7059C6.29048 11.7868 6.33235 11.831 6.38227 11.8632C7.11997 12.3374 7.60058 13.0218 8.00255 13.7798C8.24602 14.2386 8.33707 14.7372 8.4498 15.23C8.59491 15.8629 8.60635 16.5084 8.57762 17.1566C8.54865 17.8038 8.48583 18.4461 8.34073 19.0776C8.27182 19.3756 8.16713 19.666 8.07291 19.9582C8.02592 20.1044 7.96603 20.2461 7.91149 20.3898C7.84137 20.5754 7.7956 20.7755 7.69578 20.9439C7.4842 21.3007 7.25534 21.6494 7.01261 21.9859C6.77547 22.3147 6.4183 22.5201 6.11469 22.78C5.58028 23.2365 4.94799 23.5159 4.29111 23.7596C3.88988 23.9084 3.47306 23.9108 3.06549 23.9896C2.97638 24.0068 2.87851 24.0008 2.78818 23.985C2.43467 23.9226 2.0792 23.9555 1.72422 23.9451C1.26188 23.9316 0.798314 23.895 0.339376 23.8363C0.0406399 23.7983 -0.0036715 23.7329 0.000223997 23.4441C0.00752805 22.8903 0.0311446 22.337 0.0498917 21.7834C0.0589 21.5221 0.0737515 21.2611 0.0834902 20.9998C0.107594 20.3545 0.132184 19.7093 0.153122 19.0638C0.177713 18.3109 0.193295 17.5577 0.222998 16.805C0.244423 16.2677 0.258788 15.7279 0.318681 15.194C0.414851 14.337 0.501039 13.4774 0.499578 12.6176C0.498361 11.9714 0.554115 11.3297 0.571401 10.6859C0.581627 10.3025 0.637625 9.9202 0.658076 9.53672C0.695083 8.84551 0.712613 8.15332 0.753029 7.4621C0.795149 6.74137 0.855286 6.0216 0.906901 5.30135C0.916883 5.1632 0.928083 5.02505 0.933196 4.88691C0.966794 3.93319 0.997228 2.97971 1.03277 2.02623C1.05006 1.56533 1.0766 1.10468 1.09875 0.643793C1.10703 0.471289 1.15353 0.312095 1.28306 0.153383C1.61612 0.114432 1.96745 0.0604771 2.32097 0.0341074C3.21937 -0.033395 4.11752 0.000962734 5.00886 0.122415C5.64212 0.208787 6.23107 0.452178 6.8098 0.714921C6.95003 0.778795 7.08832 0.847505 7.22613 0.916699C7.70673 1.15791 8.09726 1.49856 8.3809 1.95582C8.70106 2.47212 8.92067 3.02181 9.00442 3.62835C9.076 4.14585 9.19847 4.65779 9.17607 5.18353C9.16121 5.53651 9.10522 5.88757 9.09231 6.24055C9.06529 6.98282 8.89121 7.69944 8.70179 8.40905C8.55133 8.97349 8.29666 9.50213 7.94436 9.97754C7.8068 10.1629 7.66047 10.3438 7.54458 10.5422C7.27823 10.9973 6.8843 11.307 6.43218 11.5574C6.36571 11.5939 6.30314 11.6377 6.19455 11.7059Z" fill="#081543"/>
<path d="M12.5804 11.5613C12.9373 11.3653 13.2256 11.1894 13.4177 10.904C13.7361 10.4305 14.002 9.92991 14.1415 9.37103C14.3321 8.60771 14.4371 7.8352 14.4105 7.04721C14.4054 6.89358 14.3893 6.73801 14.4071 6.5868C14.4558 6.17526 14.2968 5.82687 14.0638 5.51598C13.8673 5.25348 13.5954 5.08291 13.2204 5.08799C13.154 5.44268 13.0717 5.78429 13.0293 6.13099C12.966 6.64801 12.9305 7.16866 12.8845 7.68786C12.7773 8.89538 12.6707 10.1031 12.5658 11.3107C12.5604 11.3707 12.5723 11.4319 12.5804 11.5613ZM12.0106 16.2411C11.9393 16.4826 11.8984 16.6906 11.8879 16.9055C11.8616 17.4431 11.8353 17.9807 11.8054 18.518C11.7672 19.2092 11.7241 19.9004 11.6856 20.5917C11.6316 21.5589 11.5804 22.5262 11.5261 23.4935C11.5118 23.7523 11.4465 23.8239 11.1875 23.8312C10.4761 23.8508 9.76441 23.8624 9.05275 23.875C9.02499 23.8752 8.99724 23.8527 8.93759 23.8271C8.92687 23.7424 8.89961 23.6398 8.90374 23.5385C8.93442 22.8005 8.93661 22.0597 9.01452 21.3264C9.12554 20.2861 9.14283 19.2402 9.23876 18.1994C9.26408 17.924 9.30303 17.6497 9.32762 17.3739C9.36147 16.9911 9.40894 16.6079 9.41381 16.2244C9.4328 14.7612 9.55234 13.3059 9.74541 11.856C9.75954 11.7495 9.76002 11.6411 9.76416 11.5337C9.78072 11.1183 9.83306 10.7082 9.90148 10.2972C9.97671 9.84354 10.0098 9.38264 10.0556 8.92417C10.1121 8.359 10.1649 7.79335 10.2156 7.22745C10.2935 6.35502 10.3653 5.48211 10.4454 4.61016C10.4987 4.02806 10.5601 3.44668 10.6224 2.86579C10.6355 2.74385 10.6686 2.62409 10.6937 2.50337C10.7293 2.33304 10.8366 2.2336 11.0068 2.20626C11.1441 2.184 11.2827 2.15981 11.4212 2.15642C11.9471 2.14287 12.4737 2.14191 12.9996 2.12812C13.4352 2.1165 13.8681 2.15763 14.2922 2.2365C14.7509 2.32215 15.1821 2.50433 15.5594 2.7845C16.528 3.50305 17.0142 4.49524 17.0913 5.66792C17.1568 6.66446 17.1459 7.67093 16.963 8.65634C16.7442 9.83555 16.4822 11.0085 15.9122 12.0846C15.6028 12.6689 15.1923 13.1569 14.5902 13.4641C14.4672 13.527 14.344 13.5916 14.2905 13.7593C14.336 13.8072 14.3796 13.8735 14.4405 13.9137C14.7514 14.1191 14.9393 14.4142 15.0657 14.7522C15.3788 15.5913 15.6013 16.4456 15.6473 17.3499C15.687 18.1314 15.7881 18.9116 15.8993 19.6873C15.9965 20.3662 16.5175 20.8423 17.2053 20.9323C17.4344 20.9623 17.6681 20.9683 17.8999 20.9688C20.0529 20.972 22.2059 20.9717 24.3589 20.9734C24.5106 20.9734 24.6622 20.9843 24.8346 20.9913C24.9211 21.316 24.8259 21.6189 24.8259 21.9194C24.8259 22.2117 24.8047 22.5039 24.7867 22.796C24.7677 23.1015 24.7411 23.4071 24.716 23.7405C24.5826 23.7603 24.4653 23.7915 24.3474 23.7932C23.6816 23.8027 23.0157 23.8102 22.3498 23.8085C21.4833 23.8063 20.6168 23.7944 19.7503 23.7877C18.5429 23.7785 17.3351 23.7903 16.1284 23.756C15.0114 23.7243 14.1576 23.1797 13.5382 22.2775C13.3108 21.9463 13.1997 21.5538 13.145 21.1525C13.032 20.327 12.9843 19.4976 13.013 18.6658C13.0327 18.1023 12.91 17.5662 12.7588 17.032C12.65 16.6464 12.3508 16.446 12.0106 16.2411Z" fill="#081543"/>
<path d="M53.729 2.19585C54.5274 2.12859 55.2697 2.14843 56.0096 2.12303C56.2226 2.11577 56.4413 2.10706 56.6728 2.18448C56.6918 2.27376 56.729 2.3611 56.7256 2.44626C56.7035 3.0003 56.7193 3.55216 56.7748 4.10402C56.7931 4.28693 56.7777 4.47249 56.7843 4.65685C56.806 5.27113 56.7863 5.88662 56.8761 6.49873C56.9114 6.73994 56.891 6.98938 56.8956 7.23543C56.8975 7.34285 56.8931 7.451 56.9007 7.55818C56.9625 8.43182 57.0344 9.30521 57.0874 10.1796C57.1293 10.8703 57.1478 11.562 57.18 12.2532C57.1877 12.4221 57.2097 12.59 57.2218 12.7586C57.2674 13.3872 57.3204 14.0153 57.354 14.6443C57.394 15.3965 57.3996 16.1501 57.5077 16.8977C57.534 17.0799 57.5262 17.2664 57.5437 17.4501C57.5656 17.6777 57.5973 17.9044 57.6851 18.1384C57.7058 18.0489 57.728 17.9598 57.7472 17.8701C57.8429 17.4186 57.9442 16.9684 58.0309 16.5155C58.1061 16.1228 58.1843 15.7294 58.2256 15.3329C58.306 14.5662 58.4604 13.8145 58.6366 13.0657C58.8265 12.2576 59.0065 11.4469 59.192 10.6378C59.3843 9.79949 59.5523 8.95586 59.7904 8.12843C59.9307 7.64116 60.0707 7.15293 60.1853 6.65937C60.3662 5.88033 60.5281 5.09718 60.6932 4.31499C60.83 3.66805 60.9596 3.01965 61.0964 2.35214C61.165 2.33545 61.2366 2.30376 61.3084 2.30327C61.912 2.29964 62.5156 2.30133 63.1191 2.30158C63.2275 2.30158 63.3358 2.30037 63.4442 2.30303C63.8627 2.31319 63.9196 2.39013 63.8357 2.80989C63.6433 3.77353 63.4592 4.73887 63.2594 5.70081C63.15 6.22727 63.0174 6.74889 62.8915 7.27196C62.7296 7.94431 62.554 8.61303 62.4028 9.28755C62.2516 9.96232 62.1233 10.6417 61.985 11.3191C61.9512 11.4848 61.9208 11.6511 61.8845 11.8163C61.7423 12.4613 61.6006 13.1063 61.454 13.7503C61.2354 14.7094 61.0065 15.666 60.7945 16.6263C60.7051 17.031 60.6616 17.446 60.5724 17.851C60.4174 18.5557 60.2377 19.2554 60.0784 19.9592C59.8846 20.814 59.7037 21.6714 59.5124 22.5264C59.4386 22.8564 59.3541 23.1835 59.2699 23.5111C59.2472 23.5992 59.2085 23.6831 59.1686 23.793C59.0026 23.8128 58.836 23.8438 58.6685 23.8501C58.3749 23.861 58.0805 23.8602 57.7864 23.8581C57.2603 23.8539 56.7342 23.8462 56.208 23.8372C56.0225 23.8343 55.8355 23.8351 55.6517 23.8135C55.342 23.777 55.2565 23.6897 55.2042 23.3875C55.1149 22.8722 55.0201 22.3578 54.9439 21.8403C54.8991 21.5369 54.8821 21.2292 54.859 20.9229C54.7925 20.0495 54.7331 19.1756 54.663 18.3022C54.642 18.0423 54.5899 17.7849 54.5614 17.5251C54.4782 16.761 54.3942 15.997 54.3216 15.232C54.2941 14.9414 54.2985 14.6479 54.2851 14.3559C54.2595 13.8038 54.2544 13.2493 54.2001 12.6996C54.0791 11.4747 54.0811 10.2427 53.9676 9.01731C53.9335 8.65029 53.9289 8.28012 53.917 7.91141C53.8868 6.98962 53.8637 6.06759 53.8313 5.14557C53.8013 4.28547 53.7631 3.42538 53.7295 2.56481C53.7254 2.45932 53.729 2.35311 53.729 2.19585Z" fill="#081543"/>
<path d="M39.6913 4.72543C39.6579 4.85729 39.6236 4.94366 39.6153 5.03245C39.5138 6.13497 39.4171 7.23821 39.3168 8.34096C39.236 9.22936 39.1556 10.1178 39.0692 11.0054C38.9782 11.9391 38.8732 12.8715 38.7868 13.8054C38.6986 14.7548 38.6329 15.7063 38.5443 16.6557C38.4126 18.0642 38.2689 19.4718 38.1311 20.8799C38.125 20.9409 38.1209 21.0033 38.127 21.064C38.135 21.1494 38.1917 21.2181 38.2733 21.2152C38.7434 21.1993 39.1554 21.0754 39.3877 20.6131C39.5885 20.2129 39.7677 19.8086 39.8405 19.3617C39.9394 18.7557 40.0506 18.1518 40.1609 17.5477C40.2191 17.2303 40.3048 16.9167 40.3472 16.5971C40.5305 15.2106 40.6824 13.8211 40.7406 12.422C40.7623 11.9006 40.8317 11.3814 40.8755 10.8605C40.914 10.4013 40.9537 9.94187 40.9812 9.4817C41.016 8.89863 41.0454 8.31532 41.0659 7.73176C41.0883 7.10224 41.0978 6.47247 41.1114 5.84271C41.1129 5.7815 41.107 5.71956 41.1002 5.65859C41.051 5.21923 40.624 4.70729 40.0562 4.72495C39.9493 4.72858 39.8425 4.72543 39.6913 4.72543ZM35.3724 23.907C35.2616 23.7411 35.2903 23.586 35.303 23.4353C35.3327 23.083 35.3704 22.7312 35.3989 22.379C35.4335 21.95 35.4834 21.521 35.4885 21.0916C35.5012 20.0293 35.6351 18.9756 35.7113 17.9181C35.7622 17.2133 35.8615 16.512 35.936 15.8089C35.983 15.3656 36.0251 14.9219 36.0685 14.4785C36.1313 13.8361 36.1909 13.194 36.2562 12.5524C36.3139 11.9865 36.3847 11.4223 36.4363 10.8559C36.5021 10.1369 36.5432 9.41565 36.615 8.6971C36.6822 8.02451 36.7765 7.35458 36.8573 6.6832C36.9401 5.99706 37.0241 5.31093 37.1013 4.6243C37.1767 3.95172 37.2391 3.27792 37.3182 2.60557C37.3571 2.2746 37.4633 2.18169 37.7998 2.16766C38.4973 2.13814 39.1914 2.19694 39.8851 2.26057C40.0699 2.2775 40.2544 2.30654 40.4394 2.30895C41.1903 2.31815 41.8564 2.57291 42.4734 2.97985C42.7356 3.15308 42.9499 3.36961 43.1101 3.6401C43.5135 4.32164 43.8276 5.04165 43.9383 5.82722C44.0046 6.29707 44.0155 6.77683 44.0197 7.25248C44.024 7.74434 44.006 8.23741 43.97 8.72758C43.9125 9.50856 43.8819 10.292 43.7458 11.0662C43.7007 11.3224 43.6859 11.5858 43.6832 11.8467C43.6759 12.572 43.569 13.2859 43.465 14.0014C43.4034 14.4264 43.3757 14.8561 43.318 15.2819C43.271 15.6313 43.1967 15.9768 43.1444 16.3254C43.0648 16.857 42.9956 17.3897 42.9182 17.921C42.7877 18.8171 42.675 19.7174 42.3982 20.5847C42.1396 21.3943 41.7807 22.1578 41.296 22.8611C41.1706 23.0431 41.0118 23.1778 40.8295 23.3003C40.2223 23.7091 39.5673 23.9424 38.8245 23.9063C38.6241 23.8966 38.4226 23.9199 38.2212 23.922C37.3861 23.9303 36.551 23.9378 35.7159 23.9414C35.5964 23.9419 35.4766 23.9179 35.3724 23.907Z" fill="#081543"/>
<path d="M21.3406 8.8298C21.0757 9.82683 20.8566 10.7522 20.7473 11.7268C21.0692 11.7384 21.3543 11.7836 21.6632 11.6789C21.5848 10.7847 21.5081 9.90304 21.4283 9.02166C21.4246 8.98077 21.3935 8.94279 21.3406 8.8298ZM21.9023 14.4171C21.3238 14.4796 20.7858 14.3869 20.2448 14.4556C20.1381 14.6332 20.1113 14.8144 20.0765 14.9934C19.8771 16.0185 19.676 17.0436 19.4781 18.069C19.4284 18.3256 19.3929 18.5848 19.3432 18.8415C19.3089 19.0195 19.2612 19.1954 19.2234 19.3551C19.1643 19.3759 19.1355 19.3945 19.107 19.3945C18.3947 19.3933 17.6823 19.3892 16.9699 19.3885C16.8248 19.3882 16.6913 19.3711 16.5811 19.1906C16.6714 18.6702 16.7564 18.1096 16.8671 17.5543C17.1771 16.0028 17.4955 14.4529 17.8152 12.9036C18.0107 11.9554 18.2013 11.0058 18.42 10.063C18.5692 9.41917 18.7686 8.78674 18.9352 8.14681C19.09 7.55189 19.2509 6.95744 19.3722 6.35526C19.4691 5.87404 19.5879 5.39767 19.6602 4.90968C19.7683 4.18047 19.9487 3.46216 20.0909 2.73804C20.132 2.52852 20.2311 2.36787 20.4478 2.23214C21.2746 2.21884 22.1385 2.2048 23.0218 2.19077C23.0588 2.3144 23.1016 2.4119 23.1162 2.51327C23.2509 3.44183 23.3804 4.37136 23.5116 5.30041C23.5396 5.49831 23.5757 5.69525 23.5961 5.89388C23.6984 6.88776 23.7906 7.88286 23.8992 8.87602C23.9628 9.45643 24.0516 10.0339 24.1266 10.6129C24.1444 10.7501 24.1507 10.8885 24.1646 11.0259C24.2187 11.561 24.2715 12.0965 24.3285 12.6314C24.3988 13.288 24.4697 13.9449 24.5464 14.6008C24.6179 15.2117 24.6995 15.8213 24.7738 16.4322C24.887 17.3625 24.9978 18.293 25.1078 19.2092C24.9897 19.3442 24.8383 19.3561 24.7088 19.3582C24.0285 19.3694 23.3478 19.3626 22.667 19.3604C22.6376 19.3602 22.6084 19.3447 22.5412 19.3258C22.398 19.0563 22.3776 18.7316 22.3386 18.4173C22.2463 17.6702 22.1721 16.9207 22.0939 16.1719C22.0428 15.6822 21.9987 15.1921 21.9498 14.7021C21.9425 14.6279 21.9254 14.5541 21.9023 14.4171Z" fill="#081543"/>
<path d="M45.3805 0.110002C45.569 0.0928257 45.7056 0.0683888 45.8422 0.0698409C46.5541 0.0780679 47.266 0.0920984 47.9779 0.106859C48.0207 0.107825 48.0628 0.134197 48.1349 0.158876C48.1702 0.426701 48.1537 0.702753 48.141 0.973482C48.1108 1.61873 48.0541 2.26277 48.011 2.90754C47.9915 3.19907 47.9708 3.49109 47.965 3.78311C47.9511 4.4753 47.8975 5.16361 47.7936 5.84903C47.759 6.07572 47.7639 6.30871 47.7488 6.53855C47.6923 7.39792 47.6339 8.25704 47.5783 9.11616C47.5547 9.48439 47.5425 9.85359 47.5146 10.2216C47.4547 11.0033 47.3877 11.7847 47.3239 12.566C47.2704 13.2255 47.2034 13.8843 47.1666 14.5445C47.105 15.6502 47.0702 16.7575 47.0098 17.8632C46.9592 18.7843 46.8871 19.7036 46.8268 20.6242C46.8199 20.729 46.8258 20.8342 46.8258 20.9196C46.9979 21.0665 47.1764 21.0389 47.3407 21.0442C47.8203 21.0604 48.3005 21.0657 48.7803 21.0696C49.5387 21.0759 50.2974 21.0713 51.0556 21.0837C51.3942 21.0895 51.7322 21.1257 52.0713 21.1482C52.203 21.4804 52.0584 21.7807 52.0623 22.0819C52.066 22.3739 52.0394 22.6662 52.0331 22.9584C52.0263 23.2657 52.0353 23.5734 51.9447 23.895C51.8256 23.9066 51.7049 23.9279 51.5839 23.9296C50.2212 23.9465 48.859 23.9581 47.4973 23.8701C46.9422 23.8342 46.3832 23.8609 45.8261 23.8495C45.1758 23.8362 44.5257 23.8142 43.8754 23.7922C43.8007 23.7897 43.7264 23.7641 43.6463 23.7479C43.5721 23.5594 43.6037 23.375 43.6154 23.1948C43.6731 22.3042 43.7145 21.412 43.8024 20.5243C43.8842 19.6983 43.9149 18.8687 44.0169 18.0437C44.0977 17.3888 44.0972 16.7239 44.143 16.0642C44.2141 15.0364 44.2898 14.0089 44.3714 12.9819C44.4103 12.4917 44.4761 12.0032 44.5126 11.5126C44.5401 11.1448 44.5252 10.7737 44.5562 10.4064C44.6144 9.7169 44.6918 9.02907 44.7617 8.34099C44.7694 8.2643 44.7811 8.18809 44.7865 8.11139C44.8447 7.28299 44.9029 6.45484 44.9593 5.62644C45.0348 4.52175 45.1032 3.41682 45.1855 2.31261C45.2391 1.59333 45.3121 0.875012 45.3805 0.110002Z" fill="#081543"/>
<path d="M66.2386 14.12C66.0747 16.4784 65.7402 18.7908 65.605 21.1086C65.7716 21.2168 65.923 21.2063 66.0786 21.2044C66.6354 21.1984 67.1925 21.2013 67.7495 21.202C67.8245 21.2022 67.8997 21.2119 67.9983 21.2192C68.0149 21.3176 68.0492 21.4057 68.0407 21.4897C67.9596 22.2839 67.919 23.0838 67.7381 23.8841C67.6891 23.8972 67.6307 23.9291 67.5745 23.9255C66.987 23.8897 66.3997 23.9216 65.8125 23.9236C65.0699 23.926 64.3271 23.9023 63.5845 23.8933C63.3834 23.8909 63.1821 23.8986 62.9809 23.9066C62.8395 23.9124 62.7031 23.9076 62.5907 23.8048C62.5809 23.7779 62.5593 23.7484 62.5629 23.722C62.718 22.6258 62.7599 21.5204 62.8441 20.4179C62.9004 19.6829 62.9865 18.95 63.0598 18.2162C63.1424 17.3907 63.2137 16.5636 63.3113 15.7395C63.4467 14.5947 63.6079 13.4527 63.7474 12.3083C63.8345 11.5912 63.9047 10.8717 63.9772 10.1529C64.0853 9.08185 64.1888 8.01054 64.2942 6.93924C64.3047 6.8323 64.3237 6.72512 64.3244 6.6177C64.3273 6.01624 64.4167 5.42277 64.4963 4.82881C64.5925 4.11194 64.7018 3.39677 64.7098 2.67168C64.7103 2.62547 64.7149 2.57926 64.7222 2.53378C64.7444 2.39975 64.8152 2.30055 64.9557 2.28289C65.1856 2.25386 65.4171 2.21708 65.6477 2.21902C66.6846 2.22749 67.7213 2.24829 68.758 2.26474C69.1324 2.37579 69.5239 2.30079 69.8855 2.35039C70.0128 2.48055 70.0038 2.62717 69.9992 2.76048C69.9729 3.51 69.9994 4.2634 69.8723 5.02042C68.9376 5.05163 68.0317 5.08188 67.1184 5.11236C67.0861 5.19849 67.0437 5.2672 67.0354 5.33978C66.8183 7.24698 66.6006 9.15418 66.4781 11.0694C66.6425 11.1896 66.817 11.1732 66.9824 11.177C67.5392 11.1896 68.0962 11.1942 68.653 11.2015C68.7923 11.2034 68.9342 11.1937 69.074 11.3355C69.0837 11.4536 69.1183 11.6065 69.1049 11.7553C69.0399 12.4741 68.9625 13.1924 68.8872 13.9105C68.8812 13.9692 68.8583 14.0263 68.8381 14.1033C68.5581 14.1548 68.2837 14.1226 68.011 14.096C67.4401 14.0411 66.8708 14.0442 66.2386 14.12Z" fill="#081543"/>
<path d="M48.5226 19.5019C48.4162 19.3352 48.4624 19.1782 48.4673 19.0289C48.4868 18.4451 48.5109 17.8613 48.5411 17.278C48.5705 16.7102 48.6083 16.1426 48.6453 15.5755C48.6935 14.8395 48.7392 14.1033 48.7955 13.3678C48.8549 12.5871 48.9189 11.8066 48.9927 11.0271C49.0893 10.0012 49.148 8.97374 49.2038 7.94526C49.2559 6.97871 49.3292 6.01193 49.437 5.05022C49.5174 4.33263 49.6033 3.61577 49.6659 2.89624C49.719 2.28873 49.7903 2.22801 50.4033 2.20841C50.9755 2.18978 51.5476 2.16438 52.1198 2.1472C52.2708 2.1426 52.4222 2.15785 52.5943 2.1651C52.607 2.28196 52.6299 2.37003 52.624 2.45615C52.5695 3.25358 52.5098 4.05053 52.4519 4.84772C52.4429 4.97038 52.4285 5.0928 52.4254 5.21571C52.3937 6.39975 52.2708 7.57606 52.1303 8.75115C52.0755 9.20842 52.0584 9.66979 52.0207 10.1292C52.0005 10.3738 51.9786 10.6187 51.9472 10.8621C51.833 11.7471 51.815 12.6381 51.7709 13.5277C51.7264 14.4331 51.6604 15.3374 51.6102 16.2423C51.5805 16.7796 51.5747 17.3182 51.5374 17.8546C51.5053 18.314 51.4481 18.7715 51.393 19.229C51.3714 19.4085 51.2694 19.5022 51.0941 19.5305C51.0181 19.5426 50.94 19.5418 50.8625 19.5421C50.1815 19.5428 49.5003 19.5443 48.8193 19.5404C48.7151 19.5397 48.6112 19.514 48.5226 19.5019Z" fill="#081543"/>
</svg>
