<svg width="31" height="38" viewBox="0 0 31 38" fill="none" xmlns="http://www.w3.org/2000/svg">
<path d="M23.4414 2.84967C23.5652 2.9905 23.7307 2.96297 23.8058 2.75857C23.8076 2.74862 23.8097 2.73796 23.8119 2.72677C23.8238 2.66716 23.8386 2.59241 23.8243 2.52866C23.8075 2.11273 23.7765 1.6904 23.7456 1.26807C23.7413 1.16407 23.6884 1.05514 23.6162 0.988607C23.53 0.915709 23.3885 0.851971 23.3064 0.88308C23.2449 0.906382 23.1684 1.07613 23.179 1.16598C23.2008 1.56151 23.2515 1.94607 23.3031 2.33725C23.313 2.41202 23.3229 2.48704 23.3326 2.56242C23.351 2.67279 23.3757 2.769 23.4414 2.84967Z" fill="#09090A"/>
<path fill-rule="evenodd" clip-rule="evenodd" d="M15.1613 4.47163C15.0179 4.71413 14.847 4.93844 14.6742 5.16528C14.3746 5.55862 14.0691 5.95959 13.891 6.47629C13.923 6.57826 13.9812 6.67716 14.0419 6.78008C14.1861 7.02492 14.3438 7.29254 14.1921 7.67852C13.1765 7.83291 12.1361 7.8627 11.1032 7.89229C10.6107 7.90639 10.12 7.92045 9.63434 7.94794C9.29015 7.56629 9.42074 7.24217 9.55112 6.91857C9.60831 6.77665 9.66545 6.63482 9.68248 6.48829C9.38347 5.97901 8.96849 5.56955 8.56632 5.17273C8.44135 5.04942 8.31761 4.92734 8.19898 4.80385C8.05581 4.75045 7.91174 4.77827 7.77351 4.80496C7.58715 4.84094 7.41139 4.87488 7.26276 4.705L7.25429 4.69529C7.09882 4.51691 6.93302 4.32669 6.85468 4.1095C6.68868 3.65503 7.04398 3.08963 7.53129 2.96432C8.00042 2.84273 8.42984 3.12973 8.50951 3.65552C8.53752 3.84035 8.53819 4.03036 8.53896 4.24805V4.24814C8.53933 4.3546 8.53973 4.46775 8.54337 4.59012C9.00999 5.1028 9.52388 5.66673 10.0661 6.26079C11.2138 5.67477 12.335 5.84197 13.4839 6.21962C13.6178 6.0372 13.7488 5.85854 13.878 5.6822C14.0853 5.39937 14.2882 5.1225 14.4922 4.84558C14.7474 4.50119 14.9601 4.16757 14.8236 3.681C14.7044 3.26225 14.9323 2.925 15.276 2.68642C15.6795 2.4085 16.2182 2.57678 16.4117 3.03343C16.6774 3.66173 16.4599 4.14163 15.7981 4.34747C15.6691 4.38707 15.5342 4.40891 15.3885 4.4325C15.3157 4.44429 15.2401 4.45652 15.1613 4.47163ZM16.1257 3.38281L16.1257 3.38272C16.1117 3.32812 16.0957 3.26567 16.0752 3.20338C16.0147 3.01579 15.8676 2.89021 15.6918 2.92725C15.5402 2.95725 15.3942 3.07412 15.2786 3.18684C15.2167 3.24772 15.2052 3.37771 15.196 3.48039L15.1959 3.48187C15.1632 3.81872 15.353 4.04545 15.6485 4.03544C15.9716 4.0276 16.1667 3.81892 16.1503 3.4744C16.1425 3.44829 16.1345 3.4171 16.1257 3.38281ZM8.15837 3.84773C8.13364 3.52836 7.91011 3.29345 7.63571 3.29653C7.37054 3.3024 7.14146 3.59928 7.17774 3.89649C7.21503 4.22787 7.44475 4.46568 7.70327 4.44138C7.99531 4.41594 8.18034 4.17651 8.15837 3.84773Z" fill="#09090A"/>
<path fill-rule="evenodd" clip-rule="evenodd" d="M15.6231 14.4784C15.5334 13.6041 14.7519 12.9681 13.8777 13.0578C13.0035 13.1475 12.3676 13.929 12.4573 14.8033C12.5471 15.6776 13.3285 16.3136 14.2027 16.2239C15.0769 16.1341 15.7129 15.3527 15.6231 14.4784ZM14.1601 15.8248C14.8149 15.7575 15.2895 15.1723 15.2225 14.5193C15.1552 13.8645 14.5719 13.3897 13.9171 13.4569C13.2623 13.5241 12.7877 14.1093 12.8548 14.7623C12.922 15.4172 13.5053 15.892 14.1601 15.8248Z" fill="#09090A"/>
<path fill-rule="evenodd" clip-rule="evenodd" d="M13.8489 12.7749C14.8793 12.6692 15.8003 13.4188 15.9061 14.4493C16.0118 15.4797 15.2623 16.4008 14.2319 16.5066C13.2015 16.6123 12.2805 15.8627 12.1747 14.8322C12.069 13.8018 12.8185 12.8807 13.8489 12.7749ZM13.8609 12.8941C14.8256 12.7951 15.6879 13.4969 15.7869 14.4616C15.8859 15.4263 15.1842 16.2886 14.2195 16.3876C13.2549 16.4866 12.3926 15.7848 12.2936 14.8201C12.1946 13.8554 12.8963 12.9931 13.8609 12.8941Z" fill="#09090A"/>
<path d="M12.1984 13.4017C12.1816 13.2378 12.036 13.1206 11.8759 13.1383L11.8749 13.1384C11.7134 13.155 11.5951 13.3004 11.6117 13.462C11.6283 13.6235 11.7736 13.7418 11.9352 13.7253C12.0967 13.7087 12.215 13.5633 12.1984 13.4017Z" fill="#09090A"/>
<path fill-rule="evenodd" clip-rule="evenodd" d="M15.6959 23.2078L15.6965 23.2078C16.7641 23.1932 17.7844 23.1792 18.8048 23.1623C19.5945 23.1489 20.3842 23.1336 21.1727 23.0985C21.4159 23.0876 21.6599 23.0238 21.8961 22.9567C22.1133 22.8954 22.2076 22.7089 22.2394 22.4975C22.2406 22.4898 22.2417 22.482 22.2429 22.4742L22.2463 22.4518L22.2541 22.4009C22.2817 22.2224 22.3094 22.0425 22.3056 21.864C22.2846 20.9131 22.2566 19.9622 22.2171 19.0113C22.2055 18.7342 22.1835 18.4575 22.1615 18.1807L22.1615 18.1804C22.1436 17.9547 22.1256 17.7289 22.1133 17.5029C22.1089 17.418 22.1522 17.3177 22.2018 17.2443C22.3363 17.0472 22.4751 16.8528 22.6138 16.6584L22.6149 16.6568C22.87 16.2994 23.125 15.9421 23.3533 15.5686C23.6692 15.0518 23.94 14.5067 24.2099 13.9634L24.2147 13.9539C24.2354 13.9122 24.256 13.8706 24.2768 13.829C24.5455 13.2887 24.8117 12.7446 25.0353 12.1845C25.2009 11.7686 25.3291 11.3377 25.4572 10.9072L25.4574 10.9064C25.4835 10.819 25.5095 10.7315 25.5358 10.6442C25.597 10.4418 25.653 10.2285 25.653 10.0203C25.6537 9.71629 25.8218 9.55216 26.0536 9.42955C26.337 9.27948 26.586 9.08023 26.7484 8.8152C26.8856 8.59127 26.9737 8.33359 27.0602 8.08056L27.061 8.07812C27.0702 8.05127 27.0793 8.02447 27.0885 7.99777C27.2458 7.54116 27.2993 7.0654 27.263 6.58516C27.2172 5.98741 26.9471 5.52825 26.4179 5.21213C26.0995 5.02259 25.7799 5.05348 25.4474 5.0856L25.4333 5.08697C25.3741 5.09271 25.2957 5.09335 25.2537 5.06078C25.0244 4.88069 24.7678 4.88836 24.5098 4.94583C24.315 4.98926 24.1647 5.00203 23.9742 4.86281C23.687 4.65207 23.2807 4.68017 22.9597 5.05631C22.6585 5.40883 22.661 5.82329 22.7037 6.24797C22.7101 6.31119 22.7209 6.37505 22.7394 6.43572C22.7782 6.56281 22.7285 6.64838 22.6476 6.748C22.4916 6.94087 22.3636 7.1548 22.3744 7.42174C22.377 7.48399 22.3757 7.5465 22.3743 7.60897V7.61098C22.3727 7.68627 22.3711 7.76154 22.3763 7.8362C22.4349 8.64661 22.8413 9.21306 23.5851 9.53045C23.8749 9.6537 23.9086 9.69521 23.8303 9.99536C23.638 10.7323 23.3527 11.4361 23.0298 12.1232C22.8211 12.5676 22.5948 13.0039 22.3686 13.4398L22.3686 13.4399L22.3685 13.4401L22.3684 13.4403L22.3674 13.4422L22.3086 13.5556C22.2938 13.5841 22.279 13.6127 22.2642 13.6412C22.1624 13.8385 22.0458 14.0289 21.9267 14.216C21.9006 14.2568 21.8356 14.2875 21.786 14.2926C21.7649 14.2945 21.7236 14.2204 21.714 14.1757C21.7035 14.1287 21.7004 14.0803 21.6972 14.0317C21.6952 14.0005 21.6932 13.9692 21.6892 13.9382C21.6645 13.7504 21.6404 13.5626 21.6163 13.3747L21.6162 13.3743L21.6158 13.3713L21.6158 13.3711C21.5522 12.8758 21.4886 12.3804 21.4153 11.8863C21.3191 11.2356 21.216 10.5848 21.0911 9.93853C21.0096 9.51704 20.8797 9.10386 20.6269 8.74687C20.3543 8.36178 19.9594 8.22895 19.5053 8.22895C19.2519 8.22895 18.9983 8.22903 18.7449 8.22911H18.7447C17.7309 8.22941 16.7172 8.22972 15.7039 8.22512C15.0765 8.22226 14.4491 8.21687 13.8217 8.21148C12.9065 8.20361 11.9913 8.19574 11.0758 8.19574C9.40592 8.19574 7.73669 8.20979 6.06682 8.22704C5.68088 8.23087 5.29494 8.26663 4.91028 8.30495C4.75997 8.32027 4.60904 8.37009 4.46893 8.42884C4.29825 8.50036 4.23201 8.66449 4.23711 8.83372C4.24115 8.97717 4.26032 9.12012 4.27949 9.26303C4.29053 9.34534 4.30156 9.42763 4.30971 9.51002C4.31785 9.59294 4.32317 9.67608 4.32849 9.75917C4.33608 9.87765 4.34366 9.99602 4.35938 10.1135C4.40381 10.4507 4.45425 10.7871 4.50466 11.1233L4.50468 11.1234L4.50481 11.1243C4.51793 11.2118 4.53107 11.2994 4.54408 11.3869C4.55049 11.4305 4.55911 11.474 4.56773 11.5174C4.57879 11.5731 4.58986 11.6288 4.5963 11.6851C4.66635 12.2969 4.73577 12.9094 4.80264 13.5212C4.83445 13.8141 4.86454 14.1072 4.89462 14.4003C4.9561 14.9993 5.01758 15.5982 5.09369 16.195C5.12469 16.4378 5.1595 16.6802 5.19626 16.9223C5.07459 16.8885 4.9555 16.8481 4.83793 16.8011C4.79559 16.4434 4.75343 16.0857 4.71173 15.728C4.69132 15.5531 4.67058 15.3781 4.64985 15.2032L4.6498 15.2029L4.64979 15.2028C4.59812 14.7669 4.54646 14.331 4.49966 13.8945C4.46701 13.5899 4.43729 13.2851 4.40758 12.9802C4.37238 12.6191 4.33719 12.2581 4.29713 11.8976C4.278 11.7238 4.24786 11.5514 4.21772 11.379C4.19869 11.2701 4.17966 11.1613 4.16339 11.052C4.07741 10.4696 3.99207 9.88721 3.91501 9.30416C3.89881 9.18168 3.89586 9.05739 3.8929 8.93315C3.89156 8.87666 3.89022 8.82018 3.88763 8.76389C3.87998 8.59785 3.80292 8.54421 3.68829 8.65213C3.65 8.68825 3.61145 8.72429 3.57283 8.76038L3.57273 8.76048C3.32873 8.98852 3.08246 9.2187 2.88838 9.48553C2.62054 9.85321 2.37511 10.2373 2.12971 10.6214C2.00984 10.809 1.88997 10.9966 1.7675 11.1823C1.69396 11.2939 1.61722 11.4035 1.54056 11.513C1.41672 11.6898 1.29299 11.8665 1.18285 12.0515C1.0648 12.25 0.962134 12.4579 0.859506 12.6658C0.813213 12.7595 0.766921 12.8533 0.719214 12.9462C0.709377 12.9647 0.698213 12.9816 0.678777 13.011L0.678724 13.0111L0.678659 13.0112C0.667918 13.0275 0.654653 13.0476 0.637695 13.0739L0.959001 16.6627C0.932305 16.7818 0.948486 16.9056 0.991588 17.0267L1.06885 17.8897C1.10261 17.9191 1.13827 17.9625 1.14528 18.004C1.19127 18.2843 1.23503 18.5651 1.27878 18.8458C1.31925 19.1053 1.35971 19.3649 1.40194 19.6242C1.4649 20.0106 1.53064 20.3966 1.59637 20.7826L1.59639 20.7827L1.59652 20.7835C1.62514 20.9516 1.65377 21.1197 1.68216 21.2878C1.71305 21.4708 1.7436 21.6539 1.77414 21.837C1.85189 22.3031 1.92965 22.7694 2.01333 23.2343L2.01521 23.2448C2.09802 23.7056 2.18103 24.1675 2.29228 24.622C2.4222 25.1527 2.57186 25.6789 2.73553 26.2C2.7943 26.3866 2.88561 26.564 2.97637 26.7403L2.97642 26.7404C2.99777 26.7819 3.0191 26.8233 3.03996 26.8648C3.08836 26.9619 3.21637 26.9657 3.27623 26.8788C3.30964 26.8304 3.34305 26.7819 3.37645 26.7334L3.37796 26.7312L3.37813 26.731C3.64735 26.3405 3.91634 25.9502 4.17931 25.555C4.40052 25.2225 4.61522 24.886 4.82983 24.5497L4.82989 24.5496C4.87413 24.4802 4.91837 24.4109 4.96266 24.3416C5.0659 24.18 5.16809 24.0178 5.27025 23.8556C5.37922 23.6827 5.48814 23.5098 5.59825 23.3377C5.61578 23.3102 5.63759 23.2854 5.65942 23.2607C5.67963 23.2377 5.69986 23.2147 5.71671 23.1896C5.78613 23.0861 5.81925 22.9814 5.79504 22.8466C5.75171 22.6053 5.71587 22.3624 5.68003 22.1196C5.65319 21.9377 5.62634 21.7558 5.59634 21.5745C5.56101 21.361 5.5225 21.1479 5.48399 20.9348C5.44337 20.71 5.40273 20.4851 5.36579 20.2596C5.3266 20.0193 5.29111 19.7786 5.25563 19.5379C5.23884 19.424 5.22204 19.3101 5.20486 19.1963C5.31811 19.2078 5.43209 19.2168 5.54678 19.2231C5.57303 19.4102 5.6003 19.5972 5.63121 19.7834C5.66929 20.0109 5.71392 20.2375 5.75856 20.4642C5.79976 20.6734 5.84097 20.8826 5.87704 21.0926C5.91797 21.3312 5.9527 21.5709 5.98743 21.8107C6.01052 21.9701 6.03362 22.1296 6.05855 22.2887C6.08338 22.4458 6.11586 22.6016 6.15216 22.7568C6.17955 22.8743 6.2547 22.9292 6.3808 22.9363C6.6395 22.9507 6.89838 22.9635 7.15721 22.9763H7.15774C7.85131 23.0106 8.54479 23.0449 9.23524 23.11C10.2603 23.2076 11.2866 23.2064 12.2784 23.2053C12.9151 23.2046 13.5377 23.2039 14.1366 23.2294C14.6703 23.2218 15.1883 23.2147 15.6957 23.2078H15.6959ZM7.60535 15.7445C7.64247 15.9887 7.6796 16.233 7.7166 16.4772C7.74691 16.4178 7.78121 16.3602 7.82196 16.3065C7.86074 16.2563 7.89941 16.2054 7.93824 16.1542L7.9384 16.154C8.16236 15.8589 8.39198 15.5564 8.68264 15.3403C8.73376 15.3024 8.78398 15.2681 8.83358 15.2375L8.75785 14.126L8.7604 14.1222L8.76249 14.1191C8.7647 14.1159 8.76662 14.1131 8.76829 14.1107C8.77135 14.1062 8.77361 14.103 8.77548 14.1001C8.77663 14.0983 8.77763 14.0966 8.77859 14.0949C8.79079 14.0723 8.80271 14.0494 8.81457 14.0266L8.8146 14.0265C8.84096 13.9758 8.86732 13.9251 8.89742 13.8768C8.92551 13.8317 8.95694 13.7888 8.98836 13.7458C9.0078 13.7192 9.02724 13.6927 9.04592 13.6656C9.09175 13.5991 9.10252 13.5639 9.1128 13.5302C9.1238 13.4943 9.13425 13.4601 9.18647 13.3914C9.23564 13.3267 9.2975 13.2712 9.35876 13.2163L9.37453 13.2021C9.37896 13.1981 9.38338 13.1942 9.38778 13.1902C9.41657 13.1642 9.43527 13.1778 9.43628 13.2188C9.43663 13.2327 9.43666 13.2466 9.4367 13.2605C9.43678 13.2912 9.43686 13.3218 9.44021 13.3521C9.45614 13.4962 9.47411 13.6402 9.49224 13.7843C9.49566 13.8111 9.49978 13.8381 9.50387 13.8649L9.5039 13.8651L9.50392 13.8651L9.50393 13.8652C9.51045 13.9078 9.51697 13.9505 9.52076 13.9934C9.52874 14.0824 9.53552 14.1716 9.5423 14.2608L9.54231 14.2609C9.54803 14.3362 9.55376 14.4115 9.56021 14.4867C9.56945 14.5945 9.57991 14.7023 9.59035 14.81C9.59455 14.8533 9.59874 14.8965 9.60286 14.9398C9.60698 14.9831 9.61112 15.0264 9.61528 15.0697C9.65074 15.0768 9.68663 15.0858 9.72305 15.0968L9.59652 13.8237C9.47228 13.0245 9.54091 12.8705 10.2201 12.7133L10.5456 12.6799C10.5622 12.6634 10.5793 12.647 10.5969 12.6308C10.8807 12.3694 11.2202 12.2919 11.6039 12.3943C11.648 12.406 11.6904 12.419 11.7312 12.4332C11.9239 12.3182 12.0755 12.1615 12.1319 11.9993C12.2344 11.7046 12.6509 11.4282 13.0578 11.3865L14.349 11.2539C14.7559 11.2122 15.2363 11.3947 15.4152 11.6623C15.4968 11.7823 15.638 11.8971 15.8058 11.9831C15.9291 11.939 16.0621 11.9173 16.2032 11.9188C16.5045 11.9219 16.781 11.9989 17.0181 12.1521L17.4434 12.1723C17.5181 12.1669 17.5857 12.1608 17.6466 12.1553C18.1016 12.1144 18.1942 12.1061 18.2056 12.6415L18.557 16.0656L18.5551 16.0658C18.5616 16.1223 18.5681 16.1742 18.574 16.222L18.574 16.2222L18.574 16.2223C18.6048 16.4707 18.6218 16.6076 18.5633 16.6926C18.4916 16.7968 18.3064 16.823 17.8942 16.8813L17.8912 16.8817L16.9421 16.9791C16.9305 17.0417 16.9181 17.104 16.9047 17.1661L18.5525 16.9988C18.6262 16.9914 18.6715 17.0773 18.6237 17.1338L18.1816 17.657C18.1542 17.6894 18.1153 17.7099 18.0731 17.7144L16.6893 17.8605C16.6792 17.8839 16.6687 17.9071 16.6578 17.9302C16.4147 18.4488 16.0314 18.8233 15.4967 19.0599C15.0817 19.2426 14.6529 19.3122 14.0837 19.387C14.0015 19.3732 13.9079 19.3615 13.8072 19.3489L13.8071 19.3488C13.5552 19.3173 13.2579 19.2802 12.9782 19.1896C12.6731 19.0905 12.4038 18.9433 12.1816 18.743C12.1683 18.7701 12.1637 18.7974 12.1698 18.8252C12.259 19.2322 12.2602 19.4579 11.9889 19.594C11.7497 19.7141 11.3592 19.7689 11.0467 19.8127L10.994 19.8201C9.97763 19.9637 9.20426 19.7749 8.12919 19.2479L8.10686 19.2435L8.11315 19.2922C8.15734 19.634 8.2015 19.9757 8.25 20.3167C8.25964 20.3848 8.28256 20.4508 8.30545 20.5167C8.31583 20.5466 8.32621 20.5765 8.33534 20.6066C8.39776 20.8122 8.53341 20.901 8.74994 20.9023C9.1268 20.9045 9.50356 20.9099 9.88027 20.9153L9.88042 20.9153C10.4739 20.9238 11.0671 20.9324 11.6604 20.9285L11.8999 20.9268C12.8114 20.9208 13.7245 20.9148 14.6327 20.8531C16.0669 20.756 17.5011 20.7043 18.9379 20.7011C19.1633 20.7005 19.4022 20.6532 19.5378 20.4374C19.599 20.3397 19.6404 20.2107 19.6397 20.0957C19.6378 19.703 19.6187 19.3102 19.5945 18.9187C19.5639 18.4308 19.5257 17.9436 19.4831 17.4563C19.4175 16.7104 19.348 15.9651 19.2767 15.2199C19.2434 14.8695 19.2084 14.5193 19.1733 14.169L19.1733 14.1689C19.1459 13.8956 19.1185 13.6222 19.092 13.3487C19.0737 13.159 19.0567 12.969 19.0396 12.7789C19.0041 12.3817 18.9685 11.9843 18.9207 11.5887C18.8857 11.3007 18.8245 11.0114 18.65 10.7649C18.4991 10.5516 18.317 10.4079 18.0335 10.4085C16.6976 10.4124 15.3616 10.4119 14.0256 10.4114C13.5803 10.4113 13.1349 10.4111 12.6896 10.4111V10.4092C12.2797 10.4092 11.8697 10.4093 11.4598 10.4094H11.4596C10.0934 10.4097 8.72727 10.4101 7.36157 10.4066C7.19153 10.406 7.09282 10.452 7.03231 10.6276C6.91704 10.9609 6.91768 11.2962 6.96863 11.6347C7.0104 11.911 7.05704 12.1863 7.10368 12.4616L7.10381 12.4624C7.14316 12.6947 7.18251 12.9269 7.21892 13.1597C7.27995 13.5517 7.3372 13.9443 7.39443 14.3369L7.39446 14.3371L7.39455 14.3377C7.41849 14.5019 7.44244 14.6662 7.46666 14.8303L7.48576 14.9568C7.5255 15.2192 7.56538 15.4816 7.60527 15.744L7.60535 15.7445ZM7.78353 16.9201C7.80753 17.0793 7.83144 17.2385 7.85524 17.3978C8.21471 17.5755 8.37533 17.9134 8.29134 18.3325C8.27749 18.4028 8.23413 18.4723 8.18915 18.5307C8.11339 18.6296 8.12872 18.7103 8.22558 18.7725C8.25678 18.7926 8.28787 18.8132 8.319 18.8339C8.43927 18.9137 8.56025 18.9939 8.69196 19.047C8.96021 19.1553 9.23558 19.2591 9.51801 19.3169C9.94396 19.4046 10.3778 19.4605 10.8108 19.5113C11.1128 19.5468 11.4117 19.5016 11.6997 19.3978C11.7009 19.3975 11.7021 19.3971 11.7033 19.3968L11.7034 19.3968L11.7035 19.3967C11.7074 19.3957 11.7113 19.3946 11.7136 19.3924C11.7347 19.3686 11.7613 19.3445 11.788 19.3204C11.8482 19.2658 11.9087 19.2111 11.9062 19.1597C11.8999 19.0314 11.7514 19.0122 11.6349 18.9986C11.4954 18.9823 11.3558 18.9665 11.2161 18.9507L11.2151 18.9506L11.2141 18.9504L11.2137 18.9504L11.2135 18.9504L11.213 18.9503L11.2128 18.9503C10.9506 18.9206 10.6883 18.8909 10.4265 18.858C10.3591 18.8493 10.2823 18.823 10.2347 18.7786C10.1983 18.7448 10.1755 18.6965 10.1527 18.6482L10.1527 18.648C10.1425 18.6266 10.1324 18.6051 10.1211 18.5849C10.1445 18.5743 10.1685 18.5599 10.1925 18.5455C10.2441 18.5145 10.2958 18.4834 10.3422 18.4901C10.9523 18.5784 11.5448 18.4593 12.1338 18.3368C12.3195 18.2978 12.4968 18.1931 12.6622 18.0923C12.7684 18.0274 12.8491 17.9119 12.7966 17.7697C12.7447 17.6287 12.6098 17.6044 12.4848 17.6034C12.3755 17.6027 12.266 17.6202 12.1569 17.6376C12.1472 17.6391 12.1375 17.6407 12.1278 17.6422L12.1136 17.6445C12.1077 17.6454 12.1018 17.6463 12.0959 17.6472C11.5923 17.7247 11.0875 17.7381 10.5807 17.6769C10.5281 17.6706 10.4752 17.6664 10.4223 17.6621C10.3403 17.6556 10.2583 17.6491 10.1775 17.6347C10.0856 17.6184 9.97285 17.5918 9.98767 17.4634C10.0011 17.3491 10.0831 17.2956 10.2011 17.2929C10.6057 17.2827 11.002 17.2127 11.378 17.0667L11.409 17.0547C11.6734 16.9523 11.9422 16.8482 12.1447 16.6333L12.146 16.6319C12.2225 16.5502 12.3054 16.4616 12.247 16.3418C12.1856 16.2156 12.0701 16.1703 11.9303 16.1922C11.7926 16.2138 11.655 16.2364 11.5173 16.259L11.5169 16.2591L11.5166 16.2591C11.2036 16.3105 10.8905 16.362 10.5763 16.4013C10.2819 16.438 9.98507 16.4546 9.68842 16.4713L9.68819 16.4713C9.63439 16.4743 9.5806 16.4773 9.52682 16.4805C9.47074 16.4839 9.40692 16.4583 9.3565 16.4299C9.21216 16.3474 9.21608 16.2419 9.34513 16.1352C9.47574 16.0274 9.59918 15.909 9.7168 15.7863C9.80143 15.6978 9.85967 15.5739 9.75748 15.4783C9.69388 15.4189 9.56642 15.3837 9.47992 15.4007C9.1384 15.4669 8.87282 15.6853 8.61704 15.9027C8.46733 16.0299 8.32902 16.1707 8.1795 16.323L8.17941 16.3231L8.1792 16.3233L8.17882 16.3237C8.11185 16.3919 8.04261 16.4624 7.96907 16.535C7.91226 16.6524 7.84903 16.7838 7.78353 16.9201ZM26.8083 6.80229C26.793 7.51945 26.6656 8.0776 26.3892 8.60701C26.1733 9.02147 25.8224 9.2105 25.3932 9.28139C25.27 9.30168 25.1441 9.30512 25.0182 9.30856C24.9102 9.31151 24.8022 9.31445 24.6958 9.32801C24.2354 9.38676 23.8405 9.19773 23.4998 8.94548C22.968 8.55273 22.7553 7.98309 22.8209 7.32276C22.8489 7.03857 23.0546 6.90255 23.3425 6.89999C23.5917 6.89764 23.782 7.0187 23.9737 7.14059L23.9943 7.15373C24.004 7.15985 24.0136 7.16596 24.0233 7.17204C24.1475 7.24996 24.2061 7.47475 24.1475 7.58714C24.0704 7.73403 23.9335 7.72189 23.7991 7.70146C23.7605 7.6955 23.7221 7.68723 23.6837 7.67897C23.6233 7.66597 23.5631 7.65299 23.5023 7.64909C23.4157 7.64334 23.3202 7.64462 23.2418 7.67527C23.1177 7.72381 23.1094 7.81066 23.2329 7.86111L23.2656 7.87443C23.4733 7.9593 23.6889 8.04736 23.9074 8.06738C24.2526 8.09868 24.4716 7.87197 24.5035 7.52201C24.5063 7.49122 24.5051 7.45987 24.5038 7.42858C24.5023 7.39042 24.5007 7.35228 24.5067 7.31509C24.5143 7.26939 24.5319 7.22496 24.5494 7.18068C24.5567 7.16248 24.5638 7.1443 24.5703 7.12606C24.5931 7.13597 24.619 7.14383 24.6448 7.15168C24.7006 7.16864 24.7563 7.1856 24.7811 7.22313C24.8913 7.38917 25.0429 7.42557 25.2212 7.41919C25.2422 7.41855 25.2634 7.41632 25.2846 7.41408C25.3058 7.41184 25.3269 7.40961 25.348 7.40897C25.6944 7.39556 26.1014 7.02516 26.1472 6.68031C26.167 6.53343 26.0976 6.4255 25.9587 6.39357C25.8186 6.36164 25.7447 6.43444 25.69 6.55642C25.6428 6.66115 25.5836 6.76205 25.5167 6.85593C25.4454 6.95555 25.334 7.04049 25.2199 6.97088C25.1467 6.92618 25.0907 6.80612 25.0805 6.71416C25.0448 6.3891 25.1244 6.09023 25.297 5.80477C25.4416 5.56593 25.6237 5.43373 25.902 5.4778C26.1912 5.52378 26.4077 5.69493 26.5567 5.93952C26.7382 6.24158 26.844 6.56728 26.8083 6.80229ZM22.0203 16.7161C22.0136 16.6779 22.0073 16.6439 22.0015 16.6127C21.9901 16.5521 21.9808 16.5019 21.9745 16.4518C21.9525 16.2728 21.9312 16.0937 21.9099 15.9146L21.9099 15.9143L21.9096 15.9123C21.8884 15.7336 21.8671 15.5549 21.8452 15.3763C21.8261 15.2212 21.8133 15.0717 21.9324 14.9408C21.9761 14.8928 22.0114 14.8372 22.0467 14.7815L22.0468 14.7814C22.0655 14.7518 22.0843 14.7222 22.1044 14.6937C22.7253 13.8105 23.2024 12.8468 23.6405 11.8652C23.9188 11.2419 24.1691 10.602 24.2583 9.9149C24.2691 9.83124 24.3003 9.76482 24.4054 9.75971C24.5386 9.75293 24.6715 9.74334 24.8044 9.73375C24.9091 9.7262 25.0137 9.71865 25.1187 9.71246C25.2677 9.70352 25.3225 9.77185 25.2887 9.91937L25.2787 9.96316L25.2786 9.96358L25.2786 9.96367C25.2547 10.0679 25.2307 10.1726 25.1989 10.2744C25.1608 10.3959 25.1229 10.5176 25.0851 10.6393L25.0847 10.6404L25.0843 10.6417C24.9589 11.045 24.8334 11.4486 24.6952 11.8473C24.55 12.2669 24.3914 12.6839 24.2124 13.0901C24.0953 13.3562 23.9571 13.6127 23.8189 13.8691L23.8189 13.8692C23.779 13.9432 23.7391 14.0172 23.6997 14.0914C23.641 14.2024 23.5827 14.3137 23.5245 14.425L23.5239 14.4259L23.5237 14.4263C23.3367 14.7836 23.1496 15.1411 22.9444 15.4875C22.7688 15.7835 22.5703 16.0662 22.3719 16.3488C22.3178 16.4258 22.2637 16.5028 22.2101 16.5801C22.1871 16.6137 22.1488 16.6366 22.1012 16.665L22.1011 16.6651C22.0764 16.6799 22.0492 16.6961 22.0203 16.7161ZM24.1239 6.21412C24.117 6.2119 24.1101 6.20981 24.1032 6.20772L24.0983 6.20622L24.093 6.2046C24.0875 6.20292 24.0821 6.20121 24.0768 6.19943C24.0958 6.13978 24.1137 6.07967 24.1316 6.01956C24.1729 5.88082 24.2142 5.74213 24.2697 5.60935C24.3576 5.39861 24.5334 5.29515 24.7633 5.3124C24.827 5.31751 24.9187 5.35263 24.941 5.40116C24.9627 5.44842 24.9295 5.54166 24.8913 5.59339C24.7589 5.77412 24.6328 5.95165 24.6181 6.18858C24.6105 6.31438 24.5856 6.44147 24.55 6.56217C24.5334 6.61836 24.4786 6.68797 24.4277 6.70266C24.3761 6.71799 24.2965 6.68734 24.2475 6.65157C24.1075 6.54931 24.115 6.39723 24.1223 6.24738L24.1223 6.24706L24.1224 6.24673L24.1224 6.24639L24.1224 6.24607C24.1229 6.2354 24.1234 6.22475 24.1239 6.21412ZM23.1065 6.00384L23.1024 6.00274C23.1188 5.94175 23.1344 5.88051 23.1501 5.81934L23.1502 5.81898C23.1904 5.66189 23.2306 5.50496 23.2832 5.35199C23.3081 5.27919 23.3832 5.19042 23.4507 5.17382C23.5475 5.15019 23.6743 5.15849 23.7603 5.20511C23.8619 5.25979 23.8293 5.35767 23.7976 5.45295C23.7938 5.46449 23.7899 5.47599 23.7864 5.48738C23.7252 5.68152 23.68 5.88076 23.6373 6.08001C23.6298 6.11491 23.632 6.15197 23.6342 6.189C23.6365 6.22717 23.6387 6.26531 23.6303 6.30097C23.6176 6.35462 23.5794 6.4255 23.5342 6.44338C23.3393 6.52066 23.1731 6.41209 23.1495 6.20263C23.1454 6.16239 23.1437 6.12162 23.1419 6.08084C23.141 6.05819 23.14 6.03553 23.1387 6.01296C23.1326 6.01137 23.1266 6.00961 23.1206 6.00786C23.1175 6.00699 23.1145 6.0061 23.1115 6.00524L23.1101 6.00484L23.1065 6.00384ZM12.6296 18.4091C12.8911 18.662 13.2266 18.7827 13.592 18.8364C13.6369 18.8431 13.6819 18.8509 13.7269 18.8588L13.7271 18.8588C13.8391 18.8783 13.9514 18.8979 14.0639 18.8998C14.5261 18.9074 14.9691 18.791 15.3737 18.5839C15.6762 18.4294 15.9137 18.2056 16.0766 17.9252L12.8501 18.2659C12.7843 18.3154 12.7075 18.3629 12.6296 18.4091ZM12.9555 17.567L16.3201 17.2254C16.3334 17.1635 16.3458 17.1013 16.3579 17.0391L12.7968 17.4046C12.8576 17.4487 12.9128 17.5013 12.9555 17.567ZM17.7305 12.7141C17.7468 12.8731 17.5809 13.0229 17.3626 13.0453L16.9557 13.0871C16.7374 13.1095 16.5445 12.9965 16.5282 12.8375C16.5118 12.6784 16.6778 12.5286 16.896 12.5062L17.303 12.4644C17.5211 12.4402 17.714 12.5531 17.7305 12.7141ZM11.8492 12.8929C12.1098 12.8642 12.3459 13.0272 12.4217 13.2679C12.7637 12.8645 13.256 12.5876 13.8237 12.5293C14.9897 12.4096 16.032 13.2579 16.1517 14.4241C16.2714 15.5902 15.4232 16.6325 14.2571 16.7522C13.0911 16.8719 12.0488 16.0235 11.9291 14.8574C11.8969 14.5439 11.9347 14.2393 12.0299 13.9592C12.0073 13.9645 11.9841 13.9685 11.9604 13.9709C11.6632 14.0014 11.3966 13.7844 11.3661 13.4872C11.3356 13.1901 11.5523 12.9236 11.8492 12.8929ZM5.92687 18.8517C5.82595 18.8461 5.72547 18.8406 5.62547 18.837C4.80569 18.7418 2.90466 18.3304 1.85883 17.4458C0.813008 16.5613 2.20765 16.3065 2.78784 16.2311C3.04855 16.3144 3.37222 16.4651 3.73247 16.6328C4.60233 17.0377 5.68544 17.5418 6.61048 17.4368L6.73757 17.4377C6.78492 17.4347 6.83309 17.4299 6.88171 17.425C7.1455 17.3986 7.42242 17.3709 7.65339 17.6265C7.67979 17.6557 7.7065 17.6828 7.73225 17.7088C7.92162 17.9006 8.05903 18.0397 7.64138 18.606C7.06037 18.9145 6.48684 18.8827 5.92687 18.8517Z" fill="#09090A"/>
<path fill-rule="evenodd" clip-rule="evenodd" d="M20.9055 37.9979H13.9083L13.9089 37.9992C11.592 37.9992 9.27566 37.9992 6.95874 37.9986L6.94438 37.9986C6.85358 37.9986 6.76232 37.9986 6.67279 37.9877C6.48937 37.966 6.41231 37.8657 6.43842 37.6805C6.45274 37.5802 6.46505 37.4793 6.47736 37.3784C6.5094 37.1156 6.54147 36.8526 6.6091 36.5993C6.74348 36.0987 6.88423 35.591 7.10586 35.1261C7.26238 34.7966 7.48887 34.4991 7.71363 34.2039L7.71373 34.2038C7.76602 34.1351 7.81826 34.0665 7.86946 33.9976C7.98282 33.8456 8.08791 33.7032 8.1102 33.5091C8.13639 33.2796 8.16431 33.0502 8.19222 32.8209L8.19225 32.8207C8.2322 32.4925 8.27213 32.1644 8.30699 31.8359C8.35808 31.3519 8.40416 30.8673 8.45024 30.3827L8.45025 30.3825C8.47195 30.1543 8.49366 29.926 8.51588 29.6978L8.52121 29.643C8.55828 29.2608 8.59541 28.8781 8.6337 28.496C8.63735 28.4589 8.64043 28.4217 8.64352 28.3845C8.65229 28.2788 8.66107 28.173 8.68274 28.07C8.73114 27.8356 8.6751 27.7609 8.43182 27.7635C6.99059 27.7769 5.54872 27.7897 4.10686 27.8024L4.09541 27.8026H4.09531C4.06173 27.8033 4.02853 27.8039 3.9954 27.7999C3.7241 27.7673 3.59927 27.5483 3.74321 27.3228C3.84333 27.1654 3.95184 27.0136 4.06034 26.8619C4.15474 26.7298 4.24915 26.5978 4.33804 26.462C4.65392 25.9798 4.96153 25.4919 5.26914 25.004C5.3686 24.8462 5.46613 24.6871 5.56362 24.5281L5.56374 24.5279L5.56392 24.5276L5.564 24.5275C5.68175 24.3355 5.79949 24.1434 5.92065 23.9535C6.01427 23.8066 6.11681 23.6623 6.23526 23.5352C6.34697 23.4153 6.48318 23.4364 6.62098 23.4578C6.6623 23.4642 6.70377 23.4706 6.74476 23.4733C6.91067 23.484 7.07658 23.495 7.2425 23.5059L7.24348 23.506H7.24378C8.09197 23.5619 8.94039 23.6179 9.78962 23.6489C10.8748 23.6885 11.9613 23.7006 13.0478 23.7076C13.6827 23.7119 14.318 23.7026 14.9534 23.6934L14.9559 23.6933C15.1833 23.69 15.4106 23.6867 15.638 23.684C15.927 23.6805 16.2162 23.6757 16.5054 23.671C16.8998 23.6645 17.2944 23.6579 17.6887 23.6546C18.0576 23.6513 18.4266 23.6502 18.7957 23.6492C19.3491 23.6476 19.9026 23.6459 20.4559 23.6368C20.5488 23.6353 20.6421 23.6361 20.7355 23.637H20.736C21.0816 23.6403 21.4281 23.6435 21.764 23.5269C21.7933 23.5167 21.827 23.5148 21.8582 23.5161C21.9926 23.5212 22.034 23.5793 21.9646 23.6949C21.8449 23.8948 21.7162 24.0895 21.5812 24.2792C21.4779 24.4237 21.3714 24.5658 21.2648 24.708L21.2647 24.7081C21.1616 24.8456 21.0585 24.9831 20.9583 25.1228C20.8667 25.2507 20.7778 25.3806 20.6889 25.5105C20.5567 25.7037 20.4246 25.8969 20.2833 26.0833C20.1482 26.2607 20.0076 26.434 19.8671 26.6072C19.6703 26.8497 19.4736 27.0921 19.2923 27.3458C19.1573 27.5342 19.0121 27.5706 18.8096 27.5617C18.493 27.5476 18.1759 27.5432 17.8594 27.5476C17.6161 27.5508 17.5951 27.5796 17.5982 27.8184C17.6005 28.0019 17.6038 28.1855 17.6071 28.3691L17.6071 28.37C17.6133 28.712 17.6194 29.0542 17.6186 29.3964C17.6165 30.2781 17.6093 31.1602 17.6021 32.0421L17.6021 32.0434C17.6008 32.2029 17.5995 32.3623 17.5982 32.5218C17.5974 32.6015 17.5919 32.6813 17.5865 32.761L17.5865 32.7613C17.5836 32.8034 17.5807 32.8456 17.5785 32.8877C17.5714 33.0197 17.5643 33.1517 17.5573 33.2837C17.5371 33.6603 17.5169 34.0371 17.4957 34.414C17.4887 34.5417 17.5422 34.6145 17.6708 34.6337C17.739 34.6436 17.807 34.6557 17.8749 34.6679H17.875C18.0004 34.6903 18.1257 34.7127 18.2517 34.7205C18.7548 34.7518 19.2382 34.8738 19.6993 35.0622C20.1896 35.2621 20.582 35.5878 20.8405 36.0719C21.087 36.5336 21.2182 37.0279 21.3061 37.5349C21.3672 37.8906 21.257 37.9979 20.9055 37.9979ZM14.0305 36.6849C14.0222 36.6852 14.0141 36.6857 14.006 36.6862C13.9979 36.6867 13.9898 36.6872 13.9815 36.6875C13.9714 36.6712 13.961 36.655 13.9507 36.6388L13.9505 36.6386L13.9414 36.6243L13.9367 36.6169L13.9318 36.6092C13.9238 36.5966 13.9159 36.584 13.9082 36.5713C13.8771 36.5195 13.847 36.4669 13.8169 36.4143C13.7523 36.3013 13.6877 36.1883 13.6121 36.0834C13.3179 35.6727 12.9536 35.3381 12.4906 35.1267C12.0002 34.9032 11.4843 34.771 10.9474 34.7167C10.7952 34.7014 10.6424 34.679 10.4927 34.6471C10.3857 34.6241 10.3354 34.5551 10.3628 34.4344C10.3746 34.3812 10.3866 34.3278 10.3985 34.2745L10.3985 34.2744C10.4618 33.9918 10.5252 33.7088 10.5723 33.4235C10.6819 32.7594 10.785 32.0939 10.8761 31.4272C10.9876 30.6123 11.0901 29.7962 11.1844 28.9794C11.2251 28.6262 11.2487 28.2705 11.255 27.9155C11.2595 27.6849 11.2786 27.637 11.5155 27.6345C11.685 27.6325 11.8545 27.6332 12.0239 27.634H12.0243C12.1832 27.6347 12.3421 27.6354 12.5008 27.6338C13.2898 27.6249 14.0789 27.6147 14.868 27.6019C15.0355 27.5994 15.11 27.66 15.1266 27.8293C15.1301 27.8674 15.1347 27.9055 15.1393 27.9436L15.1394 27.9438C15.1462 28.0005 15.1531 28.0572 15.1565 28.1141C15.1709 28.3501 15.1865 28.5861 15.202 28.8221L15.202 28.8225C15.2412 29.4183 15.2804 30.0142 15.3023 30.6111C15.3396 31.6257 15.3526 32.6415 15.3657 33.6567V33.657L15.3667 33.7339C15.3679 33.8399 15.3119 33.9574 15.2539 34.0526C15.171 34.1881 15.0818 34.3203 14.9925 34.4525L14.9925 34.4526L14.9924 34.4527C14.8294 34.6941 14.6666 34.9353 14.5432 35.1957C14.4091 35.4779 14.3177 35.7807 14.2264 36.0835L14.2264 36.0836C14.1859 36.2178 14.1454 36.352 14.1012 36.4844C14.087 36.5257 14.0722 36.5672 14.0575 36.6088L14.0574 36.609L14.0395 36.6594C14.0365 36.6679 14.0335 36.6764 14.0305 36.6849ZM10.8131 28.3472H10.8029C10.7999 28.3924 10.7976 28.4377 10.7953 28.483C10.7905 28.5812 10.7856 28.6793 10.7729 28.7763C10.6768 29.5126 10.5806 30.249 10.4755 30.984C10.4021 31.5003 10.3189 32.0154 10.2358 32.5304L10.2007 32.7478C10.109 33.3175 10.0173 33.887 9.91126 34.4542C9.89151 34.559 9.80936 34.6663 9.72784 34.7423C9.53168 34.9268 9.0534 34.9837 8.82604 34.8406C8.64135 34.7244 8.47576 34.5743 8.50314 34.3163C8.5248 34.1119 8.54581 33.9076 8.56619 33.7032C8.58627 33.4961 8.60607 33.2889 8.62586 33.0817L8.62595 33.0807C8.66514 32.6704 8.70434 32.2601 8.74579 31.85C8.78722 31.4369 8.82993 31.024 8.87264 30.611C8.92053 30.148 8.96843 29.6849 9.01455 29.2214C9.03773 28.9887 9.05781 28.7557 9.07789 28.5228L9.07793 28.5223C9.09425 28.333 9.11057 28.1436 9.12855 27.9544C9.13869 27.848 9.15207 27.7419 9.16543 27.6358L9.16548 27.6355C9.17727 27.5419 9.18906 27.4484 9.1986 27.3548C9.21252 27.2196 9.22482 27.0843 9.23711 26.9489L9.23719 26.9481C9.26427 26.6502 9.29133 26.3525 9.33553 26.0571C9.35909 25.8987 9.43934 25.7314 9.53933 25.605C9.78898 25.2895 10.3883 25.2831 10.601 25.5864C10.7748 25.8342 10.8659 26.1261 10.8704 26.4237C10.874 26.6811 10.8575 26.9388 10.8411 27.1965C10.8315 27.3468 10.8219 27.497 10.8162 27.6472C10.809 27.8133 10.8104 27.9791 10.8119 28.1448V28.1451C10.8125 28.2124 10.8131 28.2798 10.8131 28.3472ZM17.1613 29.8479C17.1648 29.8479 17.1682 29.8479 17.1716 29.848L17.1772 29.8481L17.1946 29.8484L17.1996 29.8485L17.2026 29.8485L17.2061 29.8485L17.211 29.8486C17.2033 30.1247 17.1956 30.4008 17.188 30.6769L17.1878 30.6827L17.1878 30.6841C17.1646 31.5206 17.1414 32.357 17.1161 33.193C17.1108 33.3721 17.1023 33.551 17.0939 33.7299L17.0938 33.731C17.0843 33.9339 17.0747 34.1368 17.0696 34.3399C17.0639 34.5666 16.9493 34.6944 16.7442 34.755C16.5487 34.8125 16.3532 34.8074 16.1723 34.7091C15.9876 34.6088 15.8214 34.4836 15.8144 34.2435C15.8016 33.7887 15.7898 33.3339 15.7779 32.8791L15.7775 32.8649C15.7494 31.7845 15.7213 30.704 15.6806 29.6238C15.665 29.2084 15.6279 28.794 15.5908 28.3797L15.5908 28.3794C15.5673 28.1173 15.5439 27.8552 15.5259 27.593C15.5163 27.4531 15.5034 27.3133 15.4905 27.1736L15.4904 27.1721C15.4503 26.7369 15.4103 26.3018 15.4686 25.8623C15.5144 25.5156 15.7118 25.3355 16.0628 25.3533C16.3665 25.3687 16.5684 25.5666 16.7149 25.7851C16.9244 26.098 17.0442 26.462 17.0875 26.8413L17.0926 26.8861C17.1229 27.1498 17.1533 27.4151 17.1569 27.6798C17.1648 28.2069 17.1635 28.7339 17.1623 29.2608V29.2627C17.1618 29.4578 17.1613 29.6529 17.1613 29.8479Z" fill="#09090A"/>
<path d="M21.0337 4.4148L20.8995 4.94095C20.586 4.7718 20.3829 4.50775 20.1853 4.25076C19.9925 4.00007 19.8049 3.7561 19.525 3.61353C19.7411 3.2684 19.8655 3.22008 20.124 3.46215C20.3528 3.67376 20.5673 3.90776 20.79 4.15068L20.7901 4.15076L20.7905 4.15118C20.8702 4.23811 20.9509 4.32619 21.0337 4.4148Z" fill="#09090A"/>
<path d="M27.4691 2.96181L27.4691 2.96193L27.469 2.96204C27.3933 3.10192 27.3175 3.24186 27.2398 3.37662C27.1747 3.48341 27.0607 3.58522 26.9596 3.65876C26.9058 3.70261 26.7735 3.69403 26.7233 3.65442C26.6731 3.61477 26.647 3.48391 26.6725 3.42733C26.8651 3.03763 27.0576 2.64794 27.2643 2.26461C27.3549 2.10124 27.5049 2.03268 27.6824 2.12967C27.8741 2.23303 27.7835 2.3964 27.6993 2.54563C27.6212 2.68093 27.5452 2.82137 27.4691 2.96181Z" fill="#09090A"/>
<path d="M30.2412 5.75597C29.9951 5.9314 29.7484 6.09182 29.4956 6.25617C29.4429 6.29042 29.3899 6.32484 29.3367 6.3596C29.2731 6.4066 29.1656 6.45572 29.0884 6.44844C29.0223 6.44431 28.9645 6.41048 28.9067 6.37665C28.8779 6.35974 28.849 6.34282 28.8191 6.32962C28.8311 6.3023 28.841 6.27306 28.8508 6.24426C28.8731 6.17841 28.8947 6.11492 28.9389 6.08222C29.0606 5.98292 29.188 5.88885 29.3153 5.79478C29.4425 5.7009 29.5697 5.60696 29.6911 5.50788C29.7205 5.48464 29.7463 5.45812 29.7715 5.43229C29.8096 5.39311 29.8461 5.35553 29.8914 5.33348C30.0186 5.23948 30.17 5.18828 30.2869 5.33643C30.4132 5.45113 30.3758 5.58476 30.2412 5.75597Z" fill="#09090A"/>
</svg>
