<svg width="63" height="146" viewBox="0 0 63 146" fill="none" xmlns="http://www.w3.org/2000/svg">
<mask id="mask0" mask-type="alpha" maskUnits="userSpaceOnUse" x="-83" y="0" width="146" height="146">
<circle cx="-10" cy="73" r="73" fill="url(#paint0_linear)"/>
</mask>
<g mask="url(#mask0)">
<path d="M90.2328 11.1445C90.2328 11.9798 89.9734 12.784 89.5198 13.4854C89.3585 13.735 89.2082 13.9896 89.0856 14.2566C87.0934 18.6002 85.0686 22.9316 83.1825 27.3202C81.0923 32.1905 79.4594 37.2567 76.7487 41.8535C76.1363 42.8945 75.6546 44.0334 74.9443 45.001C73.4419 47.0462 72.6092 49.4467 71.3069 51.594C70.6496 52.6799 69.9883 53.7699 69.4127 54.8966C68.5513 56.5786 67.8083 58.3177 66.9347 59.9955C66.2325 61.3427 65.4038 62.6246 64.6485 63.9432C63.4565 66.0252 62.3338 68.1521 61.0724 70.1933C60.1497 71.6875 59.0516 73.0795 58.031 74.5125C57.2309 75.631 56.2797 76.672 55.6469 77.8804C53.8425 81.3137 52.1483 84.8001 50.45 88.2864C49.556 90.1194 48.8416 92.0463 47.8741 93.8344C46.8085 95.8061 45.5757 97.6881 44.3591 99.5701C42.1751 102.942 39.893 106.249 37.7457 109.645C34.9778 114.03 32.2508 118.447 29.6054 122.909C27.6377 126.228 25.8578 129.661 23.935 133.013C22.2163 136.005 20.6528 139.075 17.9747 141.451C16.7296 142.558 15.9744 144.231 15.064 145.689C13.3739 148.403 11.8716 151.249 10.0386 153.862C8.51994 156.029 6.59714 157.911 4.93153 159.985C4.27018 160.806 3.78846 161.786 3.29857 162.729C2.10652 165.043 1.14308 167.411 -1.01241 169.187C-2.44533 170.367 -3.61698 170.461 -5.18462 169.979C-5.87974 169.765 -6.47053 169.03 -6.3859 168.308C-6.3156 167.708 -6.3355 167.09 -6.26235 166.48C-6.1113 165.26 -5.44996 164.072 -4.86618 162.941C-3.53941 160.369 -2.43717 157.601 -0.685829 155.348C3.11486 150.449 6.06642 145.036 9.41397 139.863C10.6142 138.01 12.0757 136.311 13.4963 134.609C15.9172 131.711 17.4481 128.29 19.2403 125.02C20.3996 122.909 21.6978 120.868 22.9348 118.802C23.8411 117.288 24.7515 115.777 25.6741 114.275C26.7396 112.544 27.8582 110.842 28.891 109.09C30.3811 106.567 31.7813 103.995 33.2796 101.477C34.1818 99.9538 35.1329 98.4556 36.1699 97.0186C38.0763 94.3691 39.2562 91.3768 40.5788 88.4293C41.8076 85.7023 43.5304 83.1957 44.7674 80.4727C45.543 78.7663 46.6003 77.2109 47.3025 75.5249C48.1394 73.5082 49.3559 71.8018 50.5398 70.0259C52.234 67.4867 53.7935 64.8617 55.4264 62.2857C56.5573 60.4977 57.7248 58.7341 58.8475 56.9419C59.0639 56.599 59.1128 56.154 59.3047 55.7907C60.5621 53.3943 61.8603 51.0225 63.0972 48.6139C63.7831 47.2789 64.3056 45.8623 65.02 44.5437C65.665 43.3476 66.4938 42.2494 67.1919 41.0778C67.4531 40.6369 67.5266 40.0817 67.7716 39.6286C68.784 37.7343 69.8781 35.8769 70.8456 33.9581C71.3151 33.0314 71.5273 31.9823 71.9315 31.0188C72.6255 29.3736 73.4052 27.7611 74.0951 26.1159C74.7851 24.4666 75.3729 22.7724 76.0833 21.1354C76.4956 20.1801 77.2508 19.3391 77.5244 18.3594C78.3245 15.4609 79.8227 12.9135 81.374 10.4069C82.166 9.12504 83.3172 8.05137 84.395 6.97362C84.5217 6.8469 84.7833 6.85508 85.0721 6.92604C85.492 7.02924 85.874 7.0801 86.2639 6.89303C86.8037 6.63403 87.5126 6.69996 87.95 7.10877C88.3207 7.45528 88.6945 7.80491 89.0697 8.15642C89.8123 8.85211 90.2328 9.82466 90.2328 10.8423C90.2328 10.943 90.2328 11.0438 90.2328 11.1445Z" fill="url(#paint1_linear)"/>
<path d="M90.2336 52.4196C90.2336 53.2417 89.9732 54.0427 89.5062 54.7193C88.9151 55.576 88.3268 56.4362 87.6413 57.2117C85.5756 59.5427 84.3428 62.3024 83.0895 65.1029C82.1423 67.2217 80.8278 69.173 79.6807 71.2061C78.2029 73.8188 76.7413 76.4356 75.2594 79.0442C73.1407 82.7714 71.0587 86.5191 68.8624 90.1973C67.654 92.2181 66.1802 94.0755 64.9392 96.0759C62.9388 99.301 60.9385 102.534 59.1177 105.861C56.9949 109.744 55.0844 113.744 53.035 117.672C51.9654 119.721 50.7774 121.709 49.6956 123.754C48.8424 125.371 48.2055 127.118 47.2339 128.661C45.7929 130.948 44.115 133.083 42.5964 135.32C41.4043 137.079 40.0326 138.68 38.9794 140.574C36.5095 145.024 33.6396 149.249 30.9983 153.605C29.5368 156.013 28.1488 158.471 26.8425 160.965C25.6422 163.256 24.0215 165.199 22.2457 167.032C21.9423 167.345 21.492 167.513 21.0257 167.721C20.857 167.796 20.6645 167.64 20.6953 167.458C20.716 167.336 20.6308 167.232 20.5095 167.207C19.9288 167.087 19.3341 166.879 18.8165 166.995C18.7952 167 18.7741 167.005 18.753 167.011C18.1072 167.191 17.1358 166.904 17.4816 166.33C18.0939 165.309 17.7551 164.137 18.1347 163.17C19.1635 160.557 20.3964 158.022 21.5599 155.462C23.6174 150.927 26.4669 146.853 29.0102 142.603C30.9738 139.321 32.864 135.993 34.9296 132.776C36.9014 129.702 39.2284 126.841 41.09 123.705C43.0658 120.374 44.7069 116.847 46.442 113.377C48.7771 108.707 50.7897 103.877 53.68 99.4847C54.8353 97.7293 55.6355 95.7493 56.7051 93.9327C58.2074 91.3853 59.8525 88.9195 61.3549 86.368C62.6857 84.1105 63.8492 81.7508 65.1964 79.5055C67.8703 75.0476 70.6504 70.6549 73.3244 66.2011C74.3899 64.4293 75.386 62.6086 76.2515 60.7348C77.9293 57.0892 79.595 53.4845 82.3873 50.4717C83.8529 48.8918 84.951 46.9527 86.0982 45.1074C87.2902 43.1872 90.2319 43.9653 90.2327 46.2254C90.2335 48.2901 90.2336 50.3551 90.2336 52.4196Z" fill="url(#paint2_linear)"/>
<path d="M24.9358 -11.8137C25.3915 -11.8329 25.7887 -11.5187 25.9022 -11.077C25.958 -10.8596 26.0141 -10.6403 26.0713 -10.416C26.1704 -10.0281 26.6112 -9.85021 26.9288 -10.094C27.1484 -10.2625 27.4823 -10.2621 27.68 -10.0684C28.7916 -8.97892 28.7809 -8.82293 28.0276 -7.33499C26.4151 -4.14665 24.7005 -1.01547 23.0675 2.16062C21.8796 4.46716 20.7242 6.79412 19.6179 9.14148C19.075 10.2886 18.7688 11.5501 18.1809 12.6727C17.7074 13.5831 16.9113 14.3179 16.3684 15.1956C14.6089 18.0329 12.8779 20.8865 11.1878 23.7646C10.604 24.7647 9.91819 25.8139 9.75081 26.9121C9.60384 27.8633 9.36707 28.6797 8.85677 29.4554C8.57101 29.8881 8.22808 30.2882 7.98313 30.7413C7.64021 31.3741 7.45243 32.1049 7.04419 32.6846C6.23589 33.8317 5.26019 34.8605 4.46413 36.0158C3.85177 36.9016 3.41497 37.9059 2.89243 38.8489C2.18209 40.1349 1.45951 41.4127 0.753258 42.7027C-0.732727 45.4093 -2.43916 48.0302 -3.5863 50.8756C-4.10885 52.1657 -4.52525 53.4924 -5.26824 54.6886C-6.86446 57.2605 -8.49743 59.8079 -10.061 62.4002C-11.2 64.2903 -12.2205 66.2539 -13.3432 68.1563C-15.3068 71.4875 -17.3113 74.7902 -19.2871 78.1132C-20.0955 79.4727 -20.818 80.8811 -21.6712 82.212C-22.7041 83.8204 -23.8063 85.384 -24.9208 86.9353C-26.7252 89.4418 -28.6154 91.8872 -30.3749 94.4264C-32.2936 97.1984 -34.0449 100.081 -35.9636 102.848C-37.6415 105.269 -39.5398 107.539 -41.1728 109.984C-42.7077 112.283 -43.9978 114.74 -45.447 117.096C-46.3696 118.594 -47.3126 120.088 -48.3659 121.497C-50.1009 123.815 -51.8686 126.114 -53.7383 128.322C-57.4982 132.776 -61.4377 137.079 -65.1036 141.606C-67.6306 144.729 -69.8065 148.138 -72.1702 151.396C-74.1788 154.168 -76.2608 156.883 -78.2489 159.671C-78.9633 160.671 -79.4246 161.851 -80.1186 162.872C-80.9514 164.096 -81.8496 165.288 -82.8375 166.391C-83.3005 166.906 -83.8913 167.306 -84.545 167.778C-84.6943 167.885 -84.8553 167.636 -84.7694 167.474C-84.7094 167.36 -84.8326 167.301 -84.9612 167.302C-85.8082 167.307 -86.6641 167.333 -87.52 167.289C-88.4059 167.244 -89.2019 165.145 -88.7692 164.345C-87.7935 162.545 -86.9199 160.692 -85.9687 158.879C-85.0624 157.148 -84.2214 155.368 -83.16 153.735C-80.5718 149.755 -77.9917 145.762 -75.183 141.937C-72.6765 138.524 -69.8759 135.324 -67.1897 132.037C-65.0424 129.412 -62.8461 126.832 -60.7233 124.187C-58.2534 121.109 -55.7918 118.023 -53.4362 114.855C-52.5504 113.667 -52.0645 112.193 -51.2358 110.952C-48.8354 107.347 -46.3125 103.828 -43.9243 100.215C-41.5361 96.5982 -39.3112 92.8751 -36.8985 89.2704C-35.3105 86.8944 -33.4775 84.6859 -31.8404 82.3426C-30.2279 80.036 -28.6684 77.6887 -27.1865 75.2964C-25.6475 72.8102 -24.2023 70.2628 -22.7572 67.7195C-21.5733 65.6375 -20.4996 63.4902 -19.279 61.4286C-18.0992 59.4323 -16.7234 57.5503 -15.5599 55.5499C-14.3352 53.4394 -13.2615 51.239 -12.1144 49.0835C-11.2081 47.377 -10.2651 45.6951 -9.38329 43.9764C-8.90973 43.0497 -8.59538 42.0414 -8.09733 41.1269C-6.48071 38.1509 -4.7947 35.2156 -3.16583 32.2437C-1.23079 28.7083 0.659348 25.1485 2.59848 21.6131C2.96998 20.9355 3.55375 20.3721 3.92117 19.6944C5.11322 17.5104 6.19098 15.265 7.42794 13.1096C8.96291 10.4356 10.9347 7.96168 12.1064 5.14484C13.1024 2.75256 14.6129 0.71954 15.707 -1.57067C16.2745 -2.76273 16.7153 -4.02826 17.3971 -5.14683C18.3565 -6.72671 19.4954 -8.19229 20.5365 -9.7191C21.6093 -11.2926 23.1489 -11.7383 24.9358 -11.8137Z" fill="url(#paint3_linear)"/>
<path d="M-38.4994 167.525C-38.5625 167.548 -38.5595 167.451 -38.5807 167.387C-38.8875 166.467 -39.1856 165.614 -39.4465 164.749C-39.5322 164.472 -39.5934 164.145 -39.5199 163.876C-39.0546 162.133 -38.5524 160.402 -38.0625 158.667C-37.8666 157.977 -37.5931 157.303 -37.491 156.601C-37.0011 153.204 -35.3927 150.257 -33.8169 147.293C-32.9024 145.566 -32.0737 143.795 -31.1225 142.088C-28.9098 138.124 -26.6237 134.197 -24.4111 130.229C-23.5905 128.759 -22.8026 127.257 -22.1372 125.71C-20.6063 122.138 -18.5284 118.941 -15.936 116.051C-15.3155 115.357 -14.7767 114.557 -14.3521 113.728C-12.364 109.866 -10.4289 105.98 -8.47756 102.097C-6.50986 98.1863 -4.67277 94.1978 -2.53768 90.3808C-0.704697 87.1067 1.5202 84.0531 3.47974 80.8443C4.76569 78.7419 5.86383 76.5252 7.09263 74.3901C8.57862 71.81 10.134 69.2667 11.62 66.6867C13.1631 64.0127 14.6614 61.3102 16.1759 58.6158C17.1475 56.8889 18.2171 55.2029 19.0581 53.4148C20.6584 50.002 23.5977 47.5485 25.3735 44.254C26.9371 41.3433 28.8068 38.5999 30.4969 35.7545C31.3705 34.2889 32.1298 32.7539 32.9831 31.2761C33.428 30.5045 34.0526 29.8269 34.4364 29.0308C35.3304 27.1815 36.0408 25.2383 36.992 23.4175C37.6125 22.2296 38.6004 21.2376 39.2781 20.0782C40.7722 17.5226 42.1807 14.9139 43.6177 12.3216C45.9732 8.0678 48.2879 3.78539 50.6965 -0.439874C51.7906 -2.36267 52.9459 -4.27323 54.2972 -6.02049C55.6239 -7.731 57.2528 -9.19657 59.7022 -8.96388C59.9921 -8.9353 60.3717 -8.80058 60.5187 -8.58013C61.1841 -7.60036 62.1108 -7.14722 63.2498 -7.0125C63.4866 -6.98392 63.7968 -6.88186 63.9152 -6.70632C64.4664 -5.89393 63.8622 -3.44042 63.111 -2.81582C62.3476 -2.17897 61.5679 -1.49721 61.0127 -0.688899C59.641 1.3278 58.3877 3.42206 57.1017 5.4959C56.9466 5.74901 56.8037 6.04702 56.7752 6.33687C56.5343 8.92918 54.5339 10.7499 53.7869 13.1299C53.6317 13.628 52.8316 13.8852 52.5458 14.3832C51.9498 15.4161 51.5334 16.5428 50.9864 17.6042C50.6924 18.1717 50.2842 18.682 49.9249 19.2168C49.333 20.0986 48.7002 20.9559 48.1614 21.8703C46.4998 24.679 44.7281 27.4387 43.2707 30.3494C41.1029 34.6808 38.8903 38.9551 35.9999 42.8741C35.0569 44.1519 34.5752 45.7645 33.7791 47.1647C33.1178 48.3282 32.3136 49.406 31.5624 50.5164C30.007 52.8188 28.37 55.0723 26.9166 57.436C26.1206 58.7301 25.692 60.2447 24.9694 61.5959C24.5611 62.3634 23.8345 62.9513 23.3731 63.6984C22.6628 64.8414 22.0954 66.0702 21.3973 67.2215C19.9725 69.5566 18.4784 71.8509 17.0536 74.186C16.776 74.6391 16.8005 75.2801 16.5148 75.7291C15.5513 77.2396 14.4654 78.6766 13.5142 80.1952C13.008 81.0076 12.7671 81.9874 12.2487 82.7916C10.8484 84.9675 9.31752 87.0618 7.92951 89.2459C6.24349 91.9035 4.50032 94.5407 3.05515 97.329C1.48752 100.358 0.266903 103.567 -1.16601 106.669C-1.72938 107.886 -2.50911 109.005 -3.12555 110.201C-4.13798 112.177 -5.07694 114.185 -6.07712 116.165C-7.30592 118.606 -9.20831 120.55 -10.8494 122.693C-12.0415 124.248 -12.9029 126.065 -13.8581 127.796C-14.646 129.221 -15.3033 130.715 -16.1075 132.127C-17.1975 134.046 -18.3569 135.928 -19.5163 137.806C-20.145 138.822 -20.937 139.741 -21.4881 140.794C-23.2843 144.223 -25.0479 147.665 -26.7339 151.151C-27.677 153.102 -28.4159 155.148 -29.2773 157.14C-30.2448 159.373 -31.3797 161.549 -32.1839 163.839C-32.7881 165.558 -34.3598 166.231 -35.4008 167.456C-35.5233 167.599 -36.0336 167.656 -36.0785 167.579C-36.8746 166.252 -37.687 167.134 -38.4994 167.525Z" fill="url(#paint4_linear)"/>
<path d="M-54.3152 161.659C-54.447 161.956 -54.9203 161.742 -55.1663 161.53C-55.3987 161.33 -55.6139 161.279 -56.0243 161.4C-57.1066 161.72 -58.3044 161.308 -58.6364 160.229C-58.7666 159.806 -58.8877 159.382 -58.9895 158.952C-59.0916 158.516 -59.0058 157.96 -58.8262 157.536C-57.4953 154.38 -56.1849 151.216 -54.7479 148.105C-52.5312 143.309 -49.4163 139.047 -46.5382 134.642C-44.1337 130.964 -41.9578 127.134 -39.6676 123.378C-36.5323 118.231 -33.4624 113.046 -30.2291 107.963C-28.4084 105.106 -26.1753 102.513 -24.3873 99.6354C-22.5012 96.6022 -20.9866 93.3444 -19.2026 90.2418C-17.6677 87.576 -15.9449 85.0205 -14.3895 82.3669C-13.3648 80.6197 -12.5076 78.7744 -11.54 76.9904C-11.0052 76.0025 -10.3806 75.0595 -9.82543 74.0797C-9.14368 72.8836 -8.46192 71.6915 -7.83732 70.4668C-7.1229 69.0706 -6.52686 67.6091 -5.77978 66.2334C-5.04496 64.878 -4.15908 63.6043 -3.38343 62.2735C-2.36692 60.5221 -1.4035 58.7422 -0.391064 56.9868C1.59705 53.5249 3.57293 50.0508 5.61003 46.6175C6.86333 44.507 8.25949 42.4862 9.5087 40.3756C9.95368 39.6285 10.0476 38.6732 10.4844 37.918C12.2357 34.8807 14.0565 31.8842 15.8486 28.8714C16.7141 27.4222 17.5224 25.9321 18.4614 24.5319C19.5555 22.903 20.7965 21.3762 21.911 19.7637C22.4621 18.9635 22.8622 18.0613 23.3276 17.204C24.6339 14.8036 25.875 12.3705 27.2589 10.019C28.3938 8.08807 29.7287 6.27957 30.9126 4.37718C31.7413 3.04633 32.5333 1.6869 33.2232 0.282559C34.6847 -2.69758 36.0237 -5.73486 37.5016 -8.70683C38.02 -9.756 38.7549 -10.6745 40.0571 -10.9726C40.7463 -11.1304 41.4083 -11.3989 42.1003 -11.6706C42.4964 -11.826 42.9477 -11.6135 43.1412 -11.2345C43.4403 -10.6486 43.73 -10.1289 43.351 -9.53888C43.2082 -9.31657 43.5082 -8.72379 43.6088 -8.96811C44.0864 -10.1112 45.0866 -9.78866 45.9439 -9.80091C46.8012 -9.81316 46.842 -9.28653 46.5849 -8.64968C45.5275 -6.00838 44.5029 -3.35076 43.3802 -0.738034C42.8781 0.429525 42.1596 1.49911 41.5513 2.61768C40.6736 4.24247 39.8204 5.8795 38.9263 7.49612C38.5099 8.25136 38.0241 8.96986 37.5628 9.70061C36.3463 11.6316 35.0766 13.5299 33.9336 15.5017C33.3457 16.5141 33.0436 17.6898 32.5088 18.739C31.6842 20.3679 30.8391 21.9967 29.8798 23.5521C29.0592 24.8789 28.0345 26.0791 27.1487 27.365C24.6992 30.9249 22.2212 34.4643 19.8698 38.0854C18.9635 39.4815 18.4777 41.1472 17.6122 42.5801C15.2526 46.4992 12.7705 50.3407 10.3987 54.2516C9.79041 55.2599 9.48421 56.4479 8.92901 57.493C7.7043 59.7873 6.43468 62.0612 5.12423 64.3024C4.10364 66.0456 2.62992 67.6091 2.00531 69.4666C1.09494 72.1773 -1.21162 73.9735 -2.0975 76.6353C-2.66086 78.3294 -3.29363 80.0155 -4.0897 81.6117C-4.92659 83.2895 -5.95533 84.8776 -6.96368 86.4656C-8.14757 88.3272 -9.41311 90.1398 -10.6092 91.9932C-10.8664 92.3932 -10.9522 92.8995 -11.1644 93.3363C-11.4665 93.969 -11.8013 94.5896 -12.1442 95.2019C-12.9852 96.7042 -13.7935 98.227 -14.6957 99.6925C-16.0878 101.954 -17.4717 104.228 -19.0026 106.392C-20.758 108.878 -22.7706 111.188 -24.4812 113.703C-25.8569 115.724 -26.902 117.965 -28.1798 120.06C-29.8781 122.844 -31.6743 125.571 -33.4052 128.339C-34.9402 130.792 -36.4099 133.286 -37.9653 135.724C-40.133 139.124 -42.411 142.455 -44.5379 145.881C-46.6566 149.293 -48.6897 152.768 -50.6655 156.266C-51.2126 157.238 -51.3963 158.409 -51.8168 159.459C-51.9474 159.785 -52.2781 160.242 -52.5434 160.259C-53.511 160.32 -53.9151 160.945 -54.3152 161.659Z" fill="url(#paint5_linear)"/>
<path d="M-86.6693 144.898C-87.4673 144.958 -87.9079 144.014 -87.5489 143.299C-87.533 143.267 -87.5174 143.235 -87.5021 143.203C-87.0734 142.318 -86.7142 141.395 -86.257 140.521C-85.6977 139.46 -85.0241 138.456 -84.473 137.39C-82.6849 133.928 -80.064 130.977 -78.5168 127.343C-77.8514 125.78 -76.4389 124.531 -75.3693 123.134C-75.015 122.674 -74.6648 122.211 -74.2814 121.706C-73.9493 121.268 -73.6621 120.799 -73.427 120.302C-73.2358 119.899 -73.027 119.458 -72.8137 119.019C-72.6667 118.721 -72.532 118.407 -72.3361 118.142C-71.8829 117.529 -71.491 116.823 -70.9072 116.37C-69.6784 115.411 -69.0906 114.047 -68.3394 112.777C-67.9639 112.145 -67.4821 111.573 -67.1351 110.924C-66.8943 110.467 -66.7922 109.932 -66.6534 109.426C-66.0696 107.311 -64.5469 105.744 -63.4977 103.906C-61.6729 100.718 -60.1175 97.3829 -58.358 94.1537C-56.1617 90.1244 -53.9409 86.1032 -51.6017 82.1556C-50.0667 79.5674 -48.2868 77.1261 -46.6538 74.595C-45.1678 72.3007 -43.739 69.9697 -42.2694 67.6672C-41.0324 65.7281 -39.6975 63.8502 -38.5503 61.8662C-37.5011 60.0536 -36.6643 58.1186 -35.6804 56.2652C-35.5212 55.9671 -35.1252 55.6936 -34.7864 55.6079C-34.3682 55.5025 -34.0583 55.2732 -33.8941 54.9728C-33.4461 54.1528 -33.6632 52.9675 -32.9804 52.3295C-32.483 51.8647 -32.3479 51.0987 -32.1391 50.4507C-31.9628 49.9037 -31.5161 49.418 -30.8183 49.0965C-29.8467 48.6515 -29.2792 47.2839 -29.5242 46.1449C-29.5813 45.8837 -29.4221 45.5612 -29.3119 45.2877C-28.6791 43.7159 -28.0545 42.1442 -27.3891 40.5888C-25.45 36.0533 -23.6782 31.4361 -21.4819 27.0313C-19.6448 23.3449 -17.3179 19.8993 -15.1705 16.3722C-13.1987 13.1308 -11.2188 9.88936 -9.16537 6.69694C-7.60591 4.26792 -5.89539 1.93281 -4.3196 -0.488045C-3.70724 -1.42699 -3.31123 -2.50474 -2.76827 -3.49267C-1.69461 -5.43589 -0.604622 -7.37093 0.518036 -9.28557C0.892365 -9.92258 1.79394 -9.49781 2.51994 -9.36062C2.90144 -9.28853 3.30189 -9.58165 3.87782 -10.2041C4.51059 -10.8859 5.17193 -11.6003 5.96391 -12.0534C6.76353 -12.5093 7.72823 -10.9275 8.55051 -10.5139C8.79302 -10.3919 9.03797 -10.2763 9.20123 -10.1143C9.94831 -9.3713 10.3851 -8.01186 9.80544 -7.11782C8.82567 -5.60734 7.78874 -4.13361 6.89471 -2.57414C5.90677 -0.859541 5.10252 0.961202 4.12276 2.68396C3.27362 4.17403 2.32651 5.61103 1.36715 7.03578C0.122025 8.88509 -1.20473 10.6854 -2.44578 12.5388C-4.13588 15.0617 -5.84232 17.5765 -7.42628 20.1688C-8.64691 22.1651 -9.6675 24.2838 -10.8106 26.3291C-11.3209 27.2476 -11.9006 28.1253 -12.4721 29.0071C-13.1334 30.0236 -13.8234 31.0197 -14.4929 32.0322C-14.5949 32.1832 -14.746 32.3628 -14.7337 32.5221C-14.6439 34.0815 -15.9054 35.2042 -16.1136 36.5963C-16.4932 39.1314 -18.4487 40.8991 -19.0692 43.2791C-19.9714 46.7532 -21.7922 49.7823 -23.6251 52.8196C-25.3112 55.6201 -26.8421 58.5146 -28.4505 61.36C-30.1447 64.3564 -31.8348 67.357 -33.5576 70.3371C-33.8923 70.9168 -34.4434 71.3699 -34.7782 71.9496C-35.4885 73.1621 -36.056 74.4562 -36.8071 75.6401C-37.5869 76.8607 -38.5544 77.963 -39.3709 79.1632C-41.0365 81.6167 -42.7103 84.0662 -44.2738 86.5809C-45.5312 88.6058 -46.6865 90.7 -47.7887 92.8106C-49.9483 96.9338 -51.9078 101.163 -54.2062 105.205C-55.6514 107.744 -57.5701 110.006 -59.2561 112.41C-61.1095 115.055 -63.0201 117.672 -64.7469 120.399C-65.9716 122.334 -66.8412 124.494 -68.0577 126.433C-69.0049 127.944 -70.0581 129.376 -71.5768 130.495C-72.7892 131.385 -73.6465 132.765 -74.6467 133.945C-76.0429 135.594 -77.4472 137.235 -78.7944 138.925C-79.5864 139.921 -80.1824 141.081 -81.0274 142.028C-81.8072 142.901 -82.7829 143.608 -83.7096 144.338C-83.9463 144.522 -84.3301 144.534 -84.6526 144.591C-85.3221 144.71 -85.9916 144.845 -86.6693 144.898Z" fill="url(#paint6_linear)"/>
<path d="M-26.9361 166.405C-26.9856 166.39 -27.021 166.237 -27.0211 166.185C-27.0224 164.399 -27.0483 162.684 -27.0006 160.97C-26.9884 160.545 -26.7842 160.084 -26.5474 159.712C-24.6246 156.646 -22.6733 153.601 -20.7341 150.543C-19.2196 148.159 -17.7826 145.722 -16.1905 143.391C-14.1125 140.349 -11.9121 137.394 -9.77297 134.393C-8.24208 132.25 -6.68669 130.119 -5.20479 127.943C-3.22484 125.028 -1.42451 121.987 0.66567 119.154C3.19266 115.733 5.00115 111.936 6.96069 108.209C8.27521 105.706 9.67547 103.249 11.0471 100.775C13.766 95.8638 16.391 90.9037 19.2446 86.0742C20.8653 83.335 22.9473 80.8733 24.6619 78.183C25.6049 76.7011 26.2009 74.9988 26.9888 73.4148C29.4056 68.5608 31.7856 63.6906 34.2922 58.8856C35.1536 57.2363 36.3742 55.7789 37.3499 54.1827C38.4072 52.464 39.436 50.7168 40.3627 48.9246C41.914 45.92 43.3469 42.8582 44.8778 39.8454C46.3189 37.0082 47.7885 34.1872 49.3113 31.3949C50.2829 29.6068 51.4015 27.9004 52.3935 26.1245C53.9121 23.3975 55.3899 20.6419 56.8637 17.8904C57.5005 16.7024 58.0435 15.4614 58.7212 14.2979C59.358 13.2038 60.0357 12.1097 60.8562 11.1545C61.2318 10.7217 62.0197 10.3788 62.5831 10.4319C63.5424 10.5217 64.5263 10.1298 65.4857 10.6605C65.9878 10.9381 66.641 11.0483 67.2288 11.0483C68.4045 11.0442 68.6536 11.3586 68.2617 12.4486C68.1709 12.7034 68.2443 13.0149 68.2802 13.3142C68.2909 13.4031 68.3551 13.478 68.4429 13.4954C68.5716 13.5209 68.6391 13.6618 68.5789 13.7785C67.3165 16.2244 66.0538 18.6739 64.7835 21.1195C64.5059 21.6543 64.2201 22.181 63.918 22.6994C63.0158 24.2426 62.1218 25.7939 61.191 27.3207C59.8193 29.5578 58.3741 31.75 57.0474 34.0117C56.2268 35.4079 55.5736 36.902 54.8143 38.339C53.9325 40.0087 52.9895 41.6457 52.1281 43.3236C51.2218 45.0831 50.4053 46.8916 49.5072 48.6552C47.9641 51.6925 46.4046 54.7216 44.8206 57.7385C44.5635 58.2324 44.0981 58.6162 43.8286 59.1061C42.4284 61.6535 41.0363 64.2009 39.6891 66.7768C37.8602 70.2754 36.068 73.7904 34.2718 77.3053C33.4431 78.926 32.6634 80.5753 31.8061 82.1797C31.5529 82.6573 31.1039 83.0288 30.7528 83.4534C30.5201 83.7391 30.2833 84.0249 30.0751 84.327C29.2015 85.568 28.4177 86.8866 27.4461 88.0419C26.6541 88.985 25.9723 89.8913 25.4498 91.067C24.7027 92.753 23.4045 94.1859 22.3921 95.7617C21.7307 96.7905 21.1306 97.8641 20.5673 98.9501C20.1223 99.8033 19.7794 100.705 19.3874 101.587C18.1219 104.445 16.5012 107.09 14.807 109.719C13.2721 112.103 12.2964 114.843 10.8308 117.28C9.38155 119.689 7.60979 121.897 6.01766 124.224C4.95624 125.771 3.93564 127.347 2.95179 128.943C0.30233 133.242 -2.7717 137.214 -5.95187 141.133C-8.02164 143.685 -9.63416 146.604 -11.4467 149.363C-13.1042 151.882 -14.6351 154.499 -16.4558 156.895C-17.7948 158.655 -18.9991 160.467 -19.8809 162.468C-20.6403 164.195 -22.2528 165.044 -23.5469 166.134C-24.2518 166.725 -25.766 166.356 -26.9204 166.407C-26.9249 166.407 -26.9318 166.406 -26.9361 166.405Z" fill="url(#paint7_linear)"/>
</g>
<defs>
<linearGradient id="paint0_linear" x1="-62.4688" y1="28.5156" x2="63" y2="146" gradientUnits="userSpaceOnUse">
<stop stop-color="#FFF85C"/>
<stop offset="1" stop-color="#FF6AE6"/>
</linearGradient>
<linearGradient id="paint1_linear" x1="6.61965" y1="38.4269" x2="126.475" y2="105.081" gradientUnits="userSpaceOnUse">
<stop stop-color="#FFF85C"/>
<stop offset="1" stop-color="#FF6AE6"/>
</linearGradient>
<linearGradient id="paint2_linear" x1="27.6056" y1="63.4107" x2="119.715" y2="111.808" gradientUnits="userSpaceOnUse">
<stop stop-color="#FFF85C"/>
<stop offset="1" stop-color="#FF6AE6"/>
</linearGradient>
<linearGradient id="paint3_linear" x1="-72.3743" y1="23.3446" x2="65.5947" y2="107.605" gradientUnits="userSpaceOnUse">
<stop stop-color="#FFF85C"/>
<stop offset="1" stop-color="#FF6AE6"/>
</linearGradient>
<linearGradient id="paint4_linear" x1="-24.9725" y1="25.5042" x2="103.443" y2="96.0984" gradientUnits="userSpaceOnUse">
<stop stop-color="#FFF85C"/>
<stop offset="1" stop-color="#FF6AE6"/>
</linearGradient>
<linearGradient id="paint5_linear" x1="-44.1612" y1="22.0782" x2="84.7563" y2="95.3569" gradientUnits="userSpaceOnUse">
<stop stop-color="#FFF85C"/>
<stop offset="1" stop-color="#FF6AE6"/>
</linearGradient>
<linearGradient id="paint6_linear" x1="-74.556" y1="18.4966" x2="43.5725" y2="87.8358" gradientUnits="userSpaceOnUse">
<stop stop-color="#FFF85C"/>
<stop offset="1" stop-color="#FF6AE6"/>
</linearGradient>
<linearGradient id="paint7_linear" x1="-13.5676" y1="40.8639" x2="102.542" y2="107.537" gradientUnits="userSpaceOnUse">
<stop stop-color="#FFF85C"/>
<stop offset="1" stop-color="#FF6AE6"/>
</linearGradient>
</defs>
</svg>
