<svg width="98" height="110" viewBox="0 0 98 110" fill="none" xmlns="http://www.w3.org/2000/svg">
<path d="M19.3912 62.3456C18.911 58.4697 19.747 54.9662 19.5335 51.3741C18.4397 51.1879 17.4525 51.0459 16.4743 50.8597C14.0376 50.3896 11.8498 49.3874 9.93782 47.7909C7.3766 47.6667 5.34896 46.3451 3.40137 44.8728C2.09408 43.8883 0.955753 42.7353 0.333233 41.1743C-0.2715 39.6576 -0.10253 38.132 1.24923 37.4047C2.55652 36.7129 3.01896 35.5954 3.6237 34.4867C4.85095 33.9545 6.20271 34.0344 7.32324 33.1474C8.18588 32.4733 9.25305 32.8281 10.0534 33.6796C10.4625 34.1142 10.7916 34.6375 11.1384 35.1342C11.4763 35.6309 11.6898 36.2606 12.1255 36.642C14.2777 38.5489 14.5889 40.9437 14.171 43.5779C14.1265 43.8706 14.1176 44.1721 14.082 44.6067C15.7539 45.8662 17.6393 46.2298 19.8537 45.9549C20.0315 45.3518 20.3339 44.793 20.3428 44.2342C20.5118 37.1209 22.0592 30.1673 22.7084 23.1161C22.8329 21.8034 22.9129 20.4907 23.1352 19.1869C23.3843 17.6969 24.0423 17.0317 25.5631 16.9607C28.3022 16.8277 31.0412 16.8188 33.7803 16.8277C40.8859 16.8631 47.9916 16.9341 55.0972 16.9962C61.0823 17.0494 67.0762 17.0937 73.0613 17.1736C73.6394 17.1824 74.2085 17.4397 74.7243 17.5638C75.1779 18.8942 74.9289 20.1182 74.7599 21.2979C73.586 29.9189 72.3677 38.54 71.176 47.1611C70.5979 51.3652 70.0466 55.5782 69.4685 59.7823C69.3707 60.4653 69.1928 61.1305 69.0416 61.8667C68.5347 61.9731 68.1523 62.1061 67.7699 62.1239C63.2077 62.2835 58.6367 62.4964 54.0656 62.5585C48.6852 62.6294 43.296 62.7713 37.9334 62.4964C33.0511 62.2392 28.1954 62.7625 23.3309 62.4964C22.1481 62.4343 20.9386 62.4077 19.3912 62.3456ZM47.6714 56.3499C47.6714 56.2966 47.6803 56.2523 47.6803 56.1991C51.122 56.3587 54.5636 56.5361 58.0052 56.678C58.9123 56.7135 59.8372 56.7046 60.7354 56.6159C61.8293 56.5095 62.683 55.8886 63.0299 54.8687C63.4212 53.7334 63.7057 52.536 63.8747 51.3475C64.2838 48.4472 64.5239 45.5203 64.9686 42.6288C65.6978 37.9369 66.5427 33.2627 67.3164 28.5797C67.4675 27.6838 67.6098 26.7792 67.6276 25.8745C67.681 23.2757 66.8984 22.5307 64.2127 22.4686C64.0081 22.4597 63.8036 22.4597 63.6079 22.4597C53.9767 22.4864 44.3454 22.4952 34.7141 22.5396C33.5046 22.5484 32.2863 22.646 31.0768 22.7879C30.3209 22.8677 29.7695 23.3201 29.5472 24.0829C29.3782 24.6682 29.1737 25.2448 29.0936 25.839C28.7824 28.0386 28.4622 30.2382 28.231 32.4467C27.6085 38.274 26.9771 44.11 26.4524 49.9461C26.0789 54.1059 27.1283 55.25 31.2814 55.4807C36.7329 55.8088 42.2021 56.066 47.6714 56.3499ZM5.24225 40.6244C5.09106 39.9237 5.05549 39.3117 4.82427 38.8061C4.43297 37.9458 3.17904 37.5821 2.1919 37.928C1.46266 38.1853 0.973539 39.0012 1.01801 39.8705C1.07136 40.8284 1.51602 41.5911 2.10297 42.3184C3.34801 43.8351 4.98435 44.8462 6.58511 45.9194C7.91019 46.8063 9.22637 46.8241 10.5515 45.9283C11.1384 45.5291 11.7876 45.201 12.2945 44.722C12.7125 44.3229 13.166 43.7641 13.2461 43.232C13.4506 41.8395 13.504 40.4204 12.8103 39.0811C12.1077 37.724 11.3874 37.2007 9.93782 37.3604C8.9329 37.4757 7.94576 37.724 6.96752 37.9813C6.43393 38.1232 6.03374 38.5755 6.22938 39.1166C6.38057 39.5334 6.78076 40.0478 7.16317 40.1543C7.9013 40.3583 8.71946 40.2962 9.51095 40.3405C9.37756 41.5468 9.27084 42.6288 9.11966 43.702C9.11076 43.7819 8.7995 43.8173 8.45267 43.9238C8.31927 43.0546 8.19477 42.212 8.07916 41.4581C6.91416 40.9348 5.96259 41.5556 4.97545 41.6C4.31736 41.6266 3.53476 41.6798 3.28576 40.6244C3.92606 40.6244 4.46854 40.6244 5.24225 40.6244ZM19.8003 47.4095C17.8616 46.9394 16.2164 46.7531 14.749 46.1323C13.086 45.4316 12.0455 45.9194 11.1028 47.2055C13.6729 49.5559 18.3418 50.8863 19.8003 49.4938C19.8003 48.8995 19.8003 48.1456 19.8003 47.4095ZM7.16317 34.3537C7.36771 34.8149 7.43885 35.1076 7.61672 35.3382C8.1592 36.0566 8.70168 36.8548 9.81332 36.438C9.9645 36.3848 10.1424 36.1542 10.1513 36.0034C10.2046 35.143 9.43092 34.0787 8.42599 33.8392C8.07916 33.7505 7.61671 34.1585 7.16317 34.3537ZM7.10981 36.4735C6.52286 35.9413 6.0782 35.4269 5.53572 35.081C5.11774 34.8149 4.58415 34.8592 4.25511 35.3648C3.84602 36.0034 4.02389 36.846 4.6553 37.1387C5.429 37.5112 6.15824 37.4668 7.10981 36.4735Z" fill="#1B1A1D"/>
<path d="M89.1843 69.2449C88.9531 69.2981 88.8464 69.307 88.7575 69.3425C85.8316 70.4423 85.636 70.3093 85.1113 67.2227C85.0312 66.7615 84.8534 66.185 84.5154 65.9278C82.8969 64.6683 83.1281 63.0629 83.7239 61.5285C84.1152 60.5263 84.8801 59.6482 85.5559 58.779C85.9206 58.3178 86.463 58.0074 86.881 57.6703C86.4986 53.9274 85.5026 51.9318 83.1192 50.2111C82.3099 52.6502 82.2299 55.1514 81.723 57.5639C81.2072 60.0385 80.8604 62.5485 80.3268 65.0142C79.7932 67.4533 79.5086 69.9634 78.5304 72.4113C78.1391 72.1541 77.8367 72.0565 77.6766 71.8437C75.649 69.0587 73.648 66.2559 71.6293 63.4621C71.069 62.6904 70.82 61.901 70.9445 60.9165C71.4069 57.4042 71.736 53.8831 72.2073 50.3708C72.9721 44.5524 73.7992 38.7429 74.6085 32.9335C75.0976 29.43 75.5778 25.9177 76.1114 22.4143C76.2893 21.2524 76.6183 20.1171 76.9207 18.8311C77.3654 19.1237 77.6855 19.2213 77.8278 19.4342C80.0689 22.8046 82.2388 26.2282 84.5332 29.5631C85.6538 31.1862 85.9117 32.8182 85.5381 34.7251C85.0401 37.2972 84.7378 39.9048 84.3554 42.4947C84.9423 43.0003 85.387 43.3994 85.8494 43.7719C89.4778 46.7166 91.6033 50.5304 92.3681 55.0982C92.5282 56.0383 92.9639 56.739 93.4086 57.5373C94.6803 59.8256 95.783 62.2115 96.868 64.6062C97.1526 65.2271 97.2148 65.9898 97.1971 66.6817C97.1615 68.0564 96.3077 68.8635 94.8671 68.9434C94.1823 68.9788 93.5598 68.8281 92.8661 69.307C91.3454 70.3181 91.292 70.2472 89.1843 69.2449ZM86.3474 63.6749C86.3474 64.2692 86.3563 64.7659 86.3474 65.2537C86.3207 66.1584 86.2318 67.063 86.2585 67.9677C86.2852 68.8015 87.0055 69.1651 87.7792 68.7748C88.1349 68.5975 88.4284 68.2959 88.7841 68.1008C89.0243 67.9677 89.3177 67.9145 89.5045 67.8436C90.207 68.358 90.8296 68.8103 91.5588 69.3425C92.1724 68.491 92.6616 67.7903 93.1418 67.1163C93.9155 67.5509 94.5113 67.879 95.285 68.3136C95.6319 67.6928 96.0498 67.2316 96.1477 66.7083C96.3611 65.573 95.952 64.5264 95.4273 63.5153C94.8671 62.4421 94.2267 61.3955 93.8088 60.2691C92.8928 57.759 92.2436 57.218 89.1666 58.0251C88.6774 58.1493 88.1972 58.3267 87.7348 58.5218C85.2269 59.5506 84.2664 61.4043 84.7467 64.42C85.2714 64.1805 85.7783 63.941 86.3474 63.6749ZM91.2742 56.5262C91.6833 54.6104 90.874 53.0405 90.3049 51.4617C88.5618 46.6279 85.0224 43.6921 80.1845 42.2109C78.9661 41.8384 78.0057 42.2109 77.561 43.1156C77.1252 44.0025 77.3476 45.1023 78.2813 45.8119C78.9928 46.3618 79.811 46.7964 80.638 47.1778C84.1419 48.792 86.6053 51.2843 87.548 55.1159C87.7348 55.8698 87.7525 56.7568 88.7486 57.218C89.5134 56.9962 90.3671 56.7656 91.2742 56.5262Z" fill="#1B1A1D"/>
<path d="M60.0237 6.32579C58.8231 8.1795 57.0356 9.62522 56.1463 11.9224C56.4308 12.9158 57.5958 13.8382 56.92 15.3815C52.5267 15.887 48.0001 15.6121 43.6069 15.7097C42.2107 14.0954 43.6692 12.9158 43.8737 11.5499C42.7888 9.60748 41.108 8.13515 39.6939 6.60074C38.7246 6.21049 37.7019 7.09743 36.9726 6.22822C36.528 5.69606 36.0478 5.12841 35.8343 4.48982C35.3897 3.17714 36.4746 1.59838 37.9064 1.28795C39.2849 0.986388 40.5121 1.84672 40.6989 3.35453C40.7967 4.14391 40.7167 4.9599 40.7167 6.02423C42.0328 7.53203 43.4824 9.19062 45.012 10.9379C48.4092 9.37687 51.6641 9.96226 54.9813 11.1508C56.0395 9.82922 57.0356 8.57862 58.0405 7.32803C58.8142 6.37014 59.4634 5.43885 59.1077 4.03747C58.7964 2.83123 59.4901 1.89107 60.5128 1.2436C61.7134 0.4897 63.2697 1.02187 63.7944 2.34341C64.5147 4.16165 63.8388 5.5098 61.8912 6.0331C61.3221 6.18388 60.7173 6.21936 60.0237 6.32579ZM62.994 3.57626C62.9406 3.38114 62.8873 3.08844 62.7983 2.79575C62.6382 2.25472 62.2203 1.8822 61.7045 1.9709C61.2598 2.04185 60.824 2.36115 60.4772 2.67158C60.2905 2.8401 60.246 3.21262 60.2104 3.50531C60.0859 4.46321 60.6195 5.12841 61.4821 5.12841C62.4248 5.13728 63.0118 4.56077 62.994 3.57626ZM39.6584 3.86895C39.6139 2.9554 38.9825 2.26359 38.1821 2.24585C37.4084 2.23698 36.7147 3.06184 36.7948 3.9133C36.8748 4.86233 37.524 5.56302 38.2799 5.51867C39.1337 5.47432 39.6939 4.80911 39.6584 3.86895Z" fill="#1B1A1D"/>
<path d="M19.5155 90.6123C20.0847 90.8074 21.1697 90.9227 21.9434 91.4726C24.2378 93.1135 26.4255 94.8874 28.6043 96.679C29.1201 97.1047 29.5114 97.7611 29.7782 98.3908C30.2229 99.4551 29.4492 100.528 28.3286 100.422C27.5372 100.342 26.7279 100.165 25.9897 99.872C23.1617 98.7367 20.5827 97.158 18.1994 95.2776C17.5946 94.7987 17.0877 94.1069 16.7409 93.4151C16.1095 92.1467 16.8031 90.976 18.1905 90.7365C18.475 90.6921 18.7863 90.6833 19.5155 90.6123Z" fill="#1B1A1D"/>
<path d="M37.3107 40.8281C37.7375 41.6441 38.0577 42.0787 38.2089 42.5754C39.2938 46.07 41.695 47.9858 45.2434 48.1277C48.1692 48.243 50.8016 46.5489 51.8687 43.7994C52.1266 43.143 52.2245 42.4335 52.4735 41.7772C52.5624 41.5466 52.8826 41.4135 53.2472 41.1031C53.6652 43.2229 52.8559 44.8105 51.6909 46.203C50.1257 48.0745 48.0447 49.0146 45.5902 49.1211C43.1179 49.2364 41.0369 48.3139 39.2672 46.682C37.7553 45.2983 37.204 43.6663 37.3107 40.8281Z" fill="#1B1A1D"/>
<path d="M49.2365 32.2862C49.3966 32.7297 49.61 33.1554 49.7079 33.6077C49.8857 34.4592 50.3926 35.0357 51.0952 35.4969C53.6653 37.1999 56.0398 36.446 57.1425 33.5545C57.3204 33.0933 57.4538 32.6144 57.6317 32.1531C57.6494 32.0999 57.8095 32.0911 57.9073 32.0645C58.3609 33.9803 57.8895 35.2663 56.1821 36.579C54.5368 37.8473 52.7849 37.6433 51.0507 36.7919C49.2098 35.896 48.2494 34.5302 49.2365 32.2862Z" fill="#1B1A1D"/>
<path d="M33.8159 32.4907C33.9848 32.943 34.1538 33.289 34.2427 33.6437C34.7763 35.7901 36.3949 36.4642 38.3425 36.5795C40.0233 36.6859 41.2683 35.6216 42.0509 33.5905C42.2199 33.147 42.4155 32.7213 42.5845 32.3311C43.4027 32.4197 43.2248 32.8987 43.1981 33.2357C42.8691 37.0939 38.5381 38.9299 34.8297 36.5086C34.216 36.1094 33.8159 35.2668 33.5135 34.5395C33.2734 33.9719 32.971 33.2446 33.8159 32.4907Z" fill="#1B1A1D"/>
<path d="M35.8884 69.5198C34.8034 69.5375 33.9319 70.114 33.2471 70.8502C32.1444 72.021 30.9438 73.1829 30.1701 74.5665C28.1513 78.1852 27.0308 81.9902 29.014 86.2121C29.9389 86.4515 30.8904 86.691 32.0732 86.9926C32.0287 85.9992 31.9754 85.2275 31.9576 84.4559C31.8598 80.8194 32.5801 77.4491 35.1413 74.6463C35.9506 73.7594 36.6532 72.7482 37.2935 71.7283C37.5158 71.3735 37.5336 70.7526 37.3913 70.3446C37.1601 69.7415 36.5376 69.5109 35.8884 69.5198Z" fill="#1B1A1D"/>
<path d="M65.467 87.9428C63.6973 83.0025 61.5273 78.1953 60.1756 73.1042C59.9977 72.4301 59.6598 71.7826 59.2863 71.1973C58.7082 70.2926 57.6321 69.858 56.9652 70.1862C56.0225 70.6474 55.7379 71.4988 55.8002 72.4656C55.8357 73.0598 55.9691 73.6718 56.1737 74.2306C57.5432 78.0267 58.8772 81.8406 60.3534 85.6012C61.2428 87.8541 62.3188 90.0359 63.4216 92.1912C64.0886 93.5039 64.969 93.5216 66.0539 92.3864C66.3207 92.1025 66.4808 91.7211 66.7743 91.2599C66.2763 90.0182 65.8405 88.9894 65.467 87.9428Z" fill="#1B1A1D"/>
<path d="M66.4799 109.903C67.3425 105.982 68.8188 102.585 71.1577 99.5609C71.5845 99.011 71.9758 98.3724 72.1893 97.7161C72.5361 96.6517 72.7318 95.4898 71.9225 94.5319C70.8731 93.2991 69.8949 91.8977 68.5787 91.0285C67.3425 90.2125 66.8089 89.1748 66.3465 87.9419C65.5995 85.9552 64.7902 83.9862 64.061 81.9906C63.5096 80.4739 63.0116 78.9306 62.5491 77.3785C62.389 76.8552 62.4157 76.2875 62.3446 75.6134C63.7853 75.5425 64.9947 75.4715 66.2042 75.4183C67.4226 75.3651 68.6409 75.3385 69.8593 75.2941C71.0776 75.2498 72.296 75.2232 73.5144 75.1256C74.6705 75.028 75.8977 75.2143 77.0983 74.558C74.9017 70.4426 72.0915 67.0189 69.219 63.5067C68.4008 63.5067 67.6004 63.48 66.8 63.5155C63.0471 63.6663 59.2942 63.9058 55.5413 63.9767C50.9791 64.0566 46.4081 63.9856 41.837 63.9856C35.843 63.9856 29.849 63.9945 23.8551 64.0211C23.2148 64.0211 22.4233 63.684 21.8897 64.6153C22.032 64.908 22.1476 65.2894 22.3699 65.5998C24.1663 68.172 25.9538 70.753 27.8036 73.2808C28.4617 74.1766 28.7908 75.028 28.2927 76.0746C28.1682 76.3496 28.0793 76.6423 27.9815 76.935C27.1277 79.5692 26.5141 82.2212 27.4924 84.9618C27.7592 85.698 27.5902 86.3366 27.2878 87.0107C27.0477 87.534 26.8965 88.1016 26.8076 88.3588C27.5991 89.2635 28.2394 89.9198 28.7819 90.6383C28.9597 90.8777 28.9242 91.2857 29.0398 91.9066C27.0299 90.4431 25.3402 89.1482 23.5794 87.9686C22.5745 87.2945 21.5073 86.6381 20.3601 86.3011C18.8482 85.8488 17.3275 86.2568 16.0558 87.2058C14.8285 88.1282 14.873 89.4409 15.1931 90.8156C17.4253 89.3965 18.2524 89.1393 19.9421 89.503C20.6269 89.6449 21.3828 89.8223 21.9341 90.2214C25.5981 92.8201 29.8046 94.8601 31.521 99.4367C31.8144 99.3303 32.0457 99.3037 32.1613 99.1795C32.4992 98.807 32.8816 98.4345 33.0861 97.9821C34.5891 94.7537 35.1938 91.401 33.9043 87.9863C32.9439 85.4319 32.6415 82.9219 33.3707 80.2699C34.5357 75.9771 34.8737 75.578 39.4003 75.5513C43.8735 75.5159 48.3379 75.5336 52.8111 75.5425C53.7093 75.5425 54.6164 75.6134 55.5858 75.6578C55.8793 76.2698 56.2172 76.7842 56.3862 77.343C57.8624 82.2034 59.899 86.8333 62.0778 91.4099C62.727 92.7758 62.9226 94.0264 62.3535 95.481C61.5887 97.4411 60.9928 99.4633 60.2992 101.548C61.4019 102.47 63.2428 102.435 63.7586 104.075C63.5274 104.208 63.4206 104.315 63.3584 104.288C62.7892 104.075 62.2379 103.836 61.6776 103.605C58.5917 102.328 56.5818 103.322 55.15 106.133C54.5631 107.286 54.2874 108.617 53.8605 110H66.5955C66.5599 109.974 66.5244 109.929 66.4799 109.903ZM37.2837 71.7375C36.6434 72.7575 35.9408 73.7686 35.1316 74.6555C32.5792 77.4583 31.85 80.8198 31.9478 84.4651C31.9656 85.2368 32.019 86.0084 32.0634 87.0018C30.8806 86.7002 29.9291 86.4519 29.0042 86.2213C27.0299 81.9906 28.1505 78.1944 30.1603 74.5757C30.934 73.1921 32.1346 72.0302 33.2373 70.8594C33.9221 70.1321 34.7936 69.5556 35.8786 69.529C36.5278 69.5201 37.1503 69.7507 37.3637 70.3539C37.5238 70.753 37.4971 71.3738 37.2837 71.7375ZM63.4206 92.1993C62.3179 90.044 61.2418 87.8621 60.3525 85.6093C58.8674 81.8486 57.5423 78.0348 56.1727 74.2387C55.9682 73.6799 55.8348 73.0679 55.7992 72.4737C55.737 71.5158 56.0304 70.6554 56.9642 70.1942C57.6401 69.866 58.7073 70.3006 59.2853 71.2053C59.6589 71.7907 59.9968 72.447 60.1747 73.1123C61.5353 78.2033 63.6963 83.0017 65.4661 87.9508C65.8396 88.9974 66.2753 90.0174 66.7645 91.2769C66.4799 91.7381 66.3198 92.1195 66.0441 92.4033C64.9592 93.5297 64.0876 93.512 63.4206 92.1993Z" fill="#1B1A1D"/>
</svg>
