<svg width="24" height="24" viewBox="0 0 24 24" fill="none" xmlns="http://www.w3.org/2000/svg">
<path d="M8 2H5C3.34315 2 2 3.34315 2 5V8H4V5C4 4.44772 4.44772 4 5 4H8V2Z" fill="#878793"/>
<path d="M2 19V16H4V19C4 19.5523 4.44772 20 5 20H8V22H5C3.34315 22 2 20.6569 2 19Z" fill="#878793"/>
<path d="M20 16V19C20 19.5523 19.5523 20 19 20H16V22H19C20.6569 22 22 20.6569 22 19V16H20Z" fill="#878793"/>
<path d="M22 5V8H20V5C20 4.44772 19.5523 4 19 4H16V2H19C20.6569 2 22 3.34315 22 5Z" fill="#878793"/>
<path d="M12 15C13.6569 15 15 13.6569 15 12C15 10.3431 13.6569 9 12 9C10.3431 9 9 10.3431 9 12C9 13.6569 10.3431 15 12 15Z" fill="#878793"/>
</svg>
