<svg xmlns="http://www.w3.org/2000/svg" width="12" height="12" viewBox="0 0 12 12" fill="none">
<path fill-rule="evenodd" clip-rule="evenodd" d="M9.62832 4.75536L9.67589 4.77267C10.9999 5.25518 10.9999 5.31138 11 5.44747V6.50732C11 6.64324 11 6.69431 9.67659 7.21825L9.63224 7.236L9.44649 7.68622L9.46856 7.73409C10.0616 9.00809 10.0225 9.04802 9.92787 9.14441L9.92776 9.14453L9.17513 9.89588C9.14378 9.92757 9.08921 9.94813 9.04327 9.94813C8.92977 9.94813 8.4918 9.78469 7.74195 9.46081L7.69858 9.44276L7.24278 9.63085L7.22475 9.67894C6.74088 11 6.68566 11 6.55251 11H5.492C5.36217 11 5.30858 11 4.78686 9.68256L4.76906 9.63582L4.31132 9.44685L4.26689 9.46807C3.15741 9.98043 3.02977 9.98043 2.9878 9.98043C2.94143 9.98043 2.88705 9.9584 2.85562 9.92757L2.10605 9.17898L2.1059 9.17883C2.0102 9.08167 1.97483 9.04576 2.53734 7.74289L2.55732 7.69682L2.37122 7.24597L2.3239 7.22891C1 6.7446 1 6.68807 1 6.55195V5.49147C1 5.35571 1 5.3049 2.32127 4.78368L2.36681 4.76571L2.55289 4.31353L2.53112 4.26622C1.93884 2.99048 1.97838 2.95029 2.0737 2.85431L2.82512 2.10459C2.85595 2.07359 2.91003 2.05237 2.95638 2.05237C3.07061 2.05237 3.5088 2.21614 4.25927 2.53911L4.30278 2.55757L4.75784 2.36821L4.77604 2.32015C5.25952 1 5.31839 1 5.44765 1H6.50784C6.63758 1 6.69099 1 7.21239 2.31786L7.23075 2.36435L7.68819 2.55238L7.73265 2.53201C8.8414 2.01941 8.96934 2.01941 9.01157 2.01941C9.05803 2.01941 9.11193 2.04127 9.14262 2.07235L9.89333 2.81992L9.89339 2.81998C9.9867 2.9144 10.0254 2.95352 9.46269 4.25617L9.44254 4.30268L9.62832 4.75536ZM4.28186 6.00024C4.28186 6.94818 5.05267 7.71996 6.00016 7.71996C6.94728 7.71996 7.71795 6.94802 7.71793 6.00024C7.71793 5.05244 6.94726 4.28152 6.00016 4.28152C5.05269 4.28152 4.28186 5.05227 4.28186 6.00024Z" fill="white"/>
</svg>