<svg width="74" height="50" viewBox="0 0 74 50" fill="none" xmlns="http://www.w3.org/2000/svg">
	<path fill-rule="evenodd" clip-rule="evenodd" d="M19.8125 0C18.7079 0 17.8125 0.89543 17.8125 2V12C17.8125 13.1045 18.7079 14 19.8125 14H71.9972C73.1017 14 73.9972 13.1045 73.9972 12V2C73.9972 0.895431 73.1017 0 71.9972 0H19.8125ZM19.8125 17.9998C18.7079 17.9998 17.8125 18.8953 17.8125 19.9998V25.9998C17.8125 27.1044 18.7079 27.9998 19.8125 27.9998H42.5345C43.639 27.9998 44.5345 27.1044 44.5345 25.9998V19.9998C44.5345 18.8953 43.639 17.9998 42.5345 17.9998H19.8125ZM17.8125 34C17.8125 32.8955 18.7079 32 19.8125 32H71.9972C73.1017 32 73.9972 32.8955 73.9972 34V48C73.9972 49.1046 73.1017 50 71.9972 50H19.8125C18.7079 50 17.8125 49.1046 17.8125 48V34ZM49.2748 18C48.1702 18 47.2748 18.8954 47.2748 20V26C47.2748 27.1045 48.1702 28 49.2748 28H71.9967C73.1013 28 73.9967 27.1045 73.9967 26V20C73.9967 18.8954 73.1013 18 71.9967 18H49.2748Z" fill="#3C3A42"/>
	<path fill-rule="evenodd" clip-rule="evenodd" d="M1 0C0.447715 0 0 0.447716 0 1V3.99999C0 4.55227 0.447714 4.99999 0.999999 4.99999H13.5758C14.1281 4.99999 14.5758 4.55227 14.5758 3.99999V1C14.5758 0.447715 14.1281 0 13.5758 0H1ZM1 8.74998C0.447715 8.74998 0 9.19769 0 9.74998V12.75C0 13.3023 0.447714 13.75 0.999999 13.75H13.5758C14.1281 13.75 14.5758 13.3022 14.5758 12.75V9.74998C14.5758 9.19769 14.1281 8.74998 13.5758 8.74998H1ZM0 18.5C0 17.9477 0.447715 17.5 1 17.5H13.5758C14.1281 17.5 14.5758 17.9477 14.5758 18.5V21.4999C14.5758 22.0522 14.1281 22.4999 13.5758 22.4999H0.999999C0.447714 22.4999 0 22.0522 0 21.4999V18.5ZM1 26.2499C0.447715 26.2499 0 26.6977 0 27.2499V30.2499C0 30.8022 0.447714 31.2499 0.999999 31.2499H13.5758C14.1281 31.2499 14.5758 30.8022 14.5758 30.2499V27.2499C14.5758 26.6977 14.1281 26.2499 13.5758 26.2499H1Z" fill="#625E70"/>
</svg>
