<svg width="24" height="24" viewBox="0 0 24 24" fill="none" xmlns="http://www.w3.org/2000/svg">
<path d="M18.3377 19.5341C18.5863 19.7846 18.9805 19.8019 19.2291 19.5341C19.4947 19.2663 19.4776 18.8861 19.2291 18.6356L5.61083 4.91642C5.36229 4.66588 4.95949 4.66588 4.71095 4.91642C4.47098 5.15832 4.47098 5.57301 4.71095 5.8149L18.3377 19.5341ZM19.1005 17.1237C21.4659 15.5427 23 13.3743 23 12.4067C23 10.7479 18.5177 5.44342 12.0043 5.44342C10.6245 5.44342 9.33892 5.67668 8.16478 6.07408L10.3074 8.2339C10.8302 8.00928 11.4044 7.88833 12.0043 7.88833C14.4982 7.88833 16.5123 9.884 16.5123 12.4067C16.5123 13.0114 16.3837 13.5989 16.1437 14.1086L19.1005 17.1237ZM12.0043 19.3699C13.5041 19.3699 14.8839 19.1021 16.1095 18.6442L13.9497 16.4671C13.367 16.7695 12.7071 16.9337 12.0043 16.9337C9.50175 16.9337 7.50487 14.8689 7.4963 12.4067C7.4963 11.6896 7.65913 11.0157 7.95053 10.4196L5.13089 7.56004C2.58551 9.17558 1 11.4304 1 12.4067C1 14.0568 5.56798 19.3699 12.0043 19.3699ZM14.5925 12.2339C14.5925 10.8084 13.4527 9.65074 12.0214 9.65074C11.9186 9.65074 11.8157 9.65074 11.73 9.66802L14.5754 12.5363C14.584 12.4412 14.5925 12.3376 14.5925 12.2339ZM9.41605 12.2425C9.41605 13.668 10.5902 14.8343 12.0043 14.8343C12.1071 14.8343 12.21 14.8257 12.3214 14.817L9.43319 11.9056C9.42462 12.0179 9.41605 12.1302 9.41605 12.2425Z" fill="#878793"/>
</svg>
