<svg width="16" height="16" viewBox="0 0 16 16" fill="none" xmlns="http://www.w3.org/2000/svg">
<path d="M12.0001 7.33341H13.4851C14.2708 7.33341 14.6668 6.9626 14.6668 6.1978L14.6669 3.79657C14.6669 3.03177 14.2709 2.66675 13.4851 2.66675H12.0002C11.2082 2.66675 10.8122 3.03177 10.8122 3.79657L10.8122 6.1978C10.8122 6.9626 11.2082 7.33341 12.0001 7.33341ZM2.51524 7.33341H4.15172C4.93749 7.33341 5.33347 6.9626 5.33347 6.1978L5.3335 3.79657C5.3335 3.03177 4.93752 2.66675 4.15175 2.66675H2.51527C1.7295 2.66675 1.33352 3.03177 1.33352 3.79657L1.3335 6.1978C1.3335 6.9626 1.72947 7.33341 2.51524 7.33341ZM7.30411 7.33341H8.81839C9.60416 7.33341 10.0001 6.9626 10.0001 6.1978L10.0002 3.79657C10.0002 3.03177 9.60418 2.66675 8.81841 2.66675H7.30413C6.51836 2.66675 6.12238 3.03177 6.12238 3.79657L6.12236 6.1978C6.12236 6.9626 6.51834 7.33341 7.30411 7.33341ZM2.51527 13.3334H4.15175C4.93752 13.3334 5.3335 12.9684 5.3335 12.2036V9.79657C5.3335 9.03756 4.93752 8.66675 4.15175 8.66675H2.51527C1.7295 8.66675 1.33352 9.03756 1.33352 9.79657V12.2036C1.33352 12.9684 1.7295 13.3334 2.51527 13.3334ZM7.30413 13.3334H8.81841C9.60418 13.3334 10.0002 12.9684 10.0002 12.2036V9.79657C10.0002 9.03756 9.60418 8.66675 8.81841 8.66675H7.30413C6.51836 8.66675 6.12238 9.03756 6.12238 9.79657V12.2036C6.12238 12.9684 6.51836 13.3334 7.30413 13.3334ZM12.0002 13.3334H13.4851C14.2709 13.3334 14.6669 12.9684 14.6669 12.2036V9.79657C14.6669 9.03756 14.2709 8.66675 13.4851 8.66675H12.0002C11.2082 8.66675 10.8122 9.03756 10.8122 9.79657V12.2036C10.8122 12.9684 11.2082 13.3334 12.0002 13.3334Z" fill="white"/>
</svg>
