<svg width="24" height="24" viewBox="0 0 24 24" fill="none" xmlns="http://www.w3.org/2000/svg">
<path d="M4.37519 16H5.77458V17.6551C5.77458 19.2133 6.56884 20 8.14977 20H19.6248C21.1982 20 22 19.2133 22 17.6551V9.90772C22 8.35703 21.1982 7.57035 19.6248 7.57035H18.2179V6.34493C18.2179 4.78669 17.4236 4 15.8427 4H4.37519C2.78669 4 2 4.78669 2 6.34493V13.6626C2 15.2209 2.78669 16 4.37519 16ZM4.39032 14.7821C3.63389 14.7821 3.21785 14.3812 3.21785 13.5946V6.41301C3.21785 5.62632 3.63389 5.21785 4.39032 5.21785H15.8275C16.5688 5.21785 17 5.62632 17 6.41301V7.57035H8.14977C6.56884 7.57035 5.77458 8.34947 5.77458 9.90772V14.7821H4.39032ZM8.17247 18.7821C7.41604 18.7821 6.99244 18.3737 6.99244 17.587V9.97579C6.99244 9.18911 7.41604 8.7882 8.17247 8.7882H19.6021C20.351 8.7882 20.7821 9.18911 20.7821 9.97579V17.587C20.7821 18.3737 20.351 18.7821 19.6021 18.7821H8.17247Z" fill="#878793"/>
</svg>
