<svg width="14" height="14" viewBox="0 0 14 14" fill="none" xmlns="http://www.w3.org/2000/svg">
<path d="M7.00361 14C10.8303 14 14 10.8303 14 6.99639C14 3.16968 10.8231 0 6.99639 0C3.16968 0 0 3.16968 0 6.99639C0 10.8303 3.1769 14 7.00361 14ZM3.47292 7.77617C3.19134 7.77617 2.97473 7.55957 2.97473 7.27076C2.97473 6.99639 3.19134 6.77978 3.47292 6.77978H6.4982V2.7148C6.4982 2.44043 6.7148 2.21661 6.99639 2.21661C7.27798 2.21661 7.49459 2.44043 7.49459 2.7148V7.27076C7.49459 7.55957 7.27798 7.77617 6.99639 7.77617H3.47292Z" fill="#878793"/>
</svg>
