<svg width="24" height="24" viewBox="0 0 24 24" fill="none" xmlns="http://www.w3.org/2000/svg">
<path d="M5.44971 22H18.5503C20.8574 22 22 20.8574 22 18.5942V5.40576C22 3.14258 20.8574 2 18.5503 2H5.44971C3.15356 2 2 3.13159 2 5.40576V18.5942C2 20.8684 3.15356 22 5.44971 22ZM5.47168 20.2312C4.37305 20.2312 3.7688 19.6489 3.7688 18.5063V5.49365C3.7688 4.35107 4.37305 3.7688 5.47168 3.7688H18.5283C19.616 3.7688 20.2312 4.35107 20.2312 5.49365V18.5063C20.2312 19.6489 19.616 20.2312 18.5283 20.2312H5.47168Z" fill="#878793"/>
</svg>
