<svg width="16" height="16" viewBox="0 0 16 16" fill="none" xmlns="http://www.w3.org/2000/svg">
<path d="M1.98858 4.65238H3.1201C3.48403 4.65238 3.7818 4.35409 3.7818 3.99613C3.7818 3.62492 3.48403 3.33325 3.1201 3.33325H1.98858C1.62465 3.33325 1.3335 3.62492 1.3335 3.99613C1.3335 4.35409 1.62465 4.65238 1.98858 4.65238ZM5.75368 4.52643H14.1308C14.4286 4.52643 14.6668 4.29443 14.6668 3.99613C14.6668 3.69121 14.4286 3.4592 14.1308 3.4592H5.75368C5.44929 3.4592 5.2177 3.69121 5.2177 3.99613C5.2177 4.29443 5.44929 4.52643 5.75368 4.52643ZM1.98858 8.6628H3.1201C3.48403 8.6628 3.7818 8.3645 3.7818 7.99992C3.7818 7.63534 3.48403 7.34367 3.1201 7.34367H1.98858C1.62465 7.34367 1.3335 7.63534 1.3335 7.99992C1.3335 8.3645 1.62465 8.6628 1.98858 8.6628ZM5.75368 8.53685H14.1308C14.4286 8.53685 14.6668 8.29821 14.6668 7.99992C14.6668 7.70162 14.4286 7.46962 14.1308 7.46962H5.75368C5.44929 7.46962 5.2177 7.70162 5.2177 7.99992C5.2177 8.29821 5.44929 8.53685 5.75368 8.53685ZM1.98858 12.6666H3.1201C3.48403 12.6666 3.7818 12.3683 3.7818 12.0103C3.7818 11.6391 3.48403 11.3475 3.1201 11.3475H1.98858C1.62465 11.3475 1.3335 11.6391 1.3335 12.0103C1.3335 12.3683 1.62465 12.6666 1.98858 12.6666ZM5.75368 12.5406H14.1308C14.4286 12.5406 14.6668 12.3086 14.6668 12.0103C14.6668 11.7054 14.4286 11.4734 14.1308 11.4734H5.75368C5.44929 11.4734 5.2177 11.7054 5.2177 12.0103C5.2177 12.3086 5.44929 12.5406 5.75368 12.5406Z" fill="#BFBBCF"/>
</svg>
