<svg width="16" height="16" viewBox="0 0 16 16" fill="none" xmlns="http://www.w3.org/2000/svg">
<path d="M14.3026 1.33203H11.6979C11.4967 1.33203 11.3336 1.4923 11.3336 1.69001V14.3074C11.3336 14.505 11.4967 14.6654 11.6979 14.6654H14.3026C14.5038 14.6654 14.6669 14.505 14.6669 14.3074V1.69001C14.6669 1.4923 14.5039 1.33203 14.3026 1.33203Z" fill="white"/>
<path d="M3.63601 7.9987H1.03131C0.830096 7.9987 0.666992 8.15915 0.666992 8.35708V14.307C0.666992 14.5049 0.830096 14.6654 1.03131 14.6654H3.63601C3.83722 14.6654 4.00033 14.5049 4.00033 14.307V8.35708C4.00033 8.15918 3.83722 7.9987 3.63601 7.9987Z" fill="white"/>
<path d="M6.36464 4.66536H8.96934C9.17059 4.66536 9.33366 4.83943 9.33366 5.05416V14.2766C9.33366 14.4912 9.17056 14.6654 8.96934 14.6654H6.36464C6.16343 14.6654 6.00033 14.4912 6.00033 14.2766V5.05416C6.00033 4.83943 6.16343 4.66536 6.36464 4.66536Z" fill="white"/>
</svg>
