<svg width="24" height="24" viewBox="0 0 24 24" fill="none" xmlns="http://www.w3.org/2000/svg">
<path d="M17.0235 7C18.4006 7 19.5743 7.49844 20.5446 8.49533C21.5149 9.46106 22 10.6293 22 12C22 13.3707 21.5149 14.5545 20.5446 15.5514C19.5743 16.5171 18.4006 17 17.0235 17H12.9859V15.0841H17.0235C17.8685 15.0841 18.5884 14.7882 19.1831 14.1963C19.8091 13.5732 20.1221 12.8411 20.1221 12C20.1221 11.1589 19.8091 10.4424 19.1831 9.85047C18.5884 9.22741 17.8685 8.91589 17.0235 8.91589H12.9859V7H17.0235ZM8.00939 12.9813V11.0187H15.9906V12.9813H8.00939ZM4.76995 9.85047C4.17527 10.4424 3.87793 11.1589 3.87793 12C3.87793 12.8411 4.17527 13.5732 4.76995 14.1963C5.39593 14.7882 6.13146 15.0841 6.97653 15.0841H11.0141V17H6.97653C5.59937 17 4.42567 16.5171 3.4554 15.5514C2.48513 14.5545 2 13.3707 2 12C2 10.6293 2.48513 9.46106 3.4554 8.49533C4.42567 7.49844 5.59937 7 6.97653 7H11.0141V8.91589H6.97653C6.13146 8.91589 5.39593 9.22741 4.76995 9.85047Z" fill="#878793"/>
</svg>
