<svg width="13" height="15" viewBox="0 0 13 15" fill="none" xmlns="http://www.w3.org/2000/svg">
<path d="M10.75 10.3887C11.3255 10.3887 11.8125 10.599 12.2109 11.0195C12.6094 11.418 12.8086 11.8939 12.8086 12.4473C12.8086 13.0228 12.5983 13.5208 12.1777 13.9414C11.7793 14.3398 11.3034 14.5391 10.75 14.5391C10.1966 14.5391 9.70964 14.3398 9.28906 13.9414C8.89062 13.5208 8.69141 13.0228 8.69141 12.4473C8.69141 12.2259 8.70247 12.071 8.72461 11.9824L3.71094 9.06055C3.29036 9.43685 2.80339 9.625 2.25 9.625C1.67448 9.625 1.17643 9.41471 0.755859 8.99414C0.335286 8.57357 0.125 8.07552 0.125 7.5C0.125 6.92448 0.335286 6.42643 0.755859 6.00586C1.17643 5.58529 1.67448 5.375 2.25 5.375C2.80339 5.375 3.29036 5.56315 3.71094 5.93945L8.69141 3.05078C8.64714 2.82943 8.625 2.66341 8.625 2.55273C8.625 1.97721 8.83529 1.47917 9.25586 1.05859C9.67643 0.638021 10.1745 0.427734 10.75 0.427734C11.3255 0.427734 11.8236 0.638021 12.2441 1.05859C12.6647 1.47917 12.875 1.97721 12.875 2.55273C12.875 3.12826 12.6647 3.6263 12.2441 4.04688C11.8236 4.46745 11.3255 4.67773 10.75 4.67773C10.2188 4.67773 9.73177 4.47852 9.28906 4.08008L4.30859 7.00195C4.35286 7.22331 4.375 7.38932 4.375 7.5C4.375 7.61068 4.35286 7.77669 4.30859 7.99805L9.35547 10.9199C9.75391 10.5658 10.2188 10.3887 10.75 10.3887Z" fill="#B2B2BF"/>
</svg>
