<svg id="Layer_1" data-name="Layer 1" xmlns="http://www.w3.org/2000/svg" viewBox="0 0 24 24"><defs><style>.cls-1{fill:#878793;}</style></defs><path class="cls-1" d="M8.51,11.78l-1-1-1,1a.65.65,0,0,1-.91-.93l1-1-1-1s0-.07-.08-.11L4.21,7.45a4.1,4.1,0,0,0-.83,2.44A4.15,4.15,0,0,0,7.51,14,4.05,4.05,0,0,0,10,13.19L8.63,11.86A.32.32,0,0,1,8.51,11.78Z"/><path class="cls-1" d="M7.5,9l1-1a.64.64,0,0,1,.91.91l-1,1,1,1,.06.09c.46.46.91.91,1.36,1.34a4.06,4.06,0,0,0,.81-2.44A4.15,4.15,0,0,0,7.51,5.77a4.08,4.08,0,0,0-2.41.8L6.66,8.16Z"/><path class="cls-1" d="M19.37,11H13.48a.88.88,0,1,0,0,1.76h5.89a.88.88,0,1,0,0-1.76Z"/><path class="cls-1" d="M20.25,16.5a.87.87,0,0,0-.88-.88H14.2l.47.46L16,17.39h3.38A.88.88,0,0,0,20.25,16.5Z"/><path class="cls-1" d="M13.48,8.7h5.89a.89.89,0,0,0,0-1.77H13.48a.89.89,0,0,0,0,1.77Z"/><path class="cls-1" d="M4.27,15.62a.89.89,0,1,0,0,1.77h9.89l-1.77-1.77Z"/><path class="cls-1" d="M2.25,3.84,3.14,3c3.33,3.32,7.28,7.56,10.46,10.46l1,1c.07.09.85.86,1.11,1.11L21,20.75l.07.06-.9.9Z"/></svg>