<svg xmlns="http://www.w3.org/2000/svg" width="21" height="20" viewBox="0 0 21 20" fill="none">
<path d="M20.4534 0H16.5464C16.2446 0 15.9999 0.240398 15.9999 0.536963V19.463C15.9999 19.7595 16.2446 20 16.5464 20H20.4534C20.7553 20 20.9999 19.7595 20.9999 19.463V0.536963C20.9999 0.240398 20.7553 0 20.4534 0Z" fill="#908CA0"/>
<path d="M4.45353 10H0.546472C0.244655 10 0 10.2407 0 10.5376V19.4624C0 19.7593 0.244655 20 0.546472 20H4.45353C4.75534 20 5 19.7593 5 19.4624V10.5376C5 10.2407 4.75534 10 4.45353 10Z" fill="#908CA0"/>
<path d="M8.54647 5H12.4535C12.7554 5 13 5.26109 13 5.58319V19.4168C13 19.7388 12.7553 20 12.4535 20H8.54647C8.24466 20 8 19.7388 8 19.4168V5.58319C8 5.26109 8.24466 5 8.54647 5Z" fill="#908CA0"/>
</svg>