<svg width="10" height="10" viewBox="0 0 10 10" fill="none" xmlns="http://www.w3.org/2000/svg">
<path d="M5.79595 5.00009L9.33509 1.46081C9.55497 1.2411 9.55497 0.884623 9.33509 0.664919C9.1152 0.445027 8.75911 0.445027 8.53923 0.664919L5.00009 4.2042L1.46077 0.664919C1.24089 0.445027 0.884795 0.445027 0.664912 0.664919C0.445029 0.884623 0.445029 1.2411 0.664912 1.46081L4.20424 5.00009L0.664912 8.53938C0.445029 8.75908 0.445029 9.11556 0.664912 9.33527C0.774854 9.44503 0.918941 9.5 1.06284 9.5C1.20674 9.5 1.35083 9.44503 1.46077 9.33508L5.00009 5.79579L8.53923 9.33508C8.64917 9.44503 8.79326 9.5 8.93716 9.5C9.08106 9.5 9.22515 9.44503 9.33509 9.33508C9.55497 9.11538 9.55497 8.7589 9.33509 8.53919L5.79595 5.00009Z" fill="white"/>
</svg>
