<svg width="12" height="12" viewBox="0 0 12 12" fill="none" xmlns="http://www.w3.org/2000/svg">
	<path d="M10.7352 1.41811V7.91117H4.24213V1.41811H10.7352ZM10.7352 0.335938H4.24213C3.64694 0.335938 3.15996 0.822917 3.15996 1.41811V7.91117C3.15996 8.50637 3.64694 8.99335 4.24213 8.99335H10.7352C11.3304 8.99335 11.8174 8.50637 11.8174 7.91117V1.41811C11.8174 0.822917 11.3304 0.335938 10.7352 0.335938ZM6.13594 5.56826L7.05038 6.79112L8.39228 5.11374L10.1941 7.37008H4.78322L6.13594 5.56826ZM0.995605 2.50029V10.0755C0.995605 10.6707 1.48258 11.1577 2.07778 11.1577H9.65301V10.0755H2.07778V2.50029H0.995605Z" fill="#3456FF"/>
</svg>
