<svg width="24" height="24" viewBox="0 0 24 24" fill="none" xmlns="http://www.w3.org/2000/svg">
<path d="M12 22C17.4706 22 22 17.4706 22 12C22 6.53922 17.4608 2 11.9902 2C6.52941 2 2 6.53922 2 12C2 17.4706 6.53922 22 12 22ZM12 20.3333C7.37255 20.3333 3.67647 16.6275 3.67647 12C3.67647 7.38235 7.36275 3.66667 11.9902 3.66667C16.6176 3.66667 20.3235 7.38235 20.3333 12C20.3431 16.6275 16.6275 20.3333 12 20.3333ZM12 6.96078C11.7941 6.96078 11.6275 7.03922 11.4314 7.23529L8.10784 10.549C7.97059 10.6765 7.91177 10.8529 7.91177 11.0588C7.91177 11.4608 8.21569 11.7647 8.61765 11.7647C8.83333 11.7647 9.0098 11.6863 9.13726 11.549L10.3627 10.3235L11.3431 9.14706L11.2647 11.2157V16.3235C11.2647 16.7549 11.5784 17.0588 12 17.0588C12.4314 17.0588 12.7353 16.7549 12.7353 16.3235V11.2157L12.6569 9.13726L13.6569 10.3235L14.8627 11.549C14.9902 11.6961 15.1765 11.7647 15.3824 11.7647C15.7843 11.7647 16.098 11.4608 16.098 11.0588C16.098 10.8529 16.0294 10.6765 15.902 10.549L12.5784 7.23529C12.3922 7.04902 12.2157 6.96078 12 6.96078Z" fill="#878793"/>
</svg>
