<svg xmlns="http://www.w3.org/2000/svg" width="14" height="16" viewBox="0 0 14 16" fill="none">
<path d="M1.19189 12.5972H12.8008C13.4893 12.5972 13.9067 12.2383 13.9067 11.7109C13.9067 10.9785 13.1597 10.3193 12.5298 9.66748C12.0464 9.16211 11.9146 8.12207 11.856 7.27978C11.8047 4.46729 11.0576 2.52637 9.10937 1.82324C8.83105 0.871094 8.07666 0.109375 6.99268 0.109375C5.91602 0.109375 5.1543 0.871094 4.8833 1.82324C2.93506 2.52637 2.18799 4.46729 2.13672 7.27978C2.07812 8.12207 1.94629 9.16211 1.46289 9.66748C0.825684 10.3193 0.0859375 10.9785 0.0859375 11.7109C0.0859375 12.2383 0.496094 12.5972 1.19189 12.5972ZM6.99268 15.5269C8.23779 15.5269 9.146 14.6187 9.24121 13.5933H4.75146C4.84668 14.6187 5.75488 15.5269 6.99268 15.5269Z" fill="#E5E4EC"/>
</svg>