<svg width="20" height="20" viewBox="0 0 20 20" fill="none" xmlns="http://www.w3.org/2000/svg">
<path fill-rule="evenodd" clip-rule="evenodd" d="M16.667 2.5H3.33366C2.41699 2.5 1.66699 3.25 1.66699 4.16667V15.8333C1.66699 16.75 2.41699 17.5 3.33366 17.5H16.667C17.5837 17.5 18.3337 16.75 18.3337 15.8333V4.16667C18.3337 3.25 17.5837 2.5 16.667 2.5ZM8.33366 14.1667H4.16699V12.5H8.33366V14.1667ZM8.33366 10.8333H4.16699V9.16667H8.33366V10.8333ZM8.33366 7.5H4.16699V5.83333H8.33366V7.5ZM12.3503 12.5L10.0003 10.1333L11.1753 8.95833L12.3503 10.1417L14.992 7.5L16.1753 8.68333L12.3503 12.5Z" fill="white"/>
</svg>
