<svg width="8" height="11" viewBox="0 0 8 11" fill="none" xmlns="http://www.w3.org/2000/svg">
<path d="M2.08008 10.8311H5.9375C6.77246 10.8311 7.3291 10.2842 7.3291 9.47363V1.46582C7.3291 0.655273 6.77246 0.113281 5.9375 0.113281H2.08008C1.23047 0.113281 0.664062 0.655273 0.664062 1.46582V9.47363C0.664062 10.2842 1.23047 10.8311 2.08008 10.8311ZM2.24609 9.8252C1.86035 9.8252 1.64062 9.61523 1.64062 9.24414V1.69531C1.64062 1.32422 1.86035 1.11426 2.24609 1.11426H2.44629V1.3584C2.44629 1.57324 2.58789 1.71484 2.79785 1.71484H5.2002C5.41016 1.71484 5.55176 1.57324 5.55176 1.3584V1.11426H5.74707C6.13281 1.11426 6.35254 1.3291 6.35254 1.7002V9.24414C6.35254 9.61523 6.13281 9.8252 5.74707 9.8252H2.24609ZM2.69531 9.43945H5.30273C5.44434 9.43945 5.55176 9.3418 5.55176 9.19043C5.55176 9.04395 5.44434 8.94629 5.30273 8.94629H2.69531C2.55371 8.94629 2.44629 9.04395 2.44629 9.19043C2.44629 9.3418 2.55371 9.43945 2.69531 9.43945Z" fill="#89898E"/>
</svg>
