<svg width="24" height="24" viewBox="0 0 24 24" fill="none" xmlns="http://www.w3.org/2000/svg">
<rect width="24" height="24" fill="white"/>
<path fill-rule="evenodd" clip-rule="evenodd" d="M19.2567 9.51074L19.3518 9.54535C21.9999 10.5104 21.9999 10.6228 22 10.895V13.0147C22 13.2865 22 13.3886 19.3532 14.4365L19.2645 14.472L18.893 15.3725L18.9372 15.4682C20.1233 18.0162 20.045 18.0961 19.8558 18.2889L19.8556 18.2891L18.3503 19.7918C18.2876 19.8552 18.1785 19.8963 18.0866 19.8963C17.8596 19.8963 16.9836 19.5694 15.4839 18.9217L15.3972 18.8856L14.4856 19.2618L14.4495 19.3579C13.4818 22 13.3714 22 13.105 22H10.984C10.7244 22 10.6172 22 9.57373 19.3652L9.53814 19.2717L8.62266 18.8937L8.5338 18.9362C6.31483 19.9609 6.05956 19.9609 5.97562 19.9609C5.88286 19.9609 5.7741 19.9168 5.71126 19.8552L4.2121 18.358L4.2118 18.3577C4.0204 18.1634 3.94966 18.0916 5.07469 15.4858L5.11465 15.3937L4.74245 14.492L4.6478 14.4578C2 13.4892 2 13.3762 2 13.1039V10.983C2 10.7115 2 10.6098 4.64255 9.56738L4.73363 9.53144L5.10578 8.62708L5.06225 8.53246C3.87769 5.98098 3.95677 5.90059 4.14741 5.70864L5.65025 4.20919C5.7119 4.14719 5.82007 4.10474 5.91277 4.10474C6.14122 4.10474 7.0176 4.43229 8.51855 5.07822L8.60557 5.11515L9.5157 4.73643L9.5521 4.64031C10.5191 2 10.6368 2 10.8953 2H13.0157C13.2752 2 13.382 2 14.4248 4.63573L14.4615 4.7287L15.3764 5.10477L15.4653 5.06403C17.6828 4.03882 17.9387 4.03882 18.0232 4.03882C18.1161 4.03882 18.2239 4.08255 18.2853 4.14471L19.7867 5.63985L19.7868 5.63997C19.9734 5.8288 20.0508 5.90706 18.9254 8.51236L18.8851 8.60539L19.2567 9.51074ZM8.56374 12.0005C8.56374 13.8964 10.1054 15.44 12.0004 15.44C13.8946 15.44 15.4359 13.8961 15.4359 12.0005C15.4359 10.1049 13.8945 8.56306 12.0004 8.56306C10.1054 8.56306 8.56374 10.1046 8.56374 12.0005Z" fill="#878793"/>
</svg>
