<svg width="24" height="24" viewBox="0 0 24 24" fill="none" xmlns="http://www.w3.org/2000/svg">
<path d="M19.0145 21.1042C18.7624 21.365 18.3277 21.365 18.0669 21.1042L15.6128 18.6527C15.6129 18.6526 15.6128 18.6527 15.6128 18.6527L2.75107 5.80408C2.75104 5.80411 2.7511 5.80404 2.75107 5.80408L0.888305 3.94301C0.63619 3.6909 0.63619 3.24753 0.888305 2.99541C1.14911 2.7346 1.58379 2.7346 1.8446 2.99541L19.0145 20.1566C19.2753 20.4174 19.2666 20.8434 19.0145 21.1042Z" fill="#878793"/>
<path d="M17 16.2127C17 16.3821 16.9899 16.5445 16.9701 16.6996L5.28414 5.01953H14.3386C16.0587 5.01953 17 6.0122 17 7.73224V16.2127Z" fill="#878793"/>
<path d="M2.22512 6.69215C2.1214 7.00064 2.06641 7.34832 2.06641 7.73224V16.2127C2.06641 17.9242 3.0933 18.9168 4.81335 18.9168H14.2531C14.3223 18.9168 14.3904 18.9152 14.4574 18.912L2.22512 6.69215Z" fill="#878793"/>
<path d="M18 14.4926L21.0212 17.1882C21.3121 17.445 21.6544 17.6075 21.9625 17.6075C22.63 17.6075 23.0664 17.1198 23.0664 16.4181V7.51831C23.0664 6.8166 22.63 6.32882 21.9625 6.32882C21.6544 6.32882 21.3121 6.49141 21.0212 6.74814L18 9.43518V14.4926Z" fill="#878793"/>
</svg>
