<svg width="16" height="11" viewBox="0 0 16 11" fill="none" xmlns="http://www.w3.org/2000/svg">
	<path d="M12.2255 10.0227C12.3912 10.1897 12.654 10.2013 12.8197 10.0227C12.9968 9.84417 12.9854 9.59075 12.8197 9.42373L3.74088 0.277613C3.57519 0.110587 3.30665 0.110587 3.14096 0.277613C2.98098 0.43888 2.98098 0.715337 3.14096 0.876603L12.2255 10.0227ZM12.734 8.41581C14.3109 7.36182 15.3337 5.91618 15.3337 5.27112C15.3337 4.16529 12.3455 0.628944 8.00318 0.628944C7.0833 0.628944 6.22627 0.784451 5.44352 1.04939L6.8719 2.48927C7.22043 2.33952 7.60324 2.25889 8.00318 2.25889C9.66582 2.25889 11.0085 3.58934 11.0085 5.27112C11.0085 5.67428 10.9228 6.06593 10.7628 6.40574L12.734 8.41581ZM8.00318 9.91329C9.00305 9.91329 9.92293 9.73474 10.74 9.42949L9.30016 7.97809C8.91164 8.17967 8.47169 8.2891 8.00318 8.2891C6.33483 8.2891 5.00357 6.91258 4.99786 5.27112C4.99786 4.79308 5.10642 4.34383 5.30068 3.94643L3.42092 2.04003C1.724 3.11706 0.666992 4.62029 0.666992 5.27112C0.666992 6.37118 3.71231 9.91329 8.00318 9.91329ZM9.72867 5.15593C9.72867 4.20561 8.96877 3.43383 8.01461 3.43383C7.94605 3.43383 7.87749 3.43383 7.82035 3.44535L9.71725 5.35751C9.72296 5.29415 9.72867 5.22504 9.72867 5.15593ZM6.27769 5.16168C6.27769 6.11201 7.06045 6.88954 8.00318 6.88954C8.07175 6.88954 8.14031 6.88378 8.21458 6.87802L6.28912 4.93706C6.28341 5.01194 6.27769 5.08681 6.27769 5.16168Z" fill="#908CA0"/>
</svg>
