<svg width="14" height="13" viewBox="0 0 14 13" fill="none" xmlns="http://www.w3.org/2000/svg">
<path d="M6.99414 12.8281C10.3164 12.8281 13.0586 10.0859 13.0586 6.76953C13.0586 3.45312 10.3105 0.710938 6.98828 0.710938C3.67188 0.710938 0.935547 3.45312 0.935547 6.76953C0.935547 10.0859 3.67773 12.8281 6.99414 12.8281ZM6.85352 7.97656C6.47266 7.97656 6.26172 7.80078 6.26172 7.44922V7.38477C6.26172 6.83398 6.57812 6.52344 7.01172 6.21875C7.52734 5.86133 7.7793 5.66797 7.7793 5.29297C7.7793 4.88867 7.46875 4.61914 6.98828 4.61914C6.63672 4.61914 6.37891 4.79492 6.18555 5.09375C5.99805 5.30469 5.91016 5.48633 5.55859 5.48633C5.27148 5.48633 5.03711 5.29883 5.03711 5.00586C5.03711 4.88867 5.06055 4.7832 5.10156 4.67773C5.29492 4.10352 5.99805 3.63477 7.04688 3.63477C8.13672 3.63477 9.05664 4.21484 9.05664 5.23438C9.05664 5.9375 8.66992 6.28906 8.06055 6.68164C7.67383 6.93359 7.45117 7.14453 7.43359 7.46094C7.43359 7.47852 7.42773 7.50781 7.42773 7.53125C7.41016 7.7832 7.19336 7.97656 6.85352 7.97656ZM6.84766 9.85156C6.44922 9.85156 6.12109 9.56445 6.12109 9.17773C6.12109 8.79102 6.44336 8.50391 6.84766 8.50391C7.24609 8.50391 7.56836 8.79102 7.56836 9.17773C7.56836 9.57031 7.24023 9.85156 6.84766 9.85156Z" fill="#878793"/>
</svg>
