<svg width="14" height="14" viewBox="0 0 14 14" fill="none" xmlns="http://www.w3.org/2000/svg">
	<path fill-rule="evenodd" clip-rule="evenodd" d="M4.06348 6.81395V0.333984H9.79512V6.81395H4.06348ZM7.3954 4.85143C8.12749 4.85143 8.72308 4.25947 8.72308 3.53185V1.42233L5.70048 2.31967V4.31798C5.70048 4.62761 5.44704 4.87951 5.13551 4.87951V5.72179C5.91432 5.72179 6.54794 5.09204 6.54794 4.31798V2.94717L7.87562 2.55301V3.53185C7.87562 3.79504 7.6602 4.00915 7.3954 4.00915V4.85143Z" fill="white"/>
	<path d="M3.21578 3.84066H0.333008V5.74983H3.21578V3.84066Z" fill="white"/>
	<path d="M13.6663 3.84066H10.6423V5.74983H13.6663V3.84066Z" fill="white"/>
	<path d="M4.82454 9.6523H6.57596V13.6672H4.82454V9.6523Z" fill="white"/>
	<path d="M9.17492 9.6523H7.4235V13.6672H9.17492V9.6523Z" fill="white"/>
	<path fill-rule="evenodd" clip-rule="evenodd" d="M10.6423 7.65621H3.21578V6.59212H0.333008V13.6673H3.97708V8.81013H10.0223V13.6673H13.6663V6.59212H10.6423V7.65621ZM2.79064 12.0108H1.94318V9.3155H2.79064V12.0108ZM11.2087 9.3155H12.0562V12.0108H11.2087V9.3155Z" fill="white"/>
</svg>
