<svg width="24" height="24" viewBox="0 0 24 24" fill="none" xmlns="http://www.w3.org/2000/svg">
<path fill-rule="evenodd" clip-rule="evenodd" d="M17.7895 12.5263C17.7895 13.1579 17.3684 13.5789 16.7368 13.5789H6.62474C6.35952 13.5789 6.10517 13.6843 5.91763 13.8718L2 17.7895V3.05263C2 2.42105 2.42105 2 3.05263 2H16.7368C17.3684 2 17.7895 2.42105 17.7895 3.05263V12.5263ZM19.5729 5.15789H20.9321C21.5729 5.15789 22 5.57895 22 6.21053V22L17.7286 18.4181H7.27838C6.63767 18.4181 6.21053 17.997 6.21053 17.3655V16.1527C6.21053 15.6004 6.65824 15.1527 7.21053 15.1527H18.5729C19.1252 15.1527 19.5729 14.705 19.5729 14.1527V5.15789Z" fill="#878793"/>
</svg>
