<svg id="Layer_1" data-name="Layer 1" xmlns="http://www.w3.org/2000/svg" viewBox="0 0 24 24"><defs><style>.cls-1{fill:#878793;}</style></defs><path class="cls-1" d="M7.51,14.44a4.13,4.13,0,1,0-4.13-4.13A4.14,4.14,0,0,0,7.51,14.44Zm6-5.32h5.89a.89.89,0,0,0,0-1.77H13.48a.89.89,0,0,0,0,1.77ZM7.05,12.73a.72.72,0,0,1-.55-.21L5.08,11a.7.7,0,0,1-.2-.47.67.67,0,0,1,.7-.69.69.69,0,0,1,.5.2l.91,1L8.87,8.48a.7.7,0,0,1,.57-.3.68.68,0,0,1,.68.69.65.65,0,0,1-.12.38L7.61,12.48A.71.71,0,0,1,7.05,12.73Zm6.43.48h5.89a.88.88,0,1,0,0-1.76H13.48a.88.88,0,1,0,0,1.76Zm-9.21,4.6h15.1a.89.89,0,0,0,0-1.77H4.27a.89.89,0,1,0,0,1.77Z"/></svg>