<svg width="24" height="24" viewBox="0 0 24 24" fill="none" xmlns="http://www.w3.org/2000/svg">
<path fill-rule="evenodd" clip-rule="evenodd" d="M3.56564 4.00033L20.4455 4C20.9784 4 21.4118 4.2023 21.7258 4.63567C21.8957 4.86892 21.9906 5.1481 21.998 5.43629C22 5.48852 22 5.54075 22 5.59298V18.4487C22 18.7839 21.9211 19.0929 21.7245 19.365C21.4124 19.7947 20.982 20 20.4522 20H19.4265C18.4828 17.9465 15.808 15.8696 11.9897 15.8696C8.17886 15.8696 5.50561 17.9465 4.56217 20H3.55635C3.02581 20 2.59475 19.8017 2.28074 19.3719C2.09785 19.1237 1.99975 18.8234 2.00088 18.5154C1.99956 18.3594 2 18.2032 2.00044 18.0471C2.00066 17.969 2.00088 17.891 2.00088 17.813V5.54372C2.00088 4.95797 2.25189 4.51105 2.74894 4.20329C2.99763 4.04958 3.27649 4.00033 3.56564 4.00033ZM15.71 10.1084C15.71 12.4277 13.9844 14.209 11.999 14.209C10.0044 14.209 8.28809 12.4277 8.28809 10.127C8.28809 7.854 10.0137 6.11914 11.999 6.11914C13.9844 6.11914 15.71 7.81689 15.71 10.1084Z" fill="#878793"/>
</svg>
