<svg width="20" height="20" viewBox="0 0 20 20" fill="none" xmlns="http://www.w3.org/2000/svg">
<path d="M14.5217 7.10887L17.4216 5.57914C17.2965 5.46203 17.148 5.36688 16.9526 5.27173L11.4734 2.38792C10.9888 2.13175 10.4885 2 10.0039 2C9.51148 2 9.01124 2.13175 8.52662 2.38792L7.02589 3.17841L14.5217 7.10887ZM9.99609 9.47301L13.318 7.73102L5.86126 3.79323L3.04739 5.27173C2.85979 5.36688 2.70347 5.46203 2.57841 5.57914L9.99609 9.47301ZM10.5745 18C10.6527 17.9854 10.723 17.9488 10.8012 17.9122L16.851 14.7356C17.6092 14.333 18 13.9158 18 12.8692V7.01372C18 6.83074 17.9844 6.67704 17.9453 6.53065L10.5745 10.4245V18ZM9.4255 18V10.4245L2.05471 6.53065C2.01563 6.67704 2 6.83074 2 7.01372V12.8692C2 13.9158 2.39082 14.333 3.149 14.7356L9.19883 17.9122C9.26917 17.9488 9.34734 17.9854 9.4255 18Z" fill="white"/>
</svg>
