<svg width="24" height="24" viewBox="0 0 24 24" fill="none" xmlns="http://www.w3.org/2000/svg">
<path d="M20.0481 3H7.69331C5.74633 3 4.73246 3.99592 4.73246 5.92496V10.9494C5.02855 10.9046 5.32463 10.8777 5.62072 10.8777C5.92578 10.8777 6.23083 10.9046 6.52692 10.9584V8.55383C6.52692 7.76427 6.93067 7.37847 7.68434 7.37847H20.0481C20.7928 7.37847 21.2145 7.76427 21.2145 8.55383V16.8083C21.2145 17.5979 20.7928 17.9837 20.0481 17.9837H11.363C11.2553 18.6207 11.022 19.2308 10.69 19.7692H20.0481C21.9951 19.7692 23 18.7643 23 16.8442V5.92496C23 4.00489 21.9951 3 20.0481 3ZM13.0587 10.4739H13.5791C13.9021 10.4739 14.0098 10.3752 14.0098 10.0612V9.53181C14.0098 9.20881 13.9021 9.11011 13.5791 9.11011H13.0587C12.7357 9.11011 12.6281 9.20881 12.6281 9.53181V10.0612C12.6281 10.3752 12.7357 10.4739 13.0587 10.4739ZM15.5261 10.4739H16.0555C16.3785 10.4739 16.4861 10.3752 16.4861 10.0612V9.53181C16.4861 9.20881 16.3785 9.11011 16.0555 9.11011H15.5261C15.2031 9.11011 15.0954 9.20881 15.0954 9.53181V10.0612C15.0954 10.3752 15.2031 10.4739 15.5261 10.4739ZM18.0024 10.4739H18.5228C18.8458 10.4739 18.9535 10.3752 18.9535 10.0612V9.53181C18.9535 9.20881 18.8458 9.11011 18.5228 9.11011H18.0024C17.6794 9.11011 17.5718 9.20881 17.5718 9.53181V10.0612C17.5718 10.3752 17.6794 10.4739 18.0024 10.4739ZM10.5824 13.363H11.1117C11.4347 13.363 11.5424 13.2643 11.5424 12.9413V12.4119C11.5424 12.0979 11.4347 11.9992 11.1117 11.9992H10.5824C10.2684 11.9992 10.1607 12.0979 10.1607 12.4119V12.9413C10.1607 13.2643 10.2684 13.363 10.5824 13.363ZM13.0587 13.363H13.5791C13.9021 13.363 14.0098 13.2643 14.0098 12.9413V12.4119C14.0098 12.0979 13.9021 11.9992 13.5791 11.9992H13.0587C12.7357 11.9992 12.6281 12.0979 12.6281 12.4119V12.9413C12.6281 13.2643 12.7357 13.363 13.0587 13.363ZM15.5261 13.363H16.0555C16.3785 13.363 16.4861 13.2643 16.4861 12.9413V12.4119C16.4861 12.0979 16.3785 11.9992 16.0555 11.9992H15.5261C15.2031 11.9992 15.0954 12.0979 15.0954 12.4119V12.9413C15.0954 13.2643 15.2031 13.363 15.5261 13.363ZM18.0024 13.363H18.5228C18.8458 13.363 18.9535 13.2643 18.9535 12.9413V12.4119C18.9535 12.0979 18.8458 11.9992 18.5228 11.9992H18.0024C17.6794 11.9992 17.5718 12.0979 17.5718 12.4119V12.9413C17.5718 13.2643 17.6794 13.363 18.0024 13.363ZM5.62072 21.4021C8.13295 21.4021 10.2504 19.3026 10.2504 16.7724C10.2504 14.2423 8.15987 12.1517 5.62072 12.1517C3.09054 12.1517 1 14.2423 1 16.7724C1 19.3116 3.09054 21.4021 5.62072 21.4021ZM5.62969 19.7961C5.28874 19.7961 4.98369 19.5449 4.98369 19.177V17.3915H3.31485C2.98287 17.3915 2.69576 17.1044 2.69576 16.7724C2.69576 16.4405 2.98287 16.1533 3.31485 16.1533H4.98369V14.3679C4.98369 14 5.27977 13.7577 5.62969 13.7577C5.97961 13.7577 6.27569 14 6.27569 14.3679V16.1533H7.94454C8.27651 16.1533 8.55465 16.4405 8.55465 16.7724C8.55465 17.1044 8.27651 17.3915 7.94454 17.3915H6.27569V19.177C6.27569 19.5449 5.97064 19.7961 5.62969 19.7961ZM13.0587 16.2431H13.5791C13.9021 16.2431 14.0098 16.1444 14.0098 15.8303V15.301C14.0098 14.978 13.9021 14.8793 13.5791 14.8793H13.0587C12.7357 14.8793 12.6281 14.978 12.6281 15.301V15.8303C12.6281 16.1444 12.7357 16.2431 13.0587 16.2431ZM15.5261 16.2431H16.0555C16.3785 16.2431 16.4861 16.1444 16.4861 15.8303V15.301C16.4861 14.978 16.3785 14.8793 16.0555 14.8793H15.5261C15.2031 14.8793 15.0954 14.978 15.0954 15.301V15.8303C15.0954 16.1444 15.2031 16.2431 15.5261 16.2431Z" fill="#878793"/>
</svg>
