<svg width="20" height="20" viewBox="0 0 20 20" fill="none" xmlns="http://www.w3.org/2000/svg">
<path d="M3.44971 20H16.5503C18.8574 20 20 18.8574 20 16.5942V3.40576C20 1.14258 18.8574 0 16.5503 0H3.44971C1.15356 0 0 1.13159 0 3.40576V16.5942C0 18.8684 1.15356 20 3.44971 20ZM8.61328 15.7324C8.23975 15.7324 7.94312 15.5676 7.6355 15.1941L4.47144 11.283C4.30664 11.0742 4.20776 10.8105 4.20776 10.5688C4.20776 10.0525 4.60327 9.65698 5.09766 9.65698C5.41626 9.65698 5.67993 9.77783 5.9436 10.1184L8.56934 13.5132L13.667 5.32837C13.8867 4.98779 14.1724 4.823 14.458 4.823C14.9414 4.823 15.4028 5.1416 15.4028 5.66895C15.4028 5.91064 15.271 6.17432 15.1282 6.39404L9.53613 15.1941C9.30542 15.5566 8.9978 15.7324 8.61328 15.7324Z" fill="#908CA0"/>
</svg>
