<svg width="18" height="18" viewBox="0 0 16 16" fill="none" xmlns="http://www.w3.org/2000/svg">
<path d="M8 15.1826C12.0869 15.1826 15.4707 11.7915 15.4707 7.71191C15.4707 3.625 12.0796 0.241211 7.99268 0.241211C3.91309 0.241211 0.529297 3.625 0.529297 7.71191C0.529297 11.7915 3.92041 15.1826 8 15.1826ZM7.17236 11.2935C6.92334 11.2935 6.71826 11.1909 6.52783 10.9346L4.68945 8.67871C4.57959 8.53223 4.51367 8.37109 4.51367 8.20264C4.51367 7.87305 4.77002 7.60205 5.09961 7.60205C5.31201 7.60205 5.47314 7.66797 5.65625 7.90967L7.14307 9.82861L10.2705 4.8042C10.4097 4.58447 10.6001 4.46729 10.7905 4.46729C11.1128 4.46729 11.4131 4.68701 11.4131 5.03125C11.4131 5.19238 11.3179 5.36084 11.23 5.51465L7.7876 10.9346C7.63379 11.1763 7.42139 11.2935 7.17236 11.2935Z" fill="#878793"/>
</svg>
