<svg width="14" height="10" viewBox="0 0 14 10" fill="none" xmlns="http://www.w3.org/2000/svg">
<path d="M0.683594 9.1582C1.08203 9.1582 1.29297 8.99414 1.42188 8.57227L2.06055 6.76758H5.40039L6.03906 8.57227C6.16797 8.99414 6.37891 9.1582 6.77734 9.1582C7.19922 9.1582 7.46875 8.90625 7.46875 8.51367C7.46875 8.36719 7.44531 8.24414 7.38672 8.08008L4.80859 1.10742C4.62695 0.597656 4.28711 0.357422 3.73633 0.357422C3.20898 0.357422 2.86914 0.597656 2.69336 1.10156L0.0976562 8.11523C0.0390625 8.26758 0.015625 8.39648 0.015625 8.52539C0.015625 8.91797 0.267578 9.1582 0.683594 9.1582ZM2.40039 5.66602L3.71875 1.86914H3.75391L5.07227 5.66602H2.40039ZM10.6797 9.20508C11.5645 9.20508 12.3965 8.73047 12.7598 7.98047H12.7832V8.63672C12.7949 8.99414 13.0352 9.21094 13.3809 9.21094C13.7383 9.21094 13.9844 8.98242 13.9844 8.58398V4.72266C13.9844 3.42773 12.9941 2.58398 11.4355 2.58398C10.2344 2.58398 9.2793 3.07617 8.95117 3.84961C8.88672 3.99023 8.85156 4.125 8.85156 4.25391C8.85156 4.55273 9.07422 4.75195 9.38477 4.75195C9.60742 4.75195 9.77734 4.66992 9.90039 4.48828C10.2402 3.84961 10.6973 3.56836 11.3945 3.56836C12.2383 3.56836 12.7539 4.04297 12.7539 4.81055V5.29102L10.9258 5.39648C9.37891 5.47852 8.5293 6.16992 8.5293 7.29492C8.5293 8.4375 9.41992 9.20508 10.6797 9.20508ZM11.0137 8.25586C10.2812 8.25586 9.77734 7.85742 9.77734 7.24805C9.77734 6.66797 10.2461 6.28125 11.0957 6.22852L12.7539 6.11719V6.70898C12.7539 7.58203 11.9805 8.25586 11.0137 8.25586Z" fill="#BFBBCF"/>
</svg>
