<svg width="24" height="24" viewBox="0 0 18 18" fill="none" xmlns="http://www.w3.org/2000/svg">
<path d="M2.74219 4.21875C3.0625 4.21875 3.28125 4.04688 3.28125 3.65625V1.11719C3.28125 0.765625 3.03125 0.546875 2.67188 0.546875C2.38281 0.546875 2.20312 0.648438 1.99219 0.78125L1.4375 1.16406C1.26562 1.27344 1.1875 1.38281 1.1875 1.5625C1.1875 1.78125 1.35156 1.92969 1.53906 1.92188C1.64062 1.92188 1.69531 1.90625 1.82812 1.8125L2.17969 1.57812H2.19531V3.65625C2.19531 4.04688 2.41406 4.21875 2.74219 4.21875ZM5.75781 3.3125H16.3828C16.8047 3.3125 17.1406 2.98438 17.1406 2.5625C17.1406 2.14062 16.8125 1.8125 16.3828 1.8125H5.75781C5.33594 1.8125 5.00781 2.14062 5.00781 2.5625C5.00781 2.98438 5.33594 3.3125 5.75781 3.3125ZM1.46094 9.00781H3.51562C3.74219 9.00781 3.92188 8.85156 3.92188 8.60938C3.92188 8.35938 3.75 8.20312 3.51562 8.20312H2.41406V8.1875L3.04688 7.67969C3.58594 7.24219 3.8125 6.99219 3.8125 6.51562C3.8125 5.86719 3.26562 5.4375 2.39062 5.4375C1.61719 5.4375 1.0625 5.82812 1.0625 6.33594C1.0625 6.60156 1.23438 6.74219 1.51562 6.74219C1.69531 6.74219 1.82812 6.67969 1.94531 6.50781C2.0625 6.32812 2.20312 6.23438 2.40625 6.23438C2.625 6.23438 2.78125 6.375 2.78125 6.58594C2.78125 6.77344 2.6875 6.92188 2.28125 7.25781L1.24219 8.10156C1.08594 8.23438 1.01562 8.375 1.01562 8.5625C1.01562 8.82031 1.1875 9.00781 1.46094 9.00781ZM5.75781 8.11719H16.3828C16.8047 8.11719 17.1406 7.78906 17.1406 7.36719C17.1406 6.94531 16.8125 6.61719 16.3828 6.61719H5.75781C5.33594 6.61719 5.00781 6.94531 5.00781 7.36719C5.00781 7.78906 5.33594 8.11719 5.75781 8.11719ZM2.40625 13.9375C3.375 13.9375 3.9375 13.5156 3.9375 12.8438C3.9375 12.3984 3.63281 12.1016 3.07812 12.0547V12.0312C3.47656 11.9531 3.79688 11.6797 3.79688 11.2188C3.79688 10.6016 3.1875 10.2734 2.39844 10.2734C1.77344 10.2734 1.07812 10.5547 1.07812 11.0938C1.07812 11.3281 1.25 11.4922 1.5 11.4922C1.67969 11.4922 1.76562 11.4219 1.875 11.3047C2.0625 11.1094 2.21094 11.0547 2.39844 11.0547C2.63281 11.0547 2.80469 11.1641 2.80469 11.3906C2.80469 11.6016 2.63281 11.7109 2.32031 11.7109H2.21875C2 11.7109 1.85156 11.8281 1.85156 12.0703C1.85156 12.2969 1.99219 12.4219 2.21875 12.4219H2.32812C2.66406 12.4219 2.84375 12.5312 2.85156 12.7656C2.85156 12.9766 2.65625 13.1172 2.40625 13.1172C2.125 13.1172 1.92969 12.9609 1.78125 12.8281C1.6875 12.7422 1.60156 12.6719 1.45312 12.6719C1.17969 12.6719 0.992188 12.8281 0.992188 13.0938C0.992188 13.6328 1.74219 13.9375 2.40625 13.9375ZM5.75781 12.9219H16.3828C16.8047 12.9219 17.1406 12.5938 17.1406 12.1719C17.1406 11.75 16.8125 11.4219 16.3828 11.4219H5.75781C5.33594 11.4219 5.00781 11.75 5.00781 12.1719C5.00781 12.5938 5.33594 12.9219 5.75781 12.9219Z" fill="#B2B2BF"/>
</svg>
