<svg width="24" height="24" viewBox="0 0 24 24" fill="none" xmlns="http://www.w3.org/2000/svg">
<path d="M21.9608 5.90583C21.2121 6.23032 20.4188 6.44451 19.6067 6.54151C20.4618 6.03563 21.102 5.24229 21.4092 4.308C20.6167 4.76324 19.7383 5.09461 18.8033 5.27917C18.1865 4.62989 17.3691 4.19926 16.478 4.05414C15.587 3.90902 14.6722 4.05754 13.8758 4.47664C13.0793 4.89573 12.4457 5.56194 12.0734 6.37183C11.701 7.18171 11.6108 8.08994 11.8167 8.95548C8.40833 8.79717 5.38917 7.1854 3.36667 4.75093C2.99899 5.36596 2.80722 6.06744 2.81167 6.78102C2.81167 8.18363 3.53667 9.41645 4.635 10.1407C3.98405 10.1203 3.34748 9.94709 2.77833 9.63546V9.68467C2.77796 10.6168 3.10522 11.5203 3.70459 12.242C4.30395 12.9636 5.13851 13.459 6.06667 13.644C5.46525 13.8026 4.83534 13.8264 4.22333 13.7137C4.48677 14.5159 4.99805 15.2171 5.68585 15.7196C6.37364 16.222 7.20363 16.5006 8.06 16.5164C6.60961 17.6368 4.81873 18.2449 2.975 18.243C2.65 18.243 2.32583 18.2242 2 18.1881C3.87976 19.3728 6.06543 20.0016 8.2975 20C15.8417 20 19.9625 13.8515 19.9625 8.52895C19.9625 8.3567 19.9625 8.18445 19.95 8.0122C20.755 7.44203 21.4494 6.73412 22 5.92223L21.9608 5.90583Z" fill="black"/>
</svg>
