<svg width="24" height="24" viewBox="0 0 24 24" fill="none" xmlns="http://www.w3.org/2000/svg">
<path d="M10.9731 22H13.0269C14.2997 22 14.9816 21.2536 14.9816 20.0522V12.8677H18.6727C19.4182 12.8677 20 12.4126 20 11.7209C20 11.2931 19.7818 10.9745 19.4545 10.6468L13.1228 2.55522C12.7682 2.20024 12.4046 2 11.9955 2C11.5954 2 11.2227 2.20024 10.8772 2.55522L4.54548 10.6468C4.19092 10.9927 4 11.2931 4 11.7209C4 12.4126 4.58185 12.8677 5.31825 12.8677H9.01844V20.0522C9.01844 21.2536 9.70029 22 10.9731 22Z" fill="#878793"/>
</svg>
