<svg width="14" height="14" viewBox="0 0 14 14" fill="none" xmlns="http://www.w3.org/2000/svg">
<path d="M4.01758 13.3438C4.26367 13.3438 4.44531 13.2266 4.73828 12.9629L6.90039 11.0117L10.7324 11.0176C12.4961 11.0176 13.4863 9.99805 13.4863 8.25781V3.70508C13.4863 1.96484 12.4961 0.945312 10.7324 0.945312H3.26172C1.50391 0.945312 0.507812 1.96484 0.507812 3.70508V8.25781C0.507812 10.0039 1.5332 11.0117 3.2207 11.0117H3.45508V12.7109C3.45508 13.0977 3.66016 13.3438 4.01758 13.3438ZM3.90039 4.38477C3.69531 4.38477 3.52539 4.21484 3.52539 3.99805C3.52539 3.79297 3.69531 3.62305 3.90039 3.62305H10.0352C10.2461 3.62305 10.416 3.79297 10.416 3.99805C10.416 4.21484 10.2461 4.38477 10.0352 4.38477H3.90039ZM3.90039 6.32422C3.69531 6.32422 3.52539 6.14844 3.52539 5.93164C3.52539 5.73242 3.69531 5.55664 3.90039 5.55664H10.0352C10.2461 5.55664 10.416 5.72656 10.416 5.93164C10.416 6.14844 10.2461 6.32422 10.0352 6.32422H3.90039ZM3.90039 8.25781C3.69531 8.25781 3.52539 8.08203 3.52539 7.87695C3.52539 7.66016 3.69531 7.49023 3.90039 7.49023H7.90234C8.11328 7.49023 8.2832 7.66016 8.2832 7.87695C8.2832 8.08203 8.11328 8.25781 7.90234 8.25781H3.90039Z" fill="#878793"/>
</svg>
