<svg width="22" height="18" viewBox="0 0 22 18" fill="none" xmlns="http://www.w3.org/2000/svg">
<path opacity="0.9" d="M13.0005 17.2495C17.5078 17.2495 21.2432 13.5142 21.2432 9.00684C21.2432 4.50781 17.4995 0.76416 12.9922 0.76416C8.8418 0.76416 5.33057 3.95996 4.83252 7.98584C7.41406 8.02734 9.58057 9.91992 10.0288 12.3936C10.9087 12.02 11.9297 11.8042 13.0005 11.8042C15.0425 11.8042 16.8438 12.5679 17.9395 13.7466C16.6943 15.0332 14.9429 15.8467 12.9922 15.8467C11.8467 15.8467 10.7676 15.5562 9.82129 15.0664C9.67188 15.5063 9.47266 15.9214 9.19873 16.3115C10.3525 16.9092 11.6392 17.2495 13.0005 17.2495ZM12.9922 10.4097C11.4067 10.4097 10.2031 9.02344 10.2031 7.29688C10.2031 5.66162 11.4316 4.24219 12.9922 4.24219C14.561 4.24219 15.7979 5.66162 15.7896 7.29688C15.7896 9.02344 14.5859 10.4097 12.9922 10.4097ZM4.75781 17.5649C7.04883 17.5649 8.97461 15.6558 8.97461 13.3481C8.97461 11.0405 7.07373 9.13135 4.75781 9.13135C2.4502 9.13135 0.541016 11.0405 0.541016 13.3481C0.541016 15.6724 2.4502 17.5649 4.75781 17.5649ZM4.76611 16.0874C4.47559 16.0874 4.21826 15.8882 4.21826 15.5728V13.8545H2.63281C2.35059 13.8545 2.11816 13.6221 2.11816 13.3481C2.11816 13.0659 2.35059 12.8335 2.63281 12.8335H4.21826V11.1152C4.21826 10.8081 4.47559 10.6089 4.76611 10.6089C5.04834 10.6089 5.30566 10.8081 5.30566 11.1152V12.8335H6.89111C7.17334 12.8335 7.39746 13.0659 7.39746 13.3481C7.39746 13.6221 7.17334 13.8545 6.89111 13.8545H5.30566V15.5728C5.30566 15.8882 5.04834 16.0874 4.76611 16.0874Z" fill="#FCFCFC"/>
</svg>
