<svg width="16" height="11" viewBox="0 0 16 11" fill="none" xmlns="http://www.w3.org/2000/svg">
<path d="M3.38281 10.7324H9.45312C11.0176 10.7324 11.9023 9.85938 11.9023 8.34766V7.7207L13.9238 9.4375C14.2344 9.69531 14.5391 9.87109 14.8438 9.87109C15.4004 9.87109 15.7871 9.47852 15.7871 8.875V2.70508C15.7871 2.0957 15.4004 1.70312 14.8438 1.70312C14.5332 1.70312 14.2344 1.87891 13.9238 2.14258L11.9023 3.85938V3.17969C11.9023 1.66211 11.0176 0.794922 9.45312 0.794922H3.38281C1.86523 0.794922 0.933594 1.66211 0.933594 3.17969V8.41797C0.933594 9.92969 1.81836 10.7324 3.38281 10.7324ZM3.59961 9.53711C2.71484 9.53711 2.21094 9.05664 2.21094 8.1543V3.37305C2.21094 2.44141 2.71484 1.98438 3.59961 1.98438H9.23633C10.1211 1.98438 10.625 2.46484 10.625 3.37305V8.1543C10.625 9.05664 10.1094 9.53711 9.23633 9.53711H3.59961ZM14.3633 8.3418L11.9023 6.34961V5.23047L14.3633 3.23242C14.4102 3.19141 14.4453 3.16797 14.4922 3.16797C14.5566 3.16797 14.5859 3.21484 14.5859 3.29102V8.2832C14.5859 8.35938 14.5566 8.40625 14.4922 8.40625C14.4453 8.40625 14.4102 8.37695 14.3633 8.3418Z" fill="#BFBBCF"/>
</svg>
