<svg width="24" height="24" viewBox="0 0 24 24" fill="none" xmlns="http://www.w3.org/2000/svg">
<g filter="url(#filter0_d)">
<path d="M3.0381 10.5478C3.62341 10.5478 4.04307 10.1171 4.04307 9.52071V8.68139L3.83324 5.18056L6.47267 7.95251L9.60906 11.111C9.7968 11.3098 10.0508 11.4092 10.3269 11.4092C10.9564 11.4092 11.4202 10.9895 11.4202 10.36C11.4202 10.0729 11.3098 9.80784 11.111 9.59801L7.96356 6.45058L5.18056 3.8222L8.70348 4.03203H9.55384C10.1502 4.03203 10.603 3.61237 10.603 3.01601C10.603 2.41966 10.1502 2 9.55384 2H3.75594C2.65157 2 2 2.64053 2 3.75594V9.52071C2 10.106 2.44174 10.5478 3.0381 10.5478ZM14.4241 22H20.222C21.3374 22 21.9779 21.3484 21.9779 20.2441V14.4793C21.9779 13.894 21.5472 13.4412 20.9509 13.4412C20.3655 13.4412 19.9348 13.8829 19.9348 14.4793V15.3076L20.1557 18.8194L17.5163 16.0364L14.3799 12.878C14.1811 12.6792 13.9382 12.5798 13.6621 12.5798C13.0326 12.5798 12.5687 12.9994 12.5687 13.6289C12.5687 13.9271 12.6792 14.1922 12.878 14.3909L16.0254 17.5384L18.8084 20.1668L15.2855 19.9569H14.4241C13.8388 19.9569 13.386 20.3766 13.386 20.9729C13.386 21.5693 13.8277 22 14.4241 22Z" fill="#878793"/>
</g>
<defs>
<filter id="filter0_d" x="1.28483" y="2" width="21.4083" height="21.4303" filterUnits="userSpaceOnUse" color-interpolation-filters="sRGB">
<feFlood flood-opacity="0" result="BackgroundImageFix"/>
<feColorMatrix in="SourceAlpha" type="matrix" values="0 0 0 0 0 0 0 0 0 0 0 0 0 0 0 0 0 0 127 0"/>
<feOffset dy="0.715173"/>
<feGaussianBlur stdDeviation="0.357586"/>
<feColorMatrix type="matrix" values="0 0 0 0 0 0 0 0 0 0 0 0 0 0 0 0 0 0 0.5 0"/>
<feBlend mode="normal" in2="BackgroundImageFix" result="effect1_dropShadow"/>
<feBlend mode="normal" in="SourceGraphic" in2="effect1_dropShadow" result="shape"/>
</filter>
</defs>
</svg>
