<svg width="24" height="24" viewBox="0 0 18 18" fill="none" xmlns="http://www.w3.org/2000/svg">
<path d="M2.10156 2.67188C2.71875 2.67188 3.21094 2.17969 3.21094 1.5625C3.21094 0.953125 2.71875 0.453125 2.10156 0.453125C1.49219 0.453125 0.992188 0.953125 0.992188 1.5625C0.992188 2.17969 1.49219 2.67188 2.10156 2.67188ZM5.77344 2.3125H16.3828C16.8047 2.3125 17.1406 1.98438 17.1406 1.5625C17.1406 1.14062 16.8125 0.8125 16.3828 0.8125H5.77344C5.35938 0.8125 5.02344 1.14062 5.02344 1.5625C5.02344 1.98438 5.35156 2.3125 5.77344 2.3125ZM2.10156 7.47656C2.71875 7.47656 3.21094 6.98438 3.21094 6.36719C3.21094 5.75781 2.71875 5.25781 2.10156 5.25781C1.49219 5.25781 0.992188 5.75781 0.992188 6.36719C0.992188 6.98438 1.49219 7.47656 2.10156 7.47656ZM5.77344 7.11719H16.3828C16.8047 7.11719 17.1406 6.78906 17.1406 6.36719C17.1406 5.94531 16.8125 5.61719 16.3828 5.61719H5.77344C5.35938 5.61719 5.02344 5.94531 5.02344 6.36719C5.02344 6.78906 5.35156 7.11719 5.77344 7.11719ZM2.10156 12.2812C2.71875 12.2812 3.21094 11.7891 3.21094 11.1719C3.21094 10.5625 2.71875 10.0625 2.10156 10.0625C1.49219 10.0625 0.992188 10.5625 0.992188 11.1719C0.992188 11.7891 1.49219 12.2812 2.10156 12.2812ZM5.77344 11.9219H16.3828C16.8047 11.9219 17.1406 11.5938 17.1406 11.1719C17.1406 10.75 16.8125 10.4219 16.3828 10.4219H5.77344C5.35938 10.4219 5.02344 10.75 5.02344 11.1719C5.02344 11.5938 5.35156 11.9219 5.77344 11.9219Z" fill="#B2B2BF"/>
</svg>
