<svg width="12" height="13" viewBox="0 0 12 13" fill="none" xmlns="http://www.w3.org/2000/svg">
<path d="M8.91504 8.51562L10.8047 6.62598C11.3711 6.05957 11.3564 5.38574 10.7803 4.79492L10.502 4.51172C9.99414 5.16113 8.54883 5.9375 8.27539 5.66406C8.23145 5.62012 8.22656 5.53223 8.29004 5.46387C8.87109 4.88281 9.2666 4.30176 9.35449 3.37402L6.85449 0.864258C6.34668 0.361328 5.50195 0.556641 5.26758 1.46484C4.94531 2.70996 4.67188 3.45215 4.41309 4.01367L8.91504 8.51562ZM1.38086 11.7188C2.16211 12.5049 3.1875 12.5146 3.95898 11.7383C4.54004 11.1621 5.09668 9.8877 5.53125 9.2041L6.66406 10.3418C7.0498 10.7324 7.51855 10.7324 7.88965 10.3564L8.30469 9.94141C8.68555 9.55566 8.67578 9.11133 8.28516 8.7207L4.37891 4.80957C3.9834 4.41895 3.53418 4.41406 3.14844 4.79492L2.73828 5.20508C2.3623 5.58105 2.3623 6.04492 2.75293 6.43555L3.88574 7.56836C3.20703 7.99805 1.93262 8.55957 1.35645 9.13574C0.580078 9.91211 0.589844 10.9326 1.38086 11.7188ZM2.71387 11.0205C2.3916 11.0205 2.12793 10.7568 2.12793 10.4346C2.12793 10.1123 2.3916 9.84863 2.71387 9.84863C3.03613 9.84863 3.29492 10.1123 3.29492 10.4346C3.29492 10.7568 3.03613 11.0205 2.71387 11.0205Z" fill="white"/>
</svg>
