<svg id="Layer_1" data-name="Layer 1" xmlns="http://www.w3.org/2000/svg" viewBox="0 0 17.77 15.05"><defs><style>.cls-1{fill:#b2b2bf;}</style></defs><path class="cls-1" d="M.88,2.56H17.11a.77.77,0,1,0,0-1.54H.88a.77.77,0,0,0,0,1.54Zm0,9H17.11a.77.77,0,0,0,.78-.77.76.76,0,0,0-.78-.76H.88a.76.76,0,0,0-.77.76A.76.76,0,0,0,.88,11.57Zm0,4.5h9.64a.77.77,0,1,0,0-1.53H.88a.77.77,0,1,0,0,1.53ZM17.12,5.53H.88a.77.77,0,0,0-.77.77h0a.77.77,0,0,0,.77.76H17.12a.77.77,0,0,0,.77-.76h0A.77.77,0,0,0,17.12,5.53Zm0,9H.88a.77.77,0,0,0-.77.77h0a.77.77,0,0,0,.77.76H17.12a.77.77,0,0,0,.77-.76h0A.77.77,0,0,0,17.12,14.54Z" transform="translate(-0.11 -1.02)"/></svg>