<svg width="18" height="18" viewBox="0 0 16 16" fill="none" xmlns="http://www.w3.org/2000/svg">
<path d="M8 15.0947C12.0869 15.0947 15.4707 11.7109 15.4707 7.62402C15.4707 3.54443 12.0796 0.15332 7.99268 0.15332C3.91309 0.15332 0.529297 3.54443 0.529297 7.62402C0.529297 11.7109 3.92041 15.0947 8 15.0947ZM11.8965 8.5542C11.8965 10.3706 10.5781 11.5059 8.81299 11.5059H7.78027C7.44336 11.5059 7.19434 11.3081 7.19434 10.9565C7.19434 10.6123 7.44336 10.4219 7.76562 10.4219H8.81299C9.95557 10.4219 10.7759 9.68213 10.7759 8.49561C10.7759 7.33105 9.93359 6.69385 8.82031 6.69385H6.57178L5.67822 6.66455L6.11768 6.98682L7.05518 7.8877C7.17236 7.99756 7.22363 8.13672 7.22363 8.2832C7.22363 8.59814 6.98926 8.83984 6.68896 8.83984C6.52783 8.83984 6.40332 8.78857 6.30078 8.67871L4.2793 6.62061C4.16211 6.49609 4.07422 6.33496 4.07422 6.15918C4.07422 5.9834 4.16211 5.82227 4.2793 5.69775L6.29346 3.66162C6.396 3.54443 6.52051 3.49316 6.68164 3.49316C6.98926 3.49316 7.22363 3.73486 7.22363 4.0498C7.22363 4.20361 7.15771 4.34277 7.04785 4.43799L6.27881 5.19238L5.67822 5.66113L6.57178 5.63184H8.82031C10.5854 5.63184 11.8965 6.73047 11.8965 8.5542Z" fill="#878793"/>
</svg>
