<svg width="18" height="18" viewBox="0 0 16 16" fill="none" xmlns="http://www.w3.org/2000/svg">
<path d="M8 15.1826C12.0869 15.1826 15.4707 11.7915 15.4707 7.71191C15.4707 3.625 12.0796 0.241211 7.99268 0.241211C3.91309 0.241211 0.529297 3.625 0.529297 7.71191C0.529297 11.7915 3.92041 15.1826 8 15.1826ZM5.61963 5.83691C5.95654 5.83691 6.17627 6.06396 6.17627 6.43018V7.72656L6.06641 8.90576L7.15771 7.74121L9.91895 4.97266C10.0288 4.86279 10.1753 4.79688 10.3584 4.79688C10.688 4.79688 10.915 5.0166 10.915 5.36084C10.915 5.50732 10.8418 5.66113 10.7319 5.771L7.95605 8.53223L6.77686 9.63818L7.89746 9.521H9.25977C9.62598 9.521 9.86035 9.74072 9.86035 10.0703C9.86035 10.4072 9.6333 10.627 9.27441 10.627H5.7002C5.31201 10.627 5.06299 10.4512 5.06299 10.0044V6.44482C5.06299 6.08594 5.29004 5.83691 5.61963 5.83691Z" fill="#878793"/>
</svg>
