<svg width="24" height="24" viewBox="0 0 24 24" fill="none" xmlns="http://www.w3.org/2000/svg">
<path d="M4.66327 20H19.3367C21.1179 20 22 19.1179 22 17.3707V6.62935C22 4.8821 21.1179 4 19.3367 4H4.66328C2.89059 4 2.00001 4.87362 2.00001 6.62935L2 17.3707C2 19.1264 2.89059 20 4.66327 20ZM3.36557 6.6972C3.36557 5.8151 3.83207 5.36556 4.68024 5.36556H19.3198C20.1595 5.36556 20.6344 5.8151 20.6344 6.6972V9.34351H3.36557V6.6972ZM6.13911 7.3503C6.13911 6.94317 5.79984 6.58694 5.37575 6.58694C4.96014 6.58694 4.62087 6.94317 4.62087 7.3503C4.62087 7.74894 4.96014 8.10517 5.37575 8.10517C5.79984 8.10517 6.13911 7.74894 6.13911 7.3503ZM8.64123 7.3503C8.64123 6.94317 8.30196 6.58694 7.88635 6.58694C7.46226 6.58694 7.12299 6.94317 7.12299 7.3503C7.12299 7.74894 7.46226 8.10517 7.88635 8.10517C8.30196 8.10517 8.64123 7.74894 8.64123 7.3503ZM11.1433 7.3503C11.1433 6.94317 10.8041 6.58694 10.3885 6.58694C9.97286 6.58694 9.63359 6.94317 9.63359 7.3503C9.63359 7.74894 9.97286 8.10517 10.3885 8.10517C10.8041 8.10517 11.1433 7.74894 11.1433 7.3503ZM4.68024 18.6344C3.83206 18.6344 3.36556 18.1849 3.36556 17.3028L3.36557 10.5818H20.6344L20.6344 17.3028C20.6344 18.1849 20.1595 18.6344 19.3198 18.6344H4.68024Z" fill="#878793"/>
</svg>
