<svg width="15" height="17" viewBox="0 0 15 17" fill="none" xmlns="http://www.w3.org/2000/svg">
<path d="M4.37305 16.1875H10.0947C11.3457 16.1875 12.0498 15.5791 12.1113 14.3281L12.5557 4.94238H13.4785C14.0254 4.94238 14.4219 4.57324 14.4219 4.02637C14.4219 3.5 14.0254 3.12402 13.4785 3.12402H10.7236V2.52246C10.7236 1.24414 9.78711 0.396484 8.2627 0.396484H6.20508C4.68066 0.396484 3.74414 1.24414 3.74414 2.52246V3.12402H0.989258C0.442383 3.12402 0.0458984 3.5 0.0458984 4.02637C0.0458984 4.57324 0.442383 4.94238 0.989258 4.94238H1.91211L2.35645 14.3281C2.41797 15.5791 3.12207 16.1875 4.37305 16.1875ZM5.6377 3.12402L5.65137 2.56348C5.6582 2.22168 5.91113 1.99609 6.28027 1.99609H8.1875C8.55664 1.99609 8.80957 2.22168 8.81641 2.56348L8.83008 3.12402H5.6377ZM4.3252 13.5146L4.11328 6.38477C4.10645 6.03613 4.3457 5.7627 4.65332 5.7627C4.96094 5.7627 5.2207 6.04297 5.22754 6.38477L5.43262 13.5078C5.43945 13.8633 5.2002 14.1367 4.88574 14.1367C4.57129 14.1367 4.33887 13.8701 4.3252 13.5146ZM6.67676 13.5215V6.37793C6.67676 6.04297 6.93652 5.7627 7.23047 5.7627C7.53125 5.7627 7.79102 6.04297 7.79102 6.37793V13.5215C7.79102 13.8633 7.53125 14.1367 7.23047 14.1367C6.93652 14.1367 6.67676 13.8633 6.67676 13.5215ZM9.03516 13.5078L9.24023 6.38477C9.25391 6.04297 9.50684 5.7627 9.81445 5.7627C10.1289 5.7627 10.3682 6.03613 10.3613 6.38477L10.1426 13.5146C10.1289 13.8701 9.89648 14.1367 9.58887 14.1367C9.26758 14.1367 9.02832 13.8633 9.03516 13.5078Z" fill="#B2B2BF"/>
</svg>
