<svg width="14" height="14" viewBox="0 0 14 14" fill="none" xmlns="http://www.w3.org/2000/svg">
<path d="M12.333 1.66536V9.66536H4.33301V1.66536H12.333ZM12.333 0.332031H4.33301C3.59967 0.332031 2.99967 0.932031 2.99967 1.66536V9.66536C2.99967 10.3987 3.59967 10.9987 4.33301 10.9987H12.333C13.0663 10.9987 13.6663 10.3987 13.6663 9.66536V1.66536C13.6663 0.932031 13.0663 0.332031 12.333 0.332031ZM6.66634 6.7787L7.79301 8.28536L9.44634 6.2187L11.6663 8.9987H4.99967L6.66634 6.7787ZM0.333008 2.9987V12.332C0.333008 13.0654 0.933008 13.6654 1.66634 13.6654H10.9997V12.332H1.66634V2.9987H0.333008Z" fill="white"/>
</svg>
