<svg width="24" height="24" viewBox="0 0 24 24" fill="none" xmlns="http://www.w3.org/2000/svg">
<path d="M22.5398 6.49888C22.4155 6.01564 22.1704 5.57458 21.8291 5.21988C21.4877 4.86518 21.062 4.60929 20.5947 4.47782C18.8796 4 12 4 12 4C12 4 5.12042 4 3.40442 4.47782C2.93729 4.60952 2.51185 4.86551 2.17065 5.22018C1.82946 5.57486 1.58446 6.01579 1.46017 6.49888C1 8.28149 1 12 1 12C1 12 1 15.7185 1.46017 17.5011C1.58445 17.9844 1.82956 18.4254 2.17094 18.7801C2.51232 19.1348 2.938 19.3907 3.40533 19.5222C5.12042 20 12 20 12 20C12 20 18.8796 20 20.5956 19.5222C21.063 19.3908 21.4887 19.1349 21.8301 18.7802C22.1715 18.4255 22.4165 17.9844 22.5408 17.5011C23 15.7185 23 12 23 12C23 12 23 8.28149 22.5398 6.49888ZM9.74958 15.376V8.62401L15.4998 12L9.74958 15.376Z" fill="black"/>
</svg>
