<svg width="14" height="14" viewBox="0 0 14 14" fill="none" xmlns="http://www.w3.org/2000/svg">
	<path fill-rule="evenodd" clip-rule="evenodd" d="M10.9997 1.6674H12.3329C13.0649 1.6674 13.6608 2.263 13.6609 2.99532V12.3394C13.6609 13.0714 13.2381 13.6674 12.5061 13.6674H1.66093C0.928826 13.6674 0.333008 13.0713 0.333008 12.3394V2.99532C0.333008 2.263 0.928826 1.6674 1.66093 1.6674H2.99967V0.979274C2.99967 0.622919 3.28842 0.334064 3.64478 0.334064L3.68791 0.333984C4.04415 0.333984 4.33301 0.62284 4.33301 0.979195V1.66732L9.66634 1.6674V0.979274C9.66634 0.622919 9.95509 0.334064 10.3114 0.334064H10.3544C10.7108 0.334064 10.9997 0.622919 10.9997 0.979274V1.6674ZM1.66093 12.334H12.333V5.00069H1.66093V12.334Z" fill="white"/>
	<path d="M5.57592 9.34418L5.38822 10.506C5.36264 10.6648 5.42518 10.8249 5.54995 10.9197C5.67492 11.0142 5.84086 11.0269 5.97739 10.9523L6.9797 10.4071L7.982 10.9524C8.0413 10.9845 8.10629 11.0007 8.17058 11.0007C8.25478 11.0007 8.33878 10.9732 8.40964 10.9198C8.53451 10.825 8.59725 10.6649 8.57147 10.5061L8.38396 9.34428L9.19102 8.51926C9.30139 8.4066 9.34069 8.23847 9.29335 8.08545C9.24581 7.93254 9.11859 7.82059 8.96588 7.7971L7.84753 7.62427L7.34383 6.56922C7.27551 6.4252 7.13397 6.33398 6.9796 6.33398C6.82552 6.33398 6.68408 6.4252 6.61518 6.56922L6.11197 7.62427L4.99361 7.797C4.84061 7.82049 4.71398 7.93244 4.66634 8.08535C4.61871 8.23836 4.65791 8.4067 4.76847 8.51916L5.57592 9.34418Z" fill="white"/>
</svg>
