<svg width="24" height="24" viewBox="0 0 24 24" fill="none" xmlns="http://www.w3.org/2000/svg">
<path d="M4.15604 18.005H9.40772L9.18121 19.5573H8.03188C7.64597 19.5573 7.31879 19.8779 7.31879 20.2744C7.31879 20.671 7.64597 21 8.03188 21H15.9681C16.354 21 16.6812 20.671 16.6812 20.2744C16.6812 19.8779 16.354 19.5573 15.9681 19.5573H14.8188L14.5923 18.005H19.844C21.2785 18.005 22 17.3132 22 15.8367V6.16824C22 4.69181 21.2785 4 19.844 4H4.15604C2.72148 4 2 4.69181 2 6.16824V15.8367C2 17.3132 2.72148 18.005 4.15604 18.005ZM3.71141 14.2928C3.45973 14.2928 3.35067 14.1916 3.35067 13.93V6.19355C3.35067 5.59454 3.60235 5.35831 4.18121 5.35831H19.8188C20.3893 5.35831 20.6493 5.59454 20.6493 6.19355V13.93C20.6493 14.1916 20.5319 14.2928 20.2802 14.2928H3.71141ZM12 17.1697C11.5721 17.1697 11.2198 16.8154 11.2198 16.3851C11.2198 15.9717 11.5721 15.6089 12 15.6089C12.4195 15.6089 12.7718 15.9717 12.7718 16.3851C12.7718 16.8154 12.4195 17.1697 12 17.1697Z" fill="#878793"/>
</svg>
