<svg width="17" height="17" viewBox="0 0 17 17" fill="none" xmlns="http://www.w3.org/2000/svg">
<path d="M8.36182 16.4375C12.7915 16.4375 16.4478 12.7812 16.4478 8.35938C16.4478 3.9375 12.7837 0.28125 8.354 0.28125C3.93213 0.28125 0.283691 3.9375 0.283691 8.35938C0.283691 12.7812 3.93994 16.4375 8.36182 16.4375ZM3.65869 3.46094C4.43213 2.71875 5.38525 2.14844 6.43994 1.82812C5.88525 2.38281 5.4165 3.17188 5.06494 4.125C4.51807 3.95312 4.0415 3.72656 3.65869 3.46094ZM10.2915 1.83594C11.3462 2.15625 12.2915 2.71875 13.0649 3.46875C12.6821 3.73438 12.2134 3.95312 11.6665 4.13281C11.3149 3.17188 10.8462 2.39062 10.2915 1.83594ZM6.15088 4.39844C6.58057 3.25 7.1665 2.40625 7.81494 2.10156V4.57031C7.22119 4.54688 6.6665 4.49219 6.15088 4.39844ZM8.90869 2.10156C9.55713 2.40625 10.1509 3.25 10.5728 4.39844C10.0649 4.49219 9.50244 4.54688 8.90869 4.57031V2.10156ZM1.57275 7.8125C1.68213 6.49219 2.17432 5.27344 2.93994 4.27344C3.40869 4.625 4.02588 4.92969 4.74463 5.15625C4.5415 5.96094 4.4165 6.85938 4.37744 7.8125H1.57275ZM12.3462 7.8125C12.3149 6.85938 12.1821 5.96094 11.979 5.15625C12.6978 4.92969 13.3149 4.625 13.7837 4.27344C14.5493 5.27344 15.0415 6.49219 15.1509 7.8125H12.3462ZM8.90869 7.8125V5.66406C9.604 5.64062 10.2759 5.5625 10.8931 5.4375C11.0728 6.16406 11.1978 6.96875 11.229 7.8125H8.90869ZM5.49463 7.8125C5.53369 6.96875 5.65088 6.16406 5.83057 5.4375C6.45557 5.5625 7.11963 5.64062 7.81494 5.66406V7.8125H5.49463ZM1.57275 8.90625H4.37744C4.40869 9.875 4.5415 10.7812 4.75244 11.6016C4.0415 11.8281 3.42432 12.125 2.95557 12.4688C2.18213 11.4609 1.68213 10.2344 1.57275 8.90625ZM5.49463 8.90625H7.81494V11.0938C7.12744 11.1172 6.45557 11.1953 5.83838 11.3203C5.65088 10.5781 5.53369 9.75781 5.49463 8.90625ZM8.90869 11.0938V8.90625H11.2368C11.1978 9.75781 11.0728 10.5781 10.8853 11.3203C10.2681 11.1953 9.604 11.1172 8.90869 11.0938ZM11.979 11.6016C12.1821 10.7812 12.3149 9.875 12.354 8.90625H15.1509C15.0415 10.2344 14.5415 11.4609 13.7681 12.4688C13.2993 12.125 12.6899 11.8281 11.979 11.6016ZM8.90869 12.1875C9.50244 12.2109 10.0493 12.2656 10.5649 12.3594C10.1431 13.4844 9.55713 14.3203 8.90869 14.625V12.1875ZM6.1665 12.3594C6.67432 12.2656 7.229 12.2109 7.81494 12.1875V14.625C7.17432 14.3203 6.58838 13.4844 6.1665 12.3594ZM3.68213 13.2734C4.06494 13.0156 4.53369 12.7969 5.07275 12.625C5.4165 13.5625 5.88525 14.3359 6.42432 14.8828C5.38525 14.5703 4.44775 14.0078 3.68213 13.2734ZM11.6587 12.625C12.1978 12.7969 12.6665 13.0156 13.0493 13.2734C12.2759 14.0078 11.3384 14.5703 10.2993 14.8828C10.8462 14.3359 11.3071 13.5625 11.6587 12.625Z" fill="white"/>
</svg>
