<svg width="15" height="15" viewBox="0 0 15 15" fill="none" xmlns="http://www.w3.org/2000/svg">
	<path d="M9.32843 6.69173C9.3002 6.67125 9.27681 6.65454 9.25396 6.63783L4.10563 2.81134C3.83061 2.60708 3.51606 2.58794 3.24749 2.76148C2.83535 3.02772 2.79503 3.64805 3.23431 3.97033C4.0852 4.59443 4.93017 5.22742 5.77756 5.85664L6.21873 6.18458L5.78858 6.76583C5.7617 6.74751 5.741 6.73296 5.72003 6.71733L2.23449 4.12636C1.99415 3.9477 1.73471 3.89839 1.45888 4.02962C0.965556 4.2646 0.898884 4.92238 1.33548 5.26003C1.62422 5.48369 1.92102 5.69684 2.21433 5.91484L5.03179 8.0081C5.04981 8.0213 5.06674 8.03505 5.08879 8.05256C4.97561 8.26814 4.86296 8.48102 4.74709 8.70091L4.44894 8.47994C3.47036 7.75291 2.49186 7.02587 1.51346 6.29884C1.29435 6.13716 1.05643 6.08703 0.798337 6.18674C0.278666 6.38803 0.165751 7.07384 0.602889 7.41984C0.994861 7.72973 1.40269 8.01942 1.80434 8.3188L3.99594 9.94641C4.01745 9.96231 4.03788 9.97875 4.06154 9.99707C3.94782 10.2126 3.83625 10.4245 3.72011 10.6438C3.6978 10.6276 3.67844 10.6144 3.65989 10.6004L1.38334 8.9076C1.1075 8.7028 0.770645 8.69525 0.503148 8.88739C0.130801 9.15443 0.101498 9.72409 0.456369 10.0146C0.710963 10.2232 0.981419 10.4123 1.24596 10.6074C2.86564 11.8096 4.4856 13.0114 6.10582 14.2127C6.68087 14.6387 7.32744 14.8365 8.03987 14.7829C8.90554 14.7179 9.61421 14.3396 10.1384 13.6436C10.7478 12.8351 11.3482 12.0214 11.9397 11.2024C12.2825 10.7284 12.4088 10.187 12.3317 9.60849C12.2929 9.31881 12.2169 9.03398 12.1523 8.74807C11.8778 7.53203 11.602 6.31618 11.3251 5.1005C11.2294 4.67878 11.1348 4.25705 11.0369 3.83587C11.0275 3.80292 11.0068 3.77432 10.9786 3.75503C10.7662 3.6149 10.5369 3.52894 10.2774 3.55077C10.064 3.56882 9.89273 3.66987 9.74702 3.82266C9.6013 3.97545 9.56608 4.1754 9.53974 4.37212C9.49162 4.73186 9.44968 5.09268 9.41715 5.45405C9.3822 5.86257 9.35881 6.27216 9.32843 6.69173Z" fill="#F5F7FF"/>
	<path d="M13.5713 9.85925C13.635 9.77356 13.6888 9.7008 13.7425 9.62697C13.9796 9.30037 14.2318 8.98347 14.4493 8.6442C14.7504 8.17559 14.8512 7.65201 14.7569 7.10309C14.6918 6.72422 14.5956 6.351 14.5101 5.97562C14.2434 4.79875 13.9761 3.62206 13.7081 2.44554C13.6284 2.09397 13.5477 1.7424 13.4662 1.39083C13.4623 1.36732 13.4505 1.34583 13.4328 1.32993C13.1758 1.15855 12.8981 1.05211 12.5865 1.13753C12.2639 1.22511 12.0574 1.43314 12.0042 1.77025C11.9566 2.07098 11.9273 2.37467 11.8768 2.67486C11.8515 2.82523 11.8808 2.93625 11.9889 3.04997C12.1601 3.22998 12.2039 3.47196 12.2577 3.70694C12.5402 4.95945 12.824 6.21177 13.1091 7.46392C13.2385 8.03331 13.378 8.60082 13.4976 9.1721C13.5401 9.37232 13.5425 9.58116 13.5632 9.78623C13.5654 9.80536 13.5675 9.82449 13.5713 9.85925Z" fill="#F5F7FF"/>
	<path d="M9.44336 2.54222C9.42992 2.53063 9.41889 2.51985 9.40653 2.51096C8.4421 1.79453 7.47821 1.07827 6.51486 0.362192C6.2229 0.146615 5.86238 0.158472 5.59327 0.38914C5.26233 0.672085 5.2626 1.21507 5.60671 1.48185C6.02799 1.80791 6.45948 2.12077 6.88721 2.43982C7.3955 2.81834 7.90424 3.19641 8.41343 3.57403C8.43144 3.58723 8.44999 3.59963 8.46719 3.61283C8.65135 3.12616 9.00138 2.79445 9.44336 2.54222Z" fill="#F5F7FF"/>
</svg>
