<svg width="20" height="16" viewBox="0 0 20 16" fill="none" xmlns="http://www.w3.org/2000/svg">
<path d="M4.49398 15.0246C4.77707 15.0246 4.97523 14.8912 5.30786 14.5825L7.3673 12.6807C6.97098 12.3649 6.64544 11.8667 6.64544 10.7228V6.07018C6.64544 3.91579 7.96178 2.6386 10.1345 2.6386H15.0885L15.0814 2.37193C14.9752 0.933333 14.0198 0 12.3992 0H2.68931C1.06865 0 0 0.961404 0 2.63158V9.52281C0 11.193 1.06865 12.2667 2.68931 12.2667H3.86412V14.3088C3.86412 14.7439 4.09766 15.0246 4.49398 15.0246ZM15.9306 16C16.334 16 16.5605 15.7123 16.5605 15.2842V13.2351H17.3107C18.9314 13.2351 20 12.1614 20 10.4982V6.23158C20 4.55439 18.9314 3.6 17.3107 3.6H10.2972C8.6058 3.6 7.615 4.55439 7.615 6.23158V10.4982C7.615 12.1614 8.6058 13.2351 10.2972 13.2351H12.5619L15.1168 15.5509C15.4494 15.8596 15.6476 16 15.9306 16Z" fill="#878793"/>
</svg>
