<svg width="15" height="15" viewBox="0 0 15 15" fill="none" xmlns="http://www.w3.org/2000/svg">
	<path d="M5.24308 6.50989C5.60594 6.50989 5.89765 6.18261 5.89765 5.74149C5.89765 5.30036 5.60594 4.98019 5.24308 4.98019C4.88733 4.98019 4.60273 5.30036 4.60273 5.74149C4.60273 6.18261 4.88733 6.50989 5.24308 6.50989ZM9.16339 6.50989C9.52625 6.50989 9.81796 6.18261 9.81796 5.74149C9.81796 5.30036 9.52625 4.98019 9.16339 4.98019C8.80764 4.98019 8.51593 5.30036 8.51593 5.74149C8.51593 6.18261 8.80764 6.50989 9.16339 6.50989Z" fill="white"/>
	<path fill-rule="evenodd" clip-rule="evenodd" d="M9.32814 8.75912L9.33206 8.75577C9.41564 8.68413 9.5345 8.66587 9.63553 8.72244C9.73105 8.77594 9.77605 8.87609 9.77605 8.97165C9.77605 9.13977 9.68743 9.32395 9.56798 9.48931C9.44327 9.66196 9.26486 9.84202 9.04254 10.0053C8.59741 10.3323 7.9626 10.6017 7.19967 10.6017C6.43675 10.6017 5.80194 10.3323 5.35681 10.0053C5.13449 9.84202 4.95608 9.66196 4.83137 9.48931C4.71192 9.32395 4.6233 9.13977 4.6233 8.97165C4.6233 8.88532 4.66054 8.77606 4.76943 8.72162C4.87832 8.66717 4.98807 8.70293 5.05713 8.75473L5.06436 8.76015L5.07106 8.7662C5.46615 9.12243 6.19313 9.47603 7.19967 9.47603C8.209 9.47603 8.93274 9.13507 9.3244 8.76268L9.32814 8.75912ZM14.0663 7.20004C14.0663 10.9676 10.9672 14.0667 7.19967 14.0667C3.43216 14.0667 0.333008 10.9676 0.333008 7.20004C0.333008 3.43252 3.43216 0.333374 7.19967 0.333374C10.9672 0.333374 14.0663 3.43252 14.0663 7.20004ZM1.45161 7.20004C1.45161 10.3841 4.01624 12.9552 7.19967 12.9552C10.3834 12.9552 12.9549 10.3838 12.9549 7.20004C12.9549 4.0163 10.3834 1.44486 7.19967 1.44486C4.01624 1.44486 1.45161 4.01598 1.45161 7.20004ZM6.09765 5.74149C6.09765 6.26454 5.74291 6.7099 5.24308 6.7099C4.74646 6.7099 4.40273 6.25997 4.40273 5.74149C4.40273 5.22038 4.74868 4.78019 5.24308 4.78019C5.74064 4.78019 6.09765 5.21583 6.09765 5.74149ZM10.018 5.74149C10.018 6.26454 9.66322 6.7099 9.16339 6.7099C8.66937 6.7099 8.31593 6.26303 8.31593 5.74149C8.31593 5.21733 8.67163 4.78019 9.16339 4.78019C9.66096 4.78019 10.018 5.21583 10.018 5.74149ZM5.89765 5.74149C5.89765 6.18261 5.60594 6.50989 5.24308 6.50989C4.88733 6.50989 4.60273 6.18261 4.60273 5.74149C4.60273 5.30036 4.88733 4.98019 5.24308 4.98019C5.60594 4.98019 5.89765 5.30036 5.89765 5.74149ZM9.81796 5.74149C9.81796 6.18261 9.52625 6.50989 9.16339 6.50989C8.80764 6.50989 8.51593 6.18261 8.51593 5.74149C8.51593 5.30036 8.80764 4.98019 9.16339 4.98019C9.52625 4.98019 9.81796 5.30036 9.81796 5.74149Z" fill="white"/>
</svg>
