<svg width="12" height="18" viewBox="0 0 12 18" fill="none" xmlns="http://www.w3.org/2000/svg">
<path d="M10.6023 7.49878C10.9827 7.14541 11.3107 6.72633 11.5869 6.24032C11.8631 5.75431 12.0011 5.18865 12 4.54442C12 3.72443 11.7577 2.96524 11.274 2.26694C10.7899 1.56809 10.1035 1.01569 9.2156 0.609877C8.32766 0.203451 7.30396 0 6.14393 0C4.89652 0 3.80401 0.243311 2.86833 0.729322C1.93207 1.21479 1.2201 1.828 0.731829 2.56834C0.244134 3.30868 0 4.03964 0 4.76066C0 5.11008 0.15382 5.43461 0.461461 5.73431C0.769675 6.03401 1.14777 6.18386 1.59583 6.18386C2.35504 6.18386 2.87127 5.75485 3.14393 4.8967C3.43236 4.07671 3.78365 3.45635 4.19967 3.03503C4.61568 2.61371 5.26358 2.40305 6.14393 2.40305C6.89611 2.40305 7.51025 2.61208 7.98626 3.02952C8.46284 3.44697 8.69995 3.95896 8.69995 4.56659C8.69995 4.87786 8.62304 5.16593 8.46628 5.43189C8.31074 5.69731 8.119 5.93838 7.89064 6.15509C7.66285 6.37133 7.29285 6.69198 6.78071 7.11718C6.19632 7.60319 5.73257 8.02234 5.38823 8.37564C5.04446 8.72894 4.76771 9.13863 4.56085 9.60587C4.35284 10.073 4.24855 10.6254 4.24855 11.2629C4.24855 11.7716 4.39012 12.1548 4.67389 12.413C4.95881 12.6712 5.30838 12.8 5.7244 12.8C6.52439 12.8 7.0004 12.4053 7.15186 11.6157C7.24102 11.2436 7.30682 10.9832 7.35055 10.8356C7.39427 10.6874 7.45599 10.5392 7.53641 10.391C7.61626 10.2428 7.73861 10.0798 7.90232 9.90115C8.06603 9.72314 8.28451 9.51635 8.55602 9.2808C9.54073 8.4459 10.223 7.85208 10.6023 7.49878Z" fill="white"/>
<path d="M5.61574 17.5994C6.03373 17.5994 6.4027 17.456 6.72107 17.1707C7.03996 16.8855 7.19943 16.4931 7.2 15.9937C7.2 15.5442 7.04726 15.1659 6.74278 14.8593C6.43781 14.5527 6.0621 14.3994 5.61574 14.3994C5.16215 14.3994 4.77978 14.5527 4.46807 14.8593C4.15636 15.1659 4 15.5442 4 15.9937C4 16.5004 4.16157 16.8947 4.48407 17.1764C4.80606 17.4586 5.18329 17.5994 5.61574 17.5994Z" fill="white"/>
</svg>
