<svg width="24" height="24" viewBox="0 0 24 24" fill="none" xmlns="http://www.w3.org/2000/svg">
<path d="M21.0669 22.1042C21.3277 22.365 21.7624 22.365 22.0145 22.1042C22.2666 21.8434 22.2753 21.4174 22.0145 21.1566L20.821 19.9637L20.8226 19.9633L14.2329 13.3766L14.2318 13.3775L8.85272 8.00081L8.85343 7.99959L4.85233 4.00031H4.85041L2.8446 1.99541C2.58379 1.7346 2.14911 1.7346 1.8883 1.99541C1.63619 2.24753 1.63619 2.6909 1.8883 2.94301L21.0669 22.1042Z" fill="#878793"/>
<path d="M20.4475 4L6.26684 4.00028L9.46785 7.19983C10.1406 6.52441 11.0394 6.11914 11.999 6.11914C13.9844 6.11914 15.71 7.81689 15.71 10.1084C15.71 11.0773 15.4088 11.9524 14.9133 12.6429L21.6887 19.4151C21.7014 19.3988 21.714 19.382 21.7264 19.365C21.923 19.0929 22.002 18.7839 22.002 18.4487V5.59298C22.002 5.54075 22.002 5.48852 22 5.43629C21.9926 5.1481 21.8977 4.86892 21.7277 4.63567C21.4137 4.2023 20.9803 4 20.4475 4Z" fill="#878793"/>
<path d="M11.742 14.1991C10.0553 14.0691 8.61875 12.6706 8.3378 10.7981L2.23271 4.69871C2.07974 4.93781 2.00284 5.2195 2.00284 5.54372V17.813C2.00284 17.891 2.00262 17.969 2.0024 18.0471C2.00195 18.2032 2.00151 18.3594 2.00284 18.5154C2.0017 18.8234 2.0998 19.1237 2.2827 19.3719C2.59671 19.8017 3.02777 20 3.5583 20H4.56217C5.50561 17.9465 8.17886 15.8696 11.9897 15.8696C12.5269 15.8696 13.0414 15.9107 13.5317 15.9871L11.742 14.1991Z" fill="#878793"/>
</svg>
