<svg width="12" height="12" viewBox="0 0 12 12" fill="none" xmlns="http://www.w3.org/2000/svg">
	<path d="M5.8654 3.42614H6.94757V4.50832H5.8654V3.42614ZM5.8654 5.59049H6.94757V8.83702H5.8654V5.59049ZM6.40649 0.720703C3.41968 0.720703 0.995605 3.14478 0.995605 6.13158C0.995605 9.11839 3.41968 11.5425 6.40649 11.5425C9.39329 11.5425 11.8174 9.11839 11.8174 6.13158C11.8174 3.14478 9.39329 0.720703 6.40649 0.720703ZM6.40649 10.4603C4.02029 10.4603 2.07778 8.51778 2.07778 6.13158C2.07778 3.74539 4.02029 1.80288 6.40649 1.80288C8.79268 1.80288 10.7352 3.74539 10.7352 6.13158C10.7352 8.51778 8.79268 10.4603 6.40649 10.4603Z" fill="white"/>
</svg>
