<svg width="24" height="24" viewBox="0 0 24 24" fill="none" xmlns="http://www.w3.org/2000/svg">
<path d="M5.84689 18.9193H5.73557C5.01794 18.9193 4.3003 18.9176 3.58267 18.9193C3.04615 18.921 2.61482 18.7101 2.29277 18.2834C2.08136 18.0023 2 17.6784 2 17.3279C2.00182 15.1874 2.00182 13.0468 2 10.9061C2 9.49399 2 8.08201 2 6.67014C2 6.32136 2.0817 6.00186 2.28801 5.72046C2.60529 5.2873 3.03866 5.07974 3.57348 5.07974H4.96925C9.08509 5.07974 13.201 5.07974 17.3171 5.07974C17.728 5.07974 18.0957 5.18964 18.4038 5.46424C18.7639 5.78443 18.927 6.19343 18.9267 6.67252C18.9267 8.47275 18.9267 10.2731 18.9267 12.0735C18.9267 13.8259 18.9267 15.578 18.9267 17.33C18.9267 17.8744 18.7176 18.315 18.274 18.6362C18.0124 18.8256 17.6966 18.9254 17.3736 18.9207H14.7097C12.9367 18.9207 11.1639 18.9207 9.39114 18.9207C9.36503 18.9187 9.33886 18.9236 9.31533 18.9351C9.29181 18.9466 9.27179 18.9642 9.25735 18.986C8.58193 19.8893 7.90492 20.7916 7.22633 21.6928C7.02921 21.9535 6.74597 22.0481 6.4498 21.9773C6.13388 21.9021 5.93302 21.6945 5.86085 21.375C5.84843 21.2994 5.84421 21.2226 5.84825 21.146C5.84825 20.4428 5.84825 19.7396 5.84825 19.0364L5.84689 18.9193Z" fill="#878793"/>
<path d="M5.07912 3.53936C5.07572 3.22908 5.16965 2.92552 5.34773 2.67134C5.67182 2.21028 6.12357 2 6.67882 2C9.22934 2 11.7798 2 14.33 2C16.3499 2 18.3699 2 20.3898 2C20.6873 2 20.9716 2.05342 21.2282 2.2079C21.7447 2.51822 21.9997 2.9803 22 3.58223C22 4.53225 22 5.48216 22 6.43195C22 9.03203 22 11.6322 22 14.2325C22 14.4972 21.9619 14.7521 21.8397 14.9886C21.6014 15.4527 21.2201 15.7297 20.7064 15.8216C20.6294 15.8352 20.5508 15.8375 20.4612 15.8464V15.7174C20.4612 12.4509 20.4612 9.18435 20.4612 5.91781C20.4612 5.35841 20.3094 4.85346 19.9611 4.41758C19.5897 3.95278 19.1101 3.65913 18.5143 3.57372C18.3487 3.55064 18.1817 3.53927 18.0146 3.5397C13.7394 3.53788 9.46424 3.53788 5.18908 3.5397L5.07912 3.53936Z" fill="#878793"/>
</svg>
