<svg width="20" height="17" viewBox="0 0 20 17" fill="none" xmlns="http://www.w3.org/2000/svg">
	<path d="M7.4987 17.0007H14.9987C15.6904 17.0007 16.282 16.584 16.532 15.984L19.0487 10.109C19.1237 9.91732 19.1654 9.71732 19.1654 9.50065V7.83398C19.1654 6.91732 18.4154 6.16732 17.4987 6.16732H12.2404L13.032 2.35898L13.057 2.09232C13.057 1.75065 12.9154 1.43398 12.6904 1.20898L11.807 0.333984L6.31536 5.82565C6.01536 6.12565 5.83203 6.54232 5.83203 7.00065V15.334C5.83203 16.2507 6.58203 17.0007 7.4987 17.0007ZM7.4987 7.00065L11.1154 3.38398L9.9987 7.83398H17.4987V9.50065L14.9987 15.334H7.4987V7.00065ZM0.832031 7.00065H4.16536V17.0007H0.832031V7.00065Z" fill="#3456FF"/>
</svg>
