<svg xmlns="http://www.w3.org/2000/svg" width="16" height="16" viewBox="0 0 16 16" fill="none">
<path d="M3.43467 14H12.5733C13.9715 14 14.6673 13.3221 14.6673 11.9794V4.02064C14.6673 2.67789 13.9715 2 12.5733 2H3.43467C2.03644 2 1.33398 2.67137 1.33398 4.02064V11.9794C1.33398 13.3286 2.03644 14 3.43467 14ZM3.33432 12.9506C2.7389 12.9506 2.41109 12.6442 2.41109 12.038V5.89136C2.41109 5.29169 2.7389 4.97882 3.33432 4.97882H12.6603C13.2557 4.97882 13.5902 5.29169 13.5902 5.89136V12.038C13.5902 12.6442 13.2557 12.9506 12.6603 12.9506H3.33432ZM6.69274 7.31885H7.08745C7.32161 7.31885 7.40189 7.25367 7.40189 7.02553V6.64096C7.40189 6.41282 7.32161 6.34112 7.08745 6.34112H6.69274C6.45859 6.34112 6.37831 6.41282 6.37831 6.64096V7.02553C6.37831 7.25367 6.45859 7.31885 6.69274 7.31885ZM8.92054 7.31885H9.30856C9.54272 7.31885 9.623 7.25367 9.623 7.02553V6.64096C9.623 6.41282 9.54272 6.34112 9.30856 6.34112H8.92054C8.67969 6.34112 8.6061 6.41282 8.6061 6.64096V7.02553C8.6061 7.25367 8.67969 7.31885 8.92054 7.31885ZM11.1416 7.31885H11.5364C11.7705 7.31885 11.8441 7.25367 11.8441 7.02553V6.64096C11.8441 6.41282 11.7705 6.34112 11.5364 6.34112H11.1416C10.9075 6.34112 10.8272 6.41282 10.8272 6.64096V7.02553C10.8272 7.25367 10.9075 7.31885 11.1416 7.31885ZM4.47163 9.4503H4.86635C5.1005 9.4503 5.17409 9.38512 5.17409 9.15698V8.77241C5.17409 8.54427 5.1005 8.47909 4.86635 8.47909H4.47163C4.23748 8.47909 4.1572 8.54427 4.1572 8.77241V9.15698C4.1572 9.38512 4.23748 9.4503 4.47163 9.4503ZM6.69274 9.4503H7.08745C7.32161 9.4503 7.40189 9.38512 7.40189 9.15698V8.77241C7.40189 8.54427 7.32161 8.47909 7.08745 8.47909H6.69274C6.45859 8.47909 6.37831 8.54427 6.37831 8.77241V9.15698C6.37831 9.38512 6.45859 9.4503 6.69274 9.4503ZM8.92054 9.4503H9.30856C9.54272 9.4503 9.623 9.38512 9.623 9.15698V8.77241C9.623 8.54427 9.54272 8.47909 9.30856 8.47909H8.92054C8.67969 8.47909 8.6061 8.54427 8.6061 8.77241V9.15698C8.6061 9.38512 8.67969 9.4503 8.92054 9.4503ZM11.1416 9.4503H11.5364C11.7705 9.4503 11.8441 9.38512 11.8441 9.15698V8.77241C11.8441 8.54427 11.7705 8.47909 11.5364 8.47909H11.1416C10.9075 8.47909 10.8272 8.54427 10.8272 8.77241V9.15698C10.8272 9.38512 10.9075 9.4503 11.1416 9.4503ZM4.47163 11.5883H4.86635C5.1005 11.5883 5.17409 11.5166 5.17409 11.2884V10.9039C5.17409 10.6757 5.1005 10.6105 4.86635 10.6105H4.47163C4.23748 10.6105 4.1572 10.6757 4.1572 10.9039V11.2884C4.1572 11.5166 4.23748 11.5883 4.47163 11.5883ZM6.69274 11.5883H7.08745C7.32161 11.5883 7.40189 11.5166 7.40189 11.2884V10.9039C7.40189 10.6757 7.32161 10.6105 7.08745 10.6105H6.69274C6.45859 10.6105 6.37831 10.6757 6.37831 10.9039V11.2884C6.37831 11.5166 6.45859 11.5883 6.69274 11.5883ZM8.92054 11.5883H9.30856C9.54272 11.5883 9.623 11.5166 9.623 11.2884V10.9039C9.623 10.6757 9.54272 10.6105 9.30856 10.6105H8.92054C8.67969 10.6105 8.6061 10.6757 8.6061 10.9039V11.2884C8.6061 11.5166 8.67969 11.5883 8.92054 11.5883Z" fill="white"/>
</svg>