<svg width="24" height="24" viewBox="0 0 24 24" fill="none" xmlns="http://www.w3.org/2000/svg">
<path d="M12.0049 14.8659C14.1083 14.8659 15.5563 13.2762 15.5563 11.0192V4.84673C15.5563 2.57991 14.1083 1 12.0049 1C9.89168 1 8.44375 2.57991 8.44375 4.84673V11.0192C8.44375 13.2762 9.89168 14.8659 12.0049 14.8659ZM12.0049 13.4037C10.7526 13.4037 9.92103 12.4715 9.92103 11.0192V4.84673C9.92103 3.39439 10.7526 2.46215 12.0049 2.46215C13.2572 2.46215 14.079 3.39439 14.079 4.84673V11.0192C14.079 12.4715 13.2572 13.4037 12.0049 13.4037ZM7.63173 22H16.3683C16.7792 22 17.1118 21.6762 17.1118 21.264C17.1118 20.8519 16.7792 20.5182 16.3683 20.5182H12.7386V18.2318C16.4759 17.9178 19 15.229 19 11.3724V9.38037C19 8.96822 18.6771 8.64439 18.2662 8.64439C17.8553 8.64439 17.5227 8.96822 17.5227 9.38037V11.3136C17.5227 14.6598 15.3508 16.8776 12.0049 16.8776C8.6492 16.8776 6.47729 14.6598 6.47729 11.3136V9.38037C6.47729 8.96822 6.15444 8.64439 5.73375 8.64439C5.32285 8.64439 5 8.96822 5 9.38037V11.3724C5 15.229 7.53389 17.9178 11.2614 18.2318V20.5182H7.63173C7.22082 20.5182 6.88819 20.8519 6.88819 21.264C6.88819 21.6762 7.22082 22 7.63173 22Z" fill="#878793"/>
</svg>
