<svg width="12" height="12" viewBox="0 0 12 12" fill="none" xmlns="http://www.w3.org/2000/svg">
<path fill-rule="evenodd" clip-rule="evenodd" d="M5.61119 10.5226L4.69274 10.0144C4.57323 10.2448 4.42207 10.4562 4.24503 10.6427L5.59138 11.3844C5.86875 11.5385 6.13125 11.5385 6.41357 11.3844L10.3066 9.23702C10.7623 8.98183 11 8.73146 11 8.04293V4.22957C11 3.72882 10.8118 3.42067 10.3957 3.18474L6.88905 1.24917C6.28975 0.916944 5.71025 0.916944 5.11095 1.24917L1.60921 3.18474C1.18821 3.42067 1 3.72882 1 4.22957V6.29985C1.2336 6.18044 1.48653 6.09345 1.75285 6.04482V4.38364L5.61119 6.52625V10.5226ZM8.33036 4.57142L4.49183 2.46251L5.44279 1.93769C5.82417 1.72584 6.17583 1.72102 6.56216 1.93769L9.82615 3.74808L8.33036 4.57142ZM6.00248 5.85217L2.1788 3.74808L3.70926 2.89585L7.53294 5.00957L6.00248 5.85217ZM9.86578 8.60146L6.38881 10.5226V6.52625L10.2472 4.38364V8.01886C10.2472 8.28368 10.1481 8.44257 9.86578 8.60146Z" fill="white"/>
<path fill-rule="evenodd" clip-rule="evenodd" d="M1 6.88521V6.87889C1.22548 6.72796 1.47976 6.6167 1.75285 6.55511V6.55646C1.91306 6.51954 2.07949 6.5 2.25 6.5C3.48573 6.5 4.5 7.5187 4.5 8.75C4.5 9.11559 4.40941 9.46243 4.25004 9.76943L4.25496 9.77215C4.13603 10.005 3.97776 10.2143 3.7889 10.3914L3.7812 10.3872C3.37657 10.7662 2.83565 11 2.25 11C1.0187 11 0 9.99016 0 8.75C0 7.97915 0.399264 7.29162 1 6.88521ZM1.95666 8.47983H1.11616C1.092 8.47983 1.06853 8.48302 1.04615 8.48898C1.04614 8.48898 1.04615 8.48898 1.04615 8.48898C0.928966 8.52018 0.841535 8.62728 0.841535 8.75C0.841535 8.86705 0.921065 8.96989 1.03008 9.00622C1.05721 9.01526 1.08616 9.02018 1.11616 9.02018H1.96211V9.94144C1.96211 10.0675 2.04342 10.1596 2.15154 10.1953C2.18393 10.206 2.21872 10.2116 2.25445 10.2116C2.40504 10.2116 2.54234 10.1053 2.54234 9.94144V9.02018H3.3883C3.5389 9.02018 3.65848 8.89617 3.65848 8.75001C3.65848 8.63296 3.58179 8.53011 3.47391 8.49379C3.44706 8.48475 3.41829 8.47982 3.38829 8.47982H2.54234V7.563C2.54234 7.43676 2.4651 7.34541 2.36294 7.30762C2.35017 7.3029 2.33702 7.29902 2.32357 7.296C2.30116 7.29098 2.27796 7.28839 2.25443 7.28839C2.09941 7.28839 1.96211 7.39468 1.96211 7.56299V8.47982L1.95666 8.47983C1.95665 8.47983 1.95666 8.47983 1.95666 8.47983Z" fill="white"/>
</svg>
