<svg width="13" height="12" viewBox="0 0 13 12" fill="none" xmlns="http://www.w3.org/2000/svg">
<path d="M4.54883 11.084H8.38086C9.08984 11.084 9.49414 10.6562 9.49414 9.97656V7.19922H12.0312C12.4297 7.19922 12.7344 6.95898 12.7344 6.58398C12.7344 6.34961 12.623 6.17969 12.4355 5.99219L7.14453 0.707031C6.89258 0.455078 6.69336 0.355469 6.46484 0.355469C6.23633 0.355469 6.03125 0.455078 5.78516 0.707031L0.494141 5.99219C0.300781 6.18555 0.195312 6.34961 0.195312 6.58398C0.195312 6.95898 0.5 7.19922 0.898438 7.19922H3.43555V9.97656C3.43555 10.6562 3.83984 11.084 4.54883 11.084Z" fill="#FCFCFC"/>
</svg>