<svg width="18" height="18" viewBox="0 0 16 16" fill="none" xmlns="http://www.w3.org/2000/svg">
<path d="M8 15.1826C12.0869 15.1826 15.4707 11.7915 15.4707 7.71191C15.4707 3.625 12.0796 0.241211 7.99268 0.241211C3.91309 0.241211 0.529297 3.625 0.529297 7.71191C0.529297 11.7915 3.92041 15.1826 8 15.1826ZM10.3584 9.58691C10.0215 9.58691 9.80176 9.35254 9.80176 8.99365V7.69727L9.91162 6.51807L8.82031 7.68262L6.05908 10.4512C5.94189 10.561 5.80273 10.627 5.61963 10.627C5.29004 10.627 5.06299 10.4072 5.06299 10.063C5.06299 9.9165 5.13623 9.7627 5.24609 9.65283L8.02197 6.88428L9.20117 5.78564L8.08057 5.90283H6.71826C6.35205 5.90283 6.11768 5.68311 6.11768 5.35352C6.11768 5.0166 6.34473 4.79688 6.70361 4.79688H10.2778C10.666 4.79688 10.915 4.97266 10.915 5.41943V8.979C10.915 9.33057 10.688 9.58691 10.3584 9.58691Z" fill="#878793"/>
</svg>
