<svg width="12" height="16" viewBox="0 0 12 16" fill="none" xmlns="http://www.w3.org/2000/svg">
<path d="M1.38476 16H3.64438C4.55784 16 5.02899 15.5288 5.02899 14.6154V1.38462C5.02899 0.451923 4.55784 0.00961538 3.64438 0H1.38476C0.471298 0 0.00014426 0.471154 0.00014426 1.38462V14.6154C-0.00947112 15.5288 0.461683 16 1.38476 16ZM8.36538 16H10.6154C11.5288 16 12 15.5288 12 14.6154V1.38462C12 0.451923 11.5288 0 10.6154 0H8.36538C7.44231 0 6.98077 0.471154 6.98077 1.38462V14.6154C6.98077 15.5288 7.44231 16 8.36538 16Z" fill="#878793"/>
</svg>
